%TF.GenerationSoftware,KiCad,Pcbnew,9.0.3*%
%TF.CreationDate,2025-12-16T09:58:15+01:00*%
%TF.ProjectId,PTP_Ivan_Hodak_Project1,5054505f-4976-4616-9e5f-486f64616b5f,rev?*%
%TF.SameCoordinates,Original*%
%TF.FileFunction,Legend,Top*%
%TF.FilePolarity,Positive*%
%FSLAX46Y46*%
G04 Gerber Fmt 4.6, Leading zero omitted, Abs format (unit mm)*
G04 Created by KiCad (PCBNEW 9.0.3) date 2025-12-16 09:58:15*
%MOMM*%
%LPD*%
G01*
G04 APERTURE LIST*
%ADD10C,0.150000*%
%ADD11C,0.120000*%
G04 APERTURE END LIST*
D10*
X180511905Y-119204819D02*
X180511905Y-118204819D01*
X180511905Y-118204819D02*
X180750000Y-118204819D01*
X180750000Y-118204819D02*
X180892857Y-118252438D01*
X180892857Y-118252438D02*
X180988095Y-118347676D01*
X180988095Y-118347676D02*
X181035714Y-118442914D01*
X181035714Y-118442914D02*
X181083333Y-118633390D01*
X181083333Y-118633390D02*
X181083333Y-118776247D01*
X181083333Y-118776247D02*
X181035714Y-118966723D01*
X181035714Y-118966723D02*
X180988095Y-119061961D01*
X180988095Y-119061961D02*
X180892857Y-119157200D01*
X180892857Y-119157200D02*
X180750000Y-119204819D01*
X180750000Y-119204819D02*
X180511905Y-119204819D01*
X181940476Y-118538152D02*
X181940476Y-119204819D01*
X181702381Y-118157200D02*
X181464286Y-118871485D01*
X181464286Y-118871485D02*
X182083333Y-118871485D01*
X187338095Y-119204819D02*
X187338095Y-118204819D01*
X187909523Y-119204819D02*
X187480952Y-118633390D01*
X187909523Y-118204819D02*
X187338095Y-118776247D01*
X156059819Y-85916666D02*
X155583628Y-86249999D01*
X156059819Y-86488094D02*
X155059819Y-86488094D01*
X155059819Y-86488094D02*
X155059819Y-86107142D01*
X155059819Y-86107142D02*
X155107438Y-86011904D01*
X155107438Y-86011904D02*
X155155057Y-85964285D01*
X155155057Y-85964285D02*
X155250295Y-85916666D01*
X155250295Y-85916666D02*
X155393152Y-85916666D01*
X155393152Y-85916666D02*
X155488390Y-85964285D01*
X155488390Y-85964285D02*
X155536009Y-86011904D01*
X155536009Y-86011904D02*
X155583628Y-86107142D01*
X155583628Y-86107142D02*
X155583628Y-86488094D01*
X155393152Y-85059523D02*
X156059819Y-85059523D01*
X155012200Y-85297618D02*
X155726485Y-85535713D01*
X155726485Y-85535713D02*
X155726485Y-84916666D01*
X195833333Y-114354819D02*
X195357143Y-114354819D01*
X195357143Y-114354819D02*
X195357143Y-113354819D01*
X196690476Y-114354819D02*
X196119048Y-114354819D01*
X196404762Y-114354819D02*
X196404762Y-113354819D01*
X196404762Y-113354819D02*
X196309524Y-113497676D01*
X196309524Y-113497676D02*
X196214286Y-113592914D01*
X196214286Y-113592914D02*
X196119048Y-113640533D01*
X177448095Y-99755819D02*
X177448095Y-100565342D01*
X177448095Y-100565342D02*
X177495714Y-100660580D01*
X177495714Y-100660580D02*
X177543333Y-100708200D01*
X177543333Y-100708200D02*
X177638571Y-100755819D01*
X177638571Y-100755819D02*
X177829047Y-100755819D01*
X177829047Y-100755819D02*
X177924285Y-100708200D01*
X177924285Y-100708200D02*
X177971904Y-100660580D01*
X177971904Y-100660580D02*
X178019523Y-100565342D01*
X178019523Y-100565342D02*
X178019523Y-99755819D01*
X178971904Y-99755819D02*
X178495714Y-99755819D01*
X178495714Y-99755819D02*
X178448095Y-100232009D01*
X178448095Y-100232009D02*
X178495714Y-100184390D01*
X178495714Y-100184390D02*
X178590952Y-100136771D01*
X178590952Y-100136771D02*
X178829047Y-100136771D01*
X178829047Y-100136771D02*
X178924285Y-100184390D01*
X178924285Y-100184390D02*
X178971904Y-100232009D01*
X178971904Y-100232009D02*
X179019523Y-100327247D01*
X179019523Y-100327247D02*
X179019523Y-100565342D01*
X179019523Y-100565342D02*
X178971904Y-100660580D01*
X178971904Y-100660580D02*
X178924285Y-100708200D01*
X178924285Y-100708200D02*
X178829047Y-100755819D01*
X178829047Y-100755819D02*
X178590952Y-100755819D01*
X178590952Y-100755819D02*
X178495714Y-100708200D01*
X178495714Y-100708200D02*
X178448095Y-100660580D01*
X166357142Y-123624819D02*
X166023809Y-123148628D01*
X165785714Y-123624819D02*
X165785714Y-122624819D01*
X165785714Y-122624819D02*
X166166666Y-122624819D01*
X166166666Y-122624819D02*
X166261904Y-122672438D01*
X166261904Y-122672438D02*
X166309523Y-122720057D01*
X166309523Y-122720057D02*
X166357142Y-122815295D01*
X166357142Y-122815295D02*
X166357142Y-122958152D01*
X166357142Y-122958152D02*
X166309523Y-123053390D01*
X166309523Y-123053390D02*
X166261904Y-123101009D01*
X166261904Y-123101009D02*
X166166666Y-123148628D01*
X166166666Y-123148628D02*
X165785714Y-123148628D01*
X167309523Y-123624819D02*
X166738095Y-123624819D01*
X167023809Y-123624819D02*
X167023809Y-122624819D01*
X167023809Y-122624819D02*
X166928571Y-122767676D01*
X166928571Y-122767676D02*
X166833333Y-122862914D01*
X166833333Y-122862914D02*
X166738095Y-122910533D01*
X168166666Y-122958152D02*
X168166666Y-123624819D01*
X167928571Y-122577200D02*
X167690476Y-123291485D01*
X167690476Y-123291485D02*
X168309523Y-123291485D01*
X197238095Y-62004819D02*
X197238095Y-61004819D01*
X197238095Y-61481009D02*
X197809523Y-61481009D01*
X197809523Y-62004819D02*
X197809523Y-61004819D01*
X198714285Y-61338152D02*
X198714285Y-62004819D01*
X198476190Y-60957200D02*
X198238095Y-61671485D01*
X198238095Y-61671485D02*
X198857142Y-61671485D01*
X113238095Y-62004819D02*
X113238095Y-61004819D01*
X113238095Y-61481009D02*
X113809523Y-61481009D01*
X113809523Y-62004819D02*
X113809523Y-61004819D01*
X114809523Y-62004819D02*
X114238095Y-62004819D01*
X114523809Y-62004819D02*
X114523809Y-61004819D01*
X114523809Y-61004819D02*
X114428571Y-61147676D01*
X114428571Y-61147676D02*
X114333333Y-61242914D01*
X114333333Y-61242914D02*
X114238095Y-61290533D01*
X86857142Y-115624819D02*
X86523809Y-115148628D01*
X86285714Y-115624819D02*
X86285714Y-114624819D01*
X86285714Y-114624819D02*
X86666666Y-114624819D01*
X86666666Y-114624819D02*
X86761904Y-114672438D01*
X86761904Y-114672438D02*
X86809523Y-114720057D01*
X86809523Y-114720057D02*
X86857142Y-114815295D01*
X86857142Y-114815295D02*
X86857142Y-114958152D01*
X86857142Y-114958152D02*
X86809523Y-115053390D01*
X86809523Y-115053390D02*
X86761904Y-115101009D01*
X86761904Y-115101009D02*
X86666666Y-115148628D01*
X86666666Y-115148628D02*
X86285714Y-115148628D01*
X87238095Y-114720057D02*
X87285714Y-114672438D01*
X87285714Y-114672438D02*
X87380952Y-114624819D01*
X87380952Y-114624819D02*
X87619047Y-114624819D01*
X87619047Y-114624819D02*
X87714285Y-114672438D01*
X87714285Y-114672438D02*
X87761904Y-114720057D01*
X87761904Y-114720057D02*
X87809523Y-114815295D01*
X87809523Y-114815295D02*
X87809523Y-114910533D01*
X87809523Y-114910533D02*
X87761904Y-115053390D01*
X87761904Y-115053390D02*
X87190476Y-115624819D01*
X87190476Y-115624819D02*
X87809523Y-115624819D01*
X88428571Y-114624819D02*
X88523809Y-114624819D01*
X88523809Y-114624819D02*
X88619047Y-114672438D01*
X88619047Y-114672438D02*
X88666666Y-114720057D01*
X88666666Y-114720057D02*
X88714285Y-114815295D01*
X88714285Y-114815295D02*
X88761904Y-115005771D01*
X88761904Y-115005771D02*
X88761904Y-115243866D01*
X88761904Y-115243866D02*
X88714285Y-115434342D01*
X88714285Y-115434342D02*
X88666666Y-115529580D01*
X88666666Y-115529580D02*
X88619047Y-115577200D01*
X88619047Y-115577200D02*
X88523809Y-115624819D01*
X88523809Y-115624819D02*
X88428571Y-115624819D01*
X88428571Y-115624819D02*
X88333333Y-115577200D01*
X88333333Y-115577200D02*
X88285714Y-115529580D01*
X88285714Y-115529580D02*
X88238095Y-115434342D01*
X88238095Y-115434342D02*
X88190476Y-115243866D01*
X88190476Y-115243866D02*
X88190476Y-115005771D01*
X88190476Y-115005771D02*
X88238095Y-114815295D01*
X88238095Y-114815295D02*
X88285714Y-114720057D01*
X88285714Y-114720057D02*
X88333333Y-114672438D01*
X88333333Y-114672438D02*
X88428571Y-114624819D01*
X119494819Y-78008094D02*
X118494819Y-78008094D01*
X118494819Y-78008094D02*
X118494819Y-77769999D01*
X118494819Y-77769999D02*
X118542438Y-77627142D01*
X118542438Y-77627142D02*
X118637676Y-77531904D01*
X118637676Y-77531904D02*
X118732914Y-77484285D01*
X118732914Y-77484285D02*
X118923390Y-77436666D01*
X118923390Y-77436666D02*
X119066247Y-77436666D01*
X119066247Y-77436666D02*
X119256723Y-77484285D01*
X119256723Y-77484285D02*
X119351961Y-77531904D01*
X119351961Y-77531904D02*
X119447200Y-77627142D01*
X119447200Y-77627142D02*
X119494819Y-77769999D01*
X119494819Y-77769999D02*
X119494819Y-78008094D01*
X119494819Y-76484285D02*
X119494819Y-77055713D01*
X119494819Y-76769999D02*
X118494819Y-76769999D01*
X118494819Y-76769999D02*
X118637676Y-76865237D01*
X118637676Y-76865237D02*
X118732914Y-76960475D01*
X118732914Y-76960475D02*
X118780533Y-77055713D01*
X166357142Y-96124819D02*
X166023809Y-95648628D01*
X165785714Y-96124819D02*
X165785714Y-95124819D01*
X165785714Y-95124819D02*
X166166666Y-95124819D01*
X166166666Y-95124819D02*
X166261904Y-95172438D01*
X166261904Y-95172438D02*
X166309523Y-95220057D01*
X166309523Y-95220057D02*
X166357142Y-95315295D01*
X166357142Y-95315295D02*
X166357142Y-95458152D01*
X166357142Y-95458152D02*
X166309523Y-95553390D01*
X166309523Y-95553390D02*
X166261904Y-95601009D01*
X166261904Y-95601009D02*
X166166666Y-95648628D01*
X166166666Y-95648628D02*
X165785714Y-95648628D01*
X167309523Y-96124819D02*
X166738095Y-96124819D01*
X167023809Y-96124819D02*
X167023809Y-95124819D01*
X167023809Y-95124819D02*
X166928571Y-95267676D01*
X166928571Y-95267676D02*
X166833333Y-95362914D01*
X166833333Y-95362914D02*
X166738095Y-95410533D01*
X167642857Y-95124819D02*
X168309523Y-95124819D01*
X168309523Y-95124819D02*
X167880952Y-96124819D01*
X98233095Y-104324819D02*
X98233095Y-105134342D01*
X98233095Y-105134342D02*
X98280714Y-105229580D01*
X98280714Y-105229580D02*
X98328333Y-105277200D01*
X98328333Y-105277200D02*
X98423571Y-105324819D01*
X98423571Y-105324819D02*
X98614047Y-105324819D01*
X98614047Y-105324819D02*
X98709285Y-105277200D01*
X98709285Y-105277200D02*
X98756904Y-105229580D01*
X98756904Y-105229580D02*
X98804523Y-105134342D01*
X98804523Y-105134342D02*
X98804523Y-104324819D01*
X99471190Y-104324819D02*
X99566428Y-104324819D01*
X99566428Y-104324819D02*
X99661666Y-104372438D01*
X99661666Y-104372438D02*
X99709285Y-104420057D01*
X99709285Y-104420057D02*
X99756904Y-104515295D01*
X99756904Y-104515295D02*
X99804523Y-104705771D01*
X99804523Y-104705771D02*
X99804523Y-104943866D01*
X99804523Y-104943866D02*
X99756904Y-105134342D01*
X99756904Y-105134342D02*
X99709285Y-105229580D01*
X99709285Y-105229580D02*
X99661666Y-105277200D01*
X99661666Y-105277200D02*
X99566428Y-105324819D01*
X99566428Y-105324819D02*
X99471190Y-105324819D01*
X99471190Y-105324819D02*
X99375952Y-105277200D01*
X99375952Y-105277200D02*
X99328333Y-105229580D01*
X99328333Y-105229580D02*
X99280714Y-105134342D01*
X99280714Y-105134342D02*
X99233095Y-104943866D01*
X99233095Y-104943866D02*
X99233095Y-104705771D01*
X99233095Y-104705771D02*
X99280714Y-104515295D01*
X99280714Y-104515295D02*
X99328333Y-104420057D01*
X99328333Y-104420057D02*
X99375952Y-104372438D01*
X99375952Y-104372438D02*
X99471190Y-104324819D01*
X132666667Y-126907200D02*
X132809524Y-126954819D01*
X132809524Y-126954819D02*
X133047619Y-126954819D01*
X133047619Y-126954819D02*
X133142857Y-126907200D01*
X133142857Y-126907200D02*
X133190476Y-126859580D01*
X133190476Y-126859580D02*
X133238095Y-126764342D01*
X133238095Y-126764342D02*
X133238095Y-126669104D01*
X133238095Y-126669104D02*
X133190476Y-126573866D01*
X133190476Y-126573866D02*
X133142857Y-126526247D01*
X133142857Y-126526247D02*
X133047619Y-126478628D01*
X133047619Y-126478628D02*
X132857143Y-126431009D01*
X132857143Y-126431009D02*
X132761905Y-126383390D01*
X132761905Y-126383390D02*
X132714286Y-126335771D01*
X132714286Y-126335771D02*
X132666667Y-126240533D01*
X132666667Y-126240533D02*
X132666667Y-126145295D01*
X132666667Y-126145295D02*
X132714286Y-126050057D01*
X132714286Y-126050057D02*
X132761905Y-126002438D01*
X132761905Y-126002438D02*
X132857143Y-125954819D01*
X132857143Y-125954819D02*
X133095238Y-125954819D01*
X133095238Y-125954819D02*
X133238095Y-126002438D01*
X133571429Y-125954819D02*
X133809524Y-126954819D01*
X133809524Y-126954819D02*
X134000000Y-126240533D01*
X134000000Y-126240533D02*
X134190476Y-126954819D01*
X134190476Y-126954819D02*
X134428572Y-125954819D01*
X135333333Y-126954819D02*
X134761905Y-126954819D01*
X135047619Y-126954819D02*
X135047619Y-125954819D01*
X135047619Y-125954819D02*
X134952381Y-126097676D01*
X134952381Y-126097676D02*
X134857143Y-126192914D01*
X134857143Y-126192914D02*
X134761905Y-126240533D01*
X166357142Y-107204819D02*
X166023809Y-106728628D01*
X165785714Y-107204819D02*
X165785714Y-106204819D01*
X165785714Y-106204819D02*
X166166666Y-106204819D01*
X166166666Y-106204819D02*
X166261904Y-106252438D01*
X166261904Y-106252438D02*
X166309523Y-106300057D01*
X166309523Y-106300057D02*
X166357142Y-106395295D01*
X166357142Y-106395295D02*
X166357142Y-106538152D01*
X166357142Y-106538152D02*
X166309523Y-106633390D01*
X166309523Y-106633390D02*
X166261904Y-106681009D01*
X166261904Y-106681009D02*
X166166666Y-106728628D01*
X166166666Y-106728628D02*
X165785714Y-106728628D01*
X167309523Y-107204819D02*
X166738095Y-107204819D01*
X167023809Y-107204819D02*
X167023809Y-106204819D01*
X167023809Y-106204819D02*
X166928571Y-106347676D01*
X166928571Y-106347676D02*
X166833333Y-106442914D01*
X166833333Y-106442914D02*
X166738095Y-106490533D01*
X168166666Y-106204819D02*
X167976190Y-106204819D01*
X167976190Y-106204819D02*
X167880952Y-106252438D01*
X167880952Y-106252438D02*
X167833333Y-106300057D01*
X167833333Y-106300057D02*
X167738095Y-106442914D01*
X167738095Y-106442914D02*
X167690476Y-106633390D01*
X167690476Y-106633390D02*
X167690476Y-107014342D01*
X167690476Y-107014342D02*
X167738095Y-107109580D01*
X167738095Y-107109580D02*
X167785714Y-107157200D01*
X167785714Y-107157200D02*
X167880952Y-107204819D01*
X167880952Y-107204819D02*
X168071428Y-107204819D01*
X168071428Y-107204819D02*
X168166666Y-107157200D01*
X168166666Y-107157200D02*
X168214285Y-107109580D01*
X168214285Y-107109580D02*
X168261904Y-107014342D01*
X168261904Y-107014342D02*
X168261904Y-106776247D01*
X168261904Y-106776247D02*
X168214285Y-106681009D01*
X168214285Y-106681009D02*
X168166666Y-106633390D01*
X168166666Y-106633390D02*
X168071428Y-106585771D01*
X168071428Y-106585771D02*
X167880952Y-106585771D01*
X167880952Y-106585771D02*
X167785714Y-106633390D01*
X167785714Y-106633390D02*
X167738095Y-106681009D01*
X167738095Y-106681009D02*
X167690476Y-106776247D01*
X139788095Y-115454819D02*
X139788095Y-116264342D01*
X139788095Y-116264342D02*
X139835714Y-116359580D01*
X139835714Y-116359580D02*
X139883333Y-116407200D01*
X139883333Y-116407200D02*
X139978571Y-116454819D01*
X139978571Y-116454819D02*
X140169047Y-116454819D01*
X140169047Y-116454819D02*
X140264285Y-116407200D01*
X140264285Y-116407200D02*
X140311904Y-116359580D01*
X140311904Y-116359580D02*
X140359523Y-116264342D01*
X140359523Y-116264342D02*
X140359523Y-115454819D01*
X140740476Y-115454819D02*
X141359523Y-115454819D01*
X141359523Y-115454819D02*
X141026190Y-115835771D01*
X141026190Y-115835771D02*
X141169047Y-115835771D01*
X141169047Y-115835771D02*
X141264285Y-115883390D01*
X141264285Y-115883390D02*
X141311904Y-115931009D01*
X141311904Y-115931009D02*
X141359523Y-116026247D01*
X141359523Y-116026247D02*
X141359523Y-116264342D01*
X141359523Y-116264342D02*
X141311904Y-116359580D01*
X141311904Y-116359580D02*
X141264285Y-116407200D01*
X141264285Y-116407200D02*
X141169047Y-116454819D01*
X141169047Y-116454819D02*
X140883333Y-116454819D01*
X140883333Y-116454819D02*
X140788095Y-116407200D01*
X140788095Y-116407200D02*
X140740476Y-116359580D01*
X200083333Y-110009580D02*
X200035714Y-110057200D01*
X200035714Y-110057200D02*
X199892857Y-110104819D01*
X199892857Y-110104819D02*
X199797619Y-110104819D01*
X199797619Y-110104819D02*
X199654762Y-110057200D01*
X199654762Y-110057200D02*
X199559524Y-109961961D01*
X199559524Y-109961961D02*
X199511905Y-109866723D01*
X199511905Y-109866723D02*
X199464286Y-109676247D01*
X199464286Y-109676247D02*
X199464286Y-109533390D01*
X199464286Y-109533390D02*
X199511905Y-109342914D01*
X199511905Y-109342914D02*
X199559524Y-109247676D01*
X199559524Y-109247676D02*
X199654762Y-109152438D01*
X199654762Y-109152438D02*
X199797619Y-109104819D01*
X199797619Y-109104819D02*
X199892857Y-109104819D01*
X199892857Y-109104819D02*
X200035714Y-109152438D01*
X200035714Y-109152438D02*
X200083333Y-109200057D01*
X200940476Y-109438152D02*
X200940476Y-110104819D01*
X200702381Y-109057200D02*
X200464286Y-109771485D01*
X200464286Y-109771485D02*
X201083333Y-109771485D01*
X140607142Y-89874819D02*
X140273809Y-89398628D01*
X140035714Y-89874819D02*
X140035714Y-88874819D01*
X140035714Y-88874819D02*
X140416666Y-88874819D01*
X140416666Y-88874819D02*
X140511904Y-88922438D01*
X140511904Y-88922438D02*
X140559523Y-88970057D01*
X140559523Y-88970057D02*
X140607142Y-89065295D01*
X140607142Y-89065295D02*
X140607142Y-89208152D01*
X140607142Y-89208152D02*
X140559523Y-89303390D01*
X140559523Y-89303390D02*
X140511904Y-89351009D01*
X140511904Y-89351009D02*
X140416666Y-89398628D01*
X140416666Y-89398628D02*
X140035714Y-89398628D01*
X141559523Y-89874819D02*
X140988095Y-89874819D01*
X141273809Y-89874819D02*
X141273809Y-88874819D01*
X141273809Y-88874819D02*
X141178571Y-89017676D01*
X141178571Y-89017676D02*
X141083333Y-89112914D01*
X141083333Y-89112914D02*
X140988095Y-89160533D01*
X142511904Y-89874819D02*
X141940476Y-89874819D01*
X142226190Y-89874819D02*
X142226190Y-88874819D01*
X142226190Y-88874819D02*
X142130952Y-89017676D01*
X142130952Y-89017676D02*
X142035714Y-89112914D01*
X142035714Y-89112914D02*
X141940476Y-89160533D01*
X139083333Y-76584819D02*
X138750000Y-76108628D01*
X138511905Y-76584819D02*
X138511905Y-75584819D01*
X138511905Y-75584819D02*
X138892857Y-75584819D01*
X138892857Y-75584819D02*
X138988095Y-75632438D01*
X138988095Y-75632438D02*
X139035714Y-75680057D01*
X139035714Y-75680057D02*
X139083333Y-75775295D01*
X139083333Y-75775295D02*
X139083333Y-75918152D01*
X139083333Y-75918152D02*
X139035714Y-76013390D01*
X139035714Y-76013390D02*
X138988095Y-76061009D01*
X138988095Y-76061009D02*
X138892857Y-76108628D01*
X138892857Y-76108628D02*
X138511905Y-76108628D01*
X140035714Y-76584819D02*
X139464286Y-76584819D01*
X139750000Y-76584819D02*
X139750000Y-75584819D01*
X139750000Y-75584819D02*
X139654762Y-75727676D01*
X139654762Y-75727676D02*
X139559524Y-75822914D01*
X139559524Y-75822914D02*
X139464286Y-75870533D01*
X166833333Y-109874819D02*
X166500000Y-109398628D01*
X166261905Y-109874819D02*
X166261905Y-108874819D01*
X166261905Y-108874819D02*
X166642857Y-108874819D01*
X166642857Y-108874819D02*
X166738095Y-108922438D01*
X166738095Y-108922438D02*
X166785714Y-108970057D01*
X166785714Y-108970057D02*
X166833333Y-109065295D01*
X166833333Y-109065295D02*
X166833333Y-109208152D01*
X166833333Y-109208152D02*
X166785714Y-109303390D01*
X166785714Y-109303390D02*
X166738095Y-109351009D01*
X166738095Y-109351009D02*
X166642857Y-109398628D01*
X166642857Y-109398628D02*
X166261905Y-109398628D01*
X167738095Y-108874819D02*
X167261905Y-108874819D01*
X167261905Y-108874819D02*
X167214286Y-109351009D01*
X167214286Y-109351009D02*
X167261905Y-109303390D01*
X167261905Y-109303390D02*
X167357143Y-109255771D01*
X167357143Y-109255771D02*
X167595238Y-109255771D01*
X167595238Y-109255771D02*
X167690476Y-109303390D01*
X167690476Y-109303390D02*
X167738095Y-109351009D01*
X167738095Y-109351009D02*
X167785714Y-109446247D01*
X167785714Y-109446247D02*
X167785714Y-109684342D01*
X167785714Y-109684342D02*
X167738095Y-109779580D01*
X167738095Y-109779580D02*
X167690476Y-109827200D01*
X167690476Y-109827200D02*
X167595238Y-109874819D01*
X167595238Y-109874819D02*
X167357143Y-109874819D01*
X167357143Y-109874819D02*
X167261905Y-109827200D01*
X167261905Y-109827200D02*
X167214286Y-109779580D01*
X188833333Y-87359580D02*
X188785714Y-87407200D01*
X188785714Y-87407200D02*
X188642857Y-87454819D01*
X188642857Y-87454819D02*
X188547619Y-87454819D01*
X188547619Y-87454819D02*
X188404762Y-87407200D01*
X188404762Y-87407200D02*
X188309524Y-87311961D01*
X188309524Y-87311961D02*
X188261905Y-87216723D01*
X188261905Y-87216723D02*
X188214286Y-87026247D01*
X188214286Y-87026247D02*
X188214286Y-86883390D01*
X188214286Y-86883390D02*
X188261905Y-86692914D01*
X188261905Y-86692914D02*
X188309524Y-86597676D01*
X188309524Y-86597676D02*
X188404762Y-86502438D01*
X188404762Y-86502438D02*
X188547619Y-86454819D01*
X188547619Y-86454819D02*
X188642857Y-86454819D01*
X188642857Y-86454819D02*
X188785714Y-86502438D01*
X188785714Y-86502438D02*
X188833333Y-86550057D01*
X189785714Y-87454819D02*
X189214286Y-87454819D01*
X189500000Y-87454819D02*
X189500000Y-86454819D01*
X189500000Y-86454819D02*
X189404762Y-86597676D01*
X189404762Y-86597676D02*
X189309524Y-86692914D01*
X189309524Y-86692914D02*
X189214286Y-86740533D01*
X166357142Y-101124819D02*
X166023809Y-100648628D01*
X165785714Y-101124819D02*
X165785714Y-100124819D01*
X165785714Y-100124819D02*
X166166666Y-100124819D01*
X166166666Y-100124819D02*
X166261904Y-100172438D01*
X166261904Y-100172438D02*
X166309523Y-100220057D01*
X166309523Y-100220057D02*
X166357142Y-100315295D01*
X166357142Y-100315295D02*
X166357142Y-100458152D01*
X166357142Y-100458152D02*
X166309523Y-100553390D01*
X166309523Y-100553390D02*
X166261904Y-100601009D01*
X166261904Y-100601009D02*
X166166666Y-100648628D01*
X166166666Y-100648628D02*
X165785714Y-100648628D01*
X167309523Y-101124819D02*
X166738095Y-101124819D01*
X167023809Y-101124819D02*
X167023809Y-100124819D01*
X167023809Y-100124819D02*
X166928571Y-100267676D01*
X166928571Y-100267676D02*
X166833333Y-100362914D01*
X166833333Y-100362914D02*
X166738095Y-100410533D01*
X167880952Y-100553390D02*
X167785714Y-100505771D01*
X167785714Y-100505771D02*
X167738095Y-100458152D01*
X167738095Y-100458152D02*
X167690476Y-100362914D01*
X167690476Y-100362914D02*
X167690476Y-100315295D01*
X167690476Y-100315295D02*
X167738095Y-100220057D01*
X167738095Y-100220057D02*
X167785714Y-100172438D01*
X167785714Y-100172438D02*
X167880952Y-100124819D01*
X167880952Y-100124819D02*
X168071428Y-100124819D01*
X168071428Y-100124819D02*
X168166666Y-100172438D01*
X168166666Y-100172438D02*
X168214285Y-100220057D01*
X168214285Y-100220057D02*
X168261904Y-100315295D01*
X168261904Y-100315295D02*
X168261904Y-100362914D01*
X168261904Y-100362914D02*
X168214285Y-100458152D01*
X168214285Y-100458152D02*
X168166666Y-100505771D01*
X168166666Y-100505771D02*
X168071428Y-100553390D01*
X168071428Y-100553390D02*
X167880952Y-100553390D01*
X167880952Y-100553390D02*
X167785714Y-100601009D01*
X167785714Y-100601009D02*
X167738095Y-100648628D01*
X167738095Y-100648628D02*
X167690476Y-100743866D01*
X167690476Y-100743866D02*
X167690476Y-100934342D01*
X167690476Y-100934342D02*
X167738095Y-101029580D01*
X167738095Y-101029580D02*
X167785714Y-101077200D01*
X167785714Y-101077200D02*
X167880952Y-101124819D01*
X167880952Y-101124819D02*
X168071428Y-101124819D01*
X168071428Y-101124819D02*
X168166666Y-101077200D01*
X168166666Y-101077200D02*
X168214285Y-101029580D01*
X168214285Y-101029580D02*
X168261904Y-100934342D01*
X168261904Y-100934342D02*
X168261904Y-100743866D01*
X168261904Y-100743866D02*
X168214285Y-100648628D01*
X168214285Y-100648628D02*
X168166666Y-100601009D01*
X168166666Y-100601009D02*
X168071428Y-100553390D01*
X166833333Y-114124819D02*
X166500000Y-113648628D01*
X166261905Y-114124819D02*
X166261905Y-113124819D01*
X166261905Y-113124819D02*
X166642857Y-113124819D01*
X166642857Y-113124819D02*
X166738095Y-113172438D01*
X166738095Y-113172438D02*
X166785714Y-113220057D01*
X166785714Y-113220057D02*
X166833333Y-113315295D01*
X166833333Y-113315295D02*
X166833333Y-113458152D01*
X166833333Y-113458152D02*
X166785714Y-113553390D01*
X166785714Y-113553390D02*
X166738095Y-113601009D01*
X166738095Y-113601009D02*
X166642857Y-113648628D01*
X166642857Y-113648628D02*
X166261905Y-113648628D01*
X167690476Y-113124819D02*
X167500000Y-113124819D01*
X167500000Y-113124819D02*
X167404762Y-113172438D01*
X167404762Y-113172438D02*
X167357143Y-113220057D01*
X167357143Y-113220057D02*
X167261905Y-113362914D01*
X167261905Y-113362914D02*
X167214286Y-113553390D01*
X167214286Y-113553390D02*
X167214286Y-113934342D01*
X167214286Y-113934342D02*
X167261905Y-114029580D01*
X167261905Y-114029580D02*
X167309524Y-114077200D01*
X167309524Y-114077200D02*
X167404762Y-114124819D01*
X167404762Y-114124819D02*
X167595238Y-114124819D01*
X167595238Y-114124819D02*
X167690476Y-114077200D01*
X167690476Y-114077200D02*
X167738095Y-114029580D01*
X167738095Y-114029580D02*
X167785714Y-113934342D01*
X167785714Y-113934342D02*
X167785714Y-113696247D01*
X167785714Y-113696247D02*
X167738095Y-113601009D01*
X167738095Y-113601009D02*
X167690476Y-113553390D01*
X167690476Y-113553390D02*
X167595238Y-113505771D01*
X167595238Y-113505771D02*
X167404762Y-113505771D01*
X167404762Y-113505771D02*
X167309524Y-113553390D01*
X167309524Y-113553390D02*
X167261905Y-113601009D01*
X167261905Y-113601009D02*
X167214286Y-113696247D01*
X113917200Y-99843332D02*
X113964819Y-99700475D01*
X113964819Y-99700475D02*
X113964819Y-99462380D01*
X113964819Y-99462380D02*
X113917200Y-99367142D01*
X113917200Y-99367142D02*
X113869580Y-99319523D01*
X113869580Y-99319523D02*
X113774342Y-99271904D01*
X113774342Y-99271904D02*
X113679104Y-99271904D01*
X113679104Y-99271904D02*
X113583866Y-99319523D01*
X113583866Y-99319523D02*
X113536247Y-99367142D01*
X113536247Y-99367142D02*
X113488628Y-99462380D01*
X113488628Y-99462380D02*
X113441009Y-99652856D01*
X113441009Y-99652856D02*
X113393390Y-99748094D01*
X113393390Y-99748094D02*
X113345771Y-99795713D01*
X113345771Y-99795713D02*
X113250533Y-99843332D01*
X113250533Y-99843332D02*
X113155295Y-99843332D01*
X113155295Y-99843332D02*
X113060057Y-99795713D01*
X113060057Y-99795713D02*
X113012438Y-99748094D01*
X113012438Y-99748094D02*
X112964819Y-99652856D01*
X112964819Y-99652856D02*
X112964819Y-99414761D01*
X112964819Y-99414761D02*
X113012438Y-99271904D01*
X112964819Y-98938570D02*
X113964819Y-98700475D01*
X113964819Y-98700475D02*
X113250533Y-98509999D01*
X113250533Y-98509999D02*
X113964819Y-98319523D01*
X113964819Y-98319523D02*
X112964819Y-98081428D01*
X113060057Y-97748094D02*
X113012438Y-97700475D01*
X113012438Y-97700475D02*
X112964819Y-97605237D01*
X112964819Y-97605237D02*
X112964819Y-97367142D01*
X112964819Y-97367142D02*
X113012438Y-97271904D01*
X113012438Y-97271904D02*
X113060057Y-97224285D01*
X113060057Y-97224285D02*
X113155295Y-97176666D01*
X113155295Y-97176666D02*
X113250533Y-97176666D01*
X113250533Y-97176666D02*
X113393390Y-97224285D01*
X113393390Y-97224285D02*
X113964819Y-97795713D01*
X113964819Y-97795713D02*
X113964819Y-97176666D01*
X143083333Y-85544819D02*
X142750000Y-85068628D01*
X142511905Y-85544819D02*
X142511905Y-84544819D01*
X142511905Y-84544819D02*
X142892857Y-84544819D01*
X142892857Y-84544819D02*
X142988095Y-84592438D01*
X142988095Y-84592438D02*
X143035714Y-84640057D01*
X143035714Y-84640057D02*
X143083333Y-84735295D01*
X143083333Y-84735295D02*
X143083333Y-84878152D01*
X143083333Y-84878152D02*
X143035714Y-84973390D01*
X143035714Y-84973390D02*
X142988095Y-85021009D01*
X142988095Y-85021009D02*
X142892857Y-85068628D01*
X142892857Y-85068628D02*
X142511905Y-85068628D01*
X143464286Y-84640057D02*
X143511905Y-84592438D01*
X143511905Y-84592438D02*
X143607143Y-84544819D01*
X143607143Y-84544819D02*
X143845238Y-84544819D01*
X143845238Y-84544819D02*
X143940476Y-84592438D01*
X143940476Y-84592438D02*
X143988095Y-84640057D01*
X143988095Y-84640057D02*
X144035714Y-84735295D01*
X144035714Y-84735295D02*
X144035714Y-84830533D01*
X144035714Y-84830533D02*
X143988095Y-84973390D01*
X143988095Y-84973390D02*
X143416667Y-85544819D01*
X143416667Y-85544819D02*
X144035714Y-85544819D01*
X126488095Y-96454819D02*
X126488095Y-97264342D01*
X126488095Y-97264342D02*
X126535714Y-97359580D01*
X126535714Y-97359580D02*
X126583333Y-97407200D01*
X126583333Y-97407200D02*
X126678571Y-97454819D01*
X126678571Y-97454819D02*
X126869047Y-97454819D01*
X126869047Y-97454819D02*
X126964285Y-97407200D01*
X126964285Y-97407200D02*
X127011904Y-97359580D01*
X127011904Y-97359580D02*
X127059523Y-97264342D01*
X127059523Y-97264342D02*
X127059523Y-96454819D01*
X127488095Y-96550057D02*
X127535714Y-96502438D01*
X127535714Y-96502438D02*
X127630952Y-96454819D01*
X127630952Y-96454819D02*
X127869047Y-96454819D01*
X127869047Y-96454819D02*
X127964285Y-96502438D01*
X127964285Y-96502438D02*
X128011904Y-96550057D01*
X128011904Y-96550057D02*
X128059523Y-96645295D01*
X128059523Y-96645295D02*
X128059523Y-96740533D01*
X128059523Y-96740533D02*
X128011904Y-96883390D01*
X128011904Y-96883390D02*
X127440476Y-97454819D01*
X127440476Y-97454819D02*
X128059523Y-97454819D01*
X123494819Y-86968094D02*
X122494819Y-86968094D01*
X122494819Y-86968094D02*
X122494819Y-86729999D01*
X122494819Y-86729999D02*
X122542438Y-86587142D01*
X122542438Y-86587142D02*
X122637676Y-86491904D01*
X122637676Y-86491904D02*
X122732914Y-86444285D01*
X122732914Y-86444285D02*
X122923390Y-86396666D01*
X122923390Y-86396666D02*
X123066247Y-86396666D01*
X123066247Y-86396666D02*
X123256723Y-86444285D01*
X123256723Y-86444285D02*
X123351961Y-86491904D01*
X123351961Y-86491904D02*
X123447200Y-86587142D01*
X123447200Y-86587142D02*
X123494819Y-86729999D01*
X123494819Y-86729999D02*
X123494819Y-86968094D01*
X122590057Y-86015713D02*
X122542438Y-85968094D01*
X122542438Y-85968094D02*
X122494819Y-85872856D01*
X122494819Y-85872856D02*
X122494819Y-85634761D01*
X122494819Y-85634761D02*
X122542438Y-85539523D01*
X122542438Y-85539523D02*
X122590057Y-85491904D01*
X122590057Y-85491904D02*
X122685295Y-85444285D01*
X122685295Y-85444285D02*
X122780533Y-85444285D01*
X122780533Y-85444285D02*
X122923390Y-85491904D01*
X122923390Y-85491904D02*
X123494819Y-86063332D01*
X123494819Y-86063332D02*
X123494819Y-85444285D01*
X178416666Y-82452319D02*
X178416666Y-83166604D01*
X178416666Y-83166604D02*
X178369047Y-83309461D01*
X178369047Y-83309461D02*
X178273809Y-83404700D01*
X178273809Y-83404700D02*
X178130952Y-83452319D01*
X178130952Y-83452319D02*
X178035714Y-83452319D01*
X179416666Y-83452319D02*
X178845238Y-83452319D01*
X179130952Y-83452319D02*
X179130952Y-82452319D01*
X179130952Y-82452319D02*
X179035714Y-82595176D01*
X179035714Y-82595176D02*
X178940476Y-82690414D01*
X178940476Y-82690414D02*
X178845238Y-82738033D01*
X95624819Y-112416666D02*
X95148628Y-112749999D01*
X95624819Y-112988094D02*
X94624819Y-112988094D01*
X94624819Y-112988094D02*
X94624819Y-112607142D01*
X94624819Y-112607142D02*
X94672438Y-112511904D01*
X94672438Y-112511904D02*
X94720057Y-112464285D01*
X94720057Y-112464285D02*
X94815295Y-112416666D01*
X94815295Y-112416666D02*
X94958152Y-112416666D01*
X94958152Y-112416666D02*
X95053390Y-112464285D01*
X95053390Y-112464285D02*
X95101009Y-112511904D01*
X95101009Y-112511904D02*
X95148628Y-112607142D01*
X95148628Y-112607142D02*
X95148628Y-112988094D01*
X95624819Y-111940475D02*
X95624819Y-111749999D01*
X95624819Y-111749999D02*
X95577200Y-111654761D01*
X95577200Y-111654761D02*
X95529580Y-111607142D01*
X95529580Y-111607142D02*
X95386723Y-111511904D01*
X95386723Y-111511904D02*
X95196247Y-111464285D01*
X95196247Y-111464285D02*
X94815295Y-111464285D01*
X94815295Y-111464285D02*
X94720057Y-111511904D01*
X94720057Y-111511904D02*
X94672438Y-111559523D01*
X94672438Y-111559523D02*
X94624819Y-111654761D01*
X94624819Y-111654761D02*
X94624819Y-111845237D01*
X94624819Y-111845237D02*
X94672438Y-111940475D01*
X94672438Y-111940475D02*
X94720057Y-111988094D01*
X94720057Y-111988094D02*
X94815295Y-112035713D01*
X94815295Y-112035713D02*
X95053390Y-112035713D01*
X95053390Y-112035713D02*
X95148628Y-111988094D01*
X95148628Y-111988094D02*
X95196247Y-111940475D01*
X95196247Y-111940475D02*
X95243866Y-111845237D01*
X95243866Y-111845237D02*
X95243866Y-111654761D01*
X95243866Y-111654761D02*
X95196247Y-111559523D01*
X95196247Y-111559523D02*
X95148628Y-111511904D01*
X95148628Y-111511904D02*
X95053390Y-111464285D01*
X113238095Y-126004819D02*
X113238095Y-125004819D01*
X113238095Y-125481009D02*
X113809523Y-125481009D01*
X113809523Y-126004819D02*
X113809523Y-125004819D01*
X114238095Y-125100057D02*
X114285714Y-125052438D01*
X114285714Y-125052438D02*
X114380952Y-125004819D01*
X114380952Y-125004819D02*
X114619047Y-125004819D01*
X114619047Y-125004819D02*
X114714285Y-125052438D01*
X114714285Y-125052438D02*
X114761904Y-125100057D01*
X114761904Y-125100057D02*
X114809523Y-125195295D01*
X114809523Y-125195295D02*
X114809523Y-125290533D01*
X114809523Y-125290533D02*
X114761904Y-125433390D01*
X114761904Y-125433390D02*
X114190476Y-126004819D01*
X114190476Y-126004819D02*
X114809523Y-126004819D01*
X166833333Y-119124819D02*
X166500000Y-118648628D01*
X166261905Y-119124819D02*
X166261905Y-118124819D01*
X166261905Y-118124819D02*
X166642857Y-118124819D01*
X166642857Y-118124819D02*
X166738095Y-118172438D01*
X166738095Y-118172438D02*
X166785714Y-118220057D01*
X166785714Y-118220057D02*
X166833333Y-118315295D01*
X166833333Y-118315295D02*
X166833333Y-118458152D01*
X166833333Y-118458152D02*
X166785714Y-118553390D01*
X166785714Y-118553390D02*
X166738095Y-118601009D01*
X166738095Y-118601009D02*
X166642857Y-118648628D01*
X166642857Y-118648628D02*
X166261905Y-118648628D01*
X167404762Y-118553390D02*
X167309524Y-118505771D01*
X167309524Y-118505771D02*
X167261905Y-118458152D01*
X167261905Y-118458152D02*
X167214286Y-118362914D01*
X167214286Y-118362914D02*
X167214286Y-118315295D01*
X167214286Y-118315295D02*
X167261905Y-118220057D01*
X167261905Y-118220057D02*
X167309524Y-118172438D01*
X167309524Y-118172438D02*
X167404762Y-118124819D01*
X167404762Y-118124819D02*
X167595238Y-118124819D01*
X167595238Y-118124819D02*
X167690476Y-118172438D01*
X167690476Y-118172438D02*
X167738095Y-118220057D01*
X167738095Y-118220057D02*
X167785714Y-118315295D01*
X167785714Y-118315295D02*
X167785714Y-118362914D01*
X167785714Y-118362914D02*
X167738095Y-118458152D01*
X167738095Y-118458152D02*
X167690476Y-118505771D01*
X167690476Y-118505771D02*
X167595238Y-118553390D01*
X167595238Y-118553390D02*
X167404762Y-118553390D01*
X167404762Y-118553390D02*
X167309524Y-118601009D01*
X167309524Y-118601009D02*
X167261905Y-118648628D01*
X167261905Y-118648628D02*
X167214286Y-118743866D01*
X167214286Y-118743866D02*
X167214286Y-118934342D01*
X167214286Y-118934342D02*
X167261905Y-119029580D01*
X167261905Y-119029580D02*
X167309524Y-119077200D01*
X167309524Y-119077200D02*
X167404762Y-119124819D01*
X167404762Y-119124819D02*
X167595238Y-119124819D01*
X167595238Y-119124819D02*
X167690476Y-119077200D01*
X167690476Y-119077200D02*
X167738095Y-119029580D01*
X167738095Y-119029580D02*
X167785714Y-118934342D01*
X167785714Y-118934342D02*
X167785714Y-118743866D01*
X167785714Y-118743866D02*
X167738095Y-118648628D01*
X167738095Y-118648628D02*
X167690476Y-118601009D01*
X167690476Y-118601009D02*
X167595238Y-118553390D01*
X103333333Y-106009580D02*
X103285714Y-106057200D01*
X103285714Y-106057200D02*
X103142857Y-106104819D01*
X103142857Y-106104819D02*
X103047619Y-106104819D01*
X103047619Y-106104819D02*
X102904762Y-106057200D01*
X102904762Y-106057200D02*
X102809524Y-105961961D01*
X102809524Y-105961961D02*
X102761905Y-105866723D01*
X102761905Y-105866723D02*
X102714286Y-105676247D01*
X102714286Y-105676247D02*
X102714286Y-105533390D01*
X102714286Y-105533390D02*
X102761905Y-105342914D01*
X102761905Y-105342914D02*
X102809524Y-105247676D01*
X102809524Y-105247676D02*
X102904762Y-105152438D01*
X102904762Y-105152438D02*
X103047619Y-105104819D01*
X103047619Y-105104819D02*
X103142857Y-105104819D01*
X103142857Y-105104819D02*
X103285714Y-105152438D01*
X103285714Y-105152438D02*
X103333333Y-105200057D01*
X104238095Y-105104819D02*
X103761905Y-105104819D01*
X103761905Y-105104819D02*
X103714286Y-105581009D01*
X103714286Y-105581009D02*
X103761905Y-105533390D01*
X103761905Y-105533390D02*
X103857143Y-105485771D01*
X103857143Y-105485771D02*
X104095238Y-105485771D01*
X104095238Y-105485771D02*
X104190476Y-105533390D01*
X104190476Y-105533390D02*
X104238095Y-105581009D01*
X104238095Y-105581009D02*
X104285714Y-105676247D01*
X104285714Y-105676247D02*
X104285714Y-105914342D01*
X104285714Y-105914342D02*
X104238095Y-106009580D01*
X104238095Y-106009580D02*
X104190476Y-106057200D01*
X104190476Y-106057200D02*
X104095238Y-106104819D01*
X104095238Y-106104819D02*
X103857143Y-106104819D01*
X103857143Y-106104819D02*
X103761905Y-106057200D01*
X103761905Y-106057200D02*
X103714286Y-106009580D01*
X200038445Y-101859580D02*
X199990826Y-101907200D01*
X199990826Y-101907200D02*
X199847969Y-101954819D01*
X199847969Y-101954819D02*
X199752731Y-101954819D01*
X199752731Y-101954819D02*
X199609874Y-101907200D01*
X199609874Y-101907200D02*
X199514636Y-101811961D01*
X199514636Y-101811961D02*
X199467017Y-101716723D01*
X199467017Y-101716723D02*
X199419398Y-101526247D01*
X199419398Y-101526247D02*
X199419398Y-101383390D01*
X199419398Y-101383390D02*
X199467017Y-101192914D01*
X199467017Y-101192914D02*
X199514636Y-101097676D01*
X199514636Y-101097676D02*
X199609874Y-101002438D01*
X199609874Y-101002438D02*
X199752731Y-100954819D01*
X199752731Y-100954819D02*
X199847969Y-100954819D01*
X199847969Y-100954819D02*
X199990826Y-101002438D01*
X199990826Y-101002438D02*
X200038445Y-101050057D01*
X200419398Y-101050057D02*
X200467017Y-101002438D01*
X200467017Y-101002438D02*
X200562255Y-100954819D01*
X200562255Y-100954819D02*
X200800350Y-100954819D01*
X200800350Y-100954819D02*
X200895588Y-101002438D01*
X200895588Y-101002438D02*
X200943207Y-101050057D01*
X200943207Y-101050057D02*
X200990826Y-101145295D01*
X200990826Y-101145295D02*
X200990826Y-101240533D01*
X200990826Y-101240533D02*
X200943207Y-101383390D01*
X200943207Y-101383390D02*
X200371779Y-101954819D01*
X200371779Y-101954819D02*
X200990826Y-101954819D01*
X53583333Y-97124819D02*
X53250000Y-96648628D01*
X53011905Y-97124819D02*
X53011905Y-96124819D01*
X53011905Y-96124819D02*
X53392857Y-96124819D01*
X53392857Y-96124819D02*
X53488095Y-96172438D01*
X53488095Y-96172438D02*
X53535714Y-96220057D01*
X53535714Y-96220057D02*
X53583333Y-96315295D01*
X53583333Y-96315295D02*
X53583333Y-96458152D01*
X53583333Y-96458152D02*
X53535714Y-96553390D01*
X53535714Y-96553390D02*
X53488095Y-96601009D01*
X53488095Y-96601009D02*
X53392857Y-96648628D01*
X53392857Y-96648628D02*
X53011905Y-96648628D01*
X53916667Y-96124819D02*
X54583333Y-96124819D01*
X54583333Y-96124819D02*
X54154762Y-97124819D01*
X61107142Y-97124819D02*
X60773809Y-96648628D01*
X60535714Y-97124819D02*
X60535714Y-96124819D01*
X60535714Y-96124819D02*
X60916666Y-96124819D01*
X60916666Y-96124819D02*
X61011904Y-96172438D01*
X61011904Y-96172438D02*
X61059523Y-96220057D01*
X61059523Y-96220057D02*
X61107142Y-96315295D01*
X61107142Y-96315295D02*
X61107142Y-96458152D01*
X61107142Y-96458152D02*
X61059523Y-96553390D01*
X61059523Y-96553390D02*
X61011904Y-96601009D01*
X61011904Y-96601009D02*
X60916666Y-96648628D01*
X60916666Y-96648628D02*
X60535714Y-96648628D01*
X62059523Y-97124819D02*
X61488095Y-97124819D01*
X61773809Y-97124819D02*
X61773809Y-96124819D01*
X61773809Y-96124819D02*
X61678571Y-96267676D01*
X61678571Y-96267676D02*
X61583333Y-96362914D01*
X61583333Y-96362914D02*
X61488095Y-96410533D01*
X62440476Y-96220057D02*
X62488095Y-96172438D01*
X62488095Y-96172438D02*
X62583333Y-96124819D01*
X62583333Y-96124819D02*
X62821428Y-96124819D01*
X62821428Y-96124819D02*
X62916666Y-96172438D01*
X62916666Y-96172438D02*
X62964285Y-96220057D01*
X62964285Y-96220057D02*
X63011904Y-96315295D01*
X63011904Y-96315295D02*
X63011904Y-96410533D01*
X63011904Y-96410533D02*
X62964285Y-96553390D01*
X62964285Y-96553390D02*
X62392857Y-97124819D01*
X62392857Y-97124819D02*
X63011904Y-97124819D01*
X110083333Y-101009580D02*
X110035714Y-101057200D01*
X110035714Y-101057200D02*
X109892857Y-101104819D01*
X109892857Y-101104819D02*
X109797619Y-101104819D01*
X109797619Y-101104819D02*
X109654762Y-101057200D01*
X109654762Y-101057200D02*
X109559524Y-100961961D01*
X109559524Y-100961961D02*
X109511905Y-100866723D01*
X109511905Y-100866723D02*
X109464286Y-100676247D01*
X109464286Y-100676247D02*
X109464286Y-100533390D01*
X109464286Y-100533390D02*
X109511905Y-100342914D01*
X109511905Y-100342914D02*
X109559524Y-100247676D01*
X109559524Y-100247676D02*
X109654762Y-100152438D01*
X109654762Y-100152438D02*
X109797619Y-100104819D01*
X109797619Y-100104819D02*
X109892857Y-100104819D01*
X109892857Y-100104819D02*
X110035714Y-100152438D01*
X110035714Y-100152438D02*
X110083333Y-100200057D01*
X110416667Y-100104819D02*
X111035714Y-100104819D01*
X111035714Y-100104819D02*
X110702381Y-100485771D01*
X110702381Y-100485771D02*
X110845238Y-100485771D01*
X110845238Y-100485771D02*
X110940476Y-100533390D01*
X110940476Y-100533390D02*
X110988095Y-100581009D01*
X110988095Y-100581009D02*
X111035714Y-100676247D01*
X111035714Y-100676247D02*
X111035714Y-100914342D01*
X111035714Y-100914342D02*
X110988095Y-101009580D01*
X110988095Y-101009580D02*
X110940476Y-101057200D01*
X110940476Y-101057200D02*
X110845238Y-101104819D01*
X110845238Y-101104819D02*
X110559524Y-101104819D01*
X110559524Y-101104819D02*
X110464286Y-101057200D01*
X110464286Y-101057200D02*
X110416667Y-101009580D01*
X159016905Y-90414819D02*
X159016905Y-89414819D01*
X159016905Y-89414819D02*
X159255000Y-89414819D01*
X159255000Y-89414819D02*
X159397857Y-89462438D01*
X159397857Y-89462438D02*
X159493095Y-89557676D01*
X159493095Y-89557676D02*
X159540714Y-89652914D01*
X159540714Y-89652914D02*
X159588333Y-89843390D01*
X159588333Y-89843390D02*
X159588333Y-89986247D01*
X159588333Y-89986247D02*
X159540714Y-90176723D01*
X159540714Y-90176723D02*
X159493095Y-90271961D01*
X159493095Y-90271961D02*
X159397857Y-90367200D01*
X159397857Y-90367200D02*
X159255000Y-90414819D01*
X159255000Y-90414819D02*
X159016905Y-90414819D01*
X160493095Y-89414819D02*
X160016905Y-89414819D01*
X160016905Y-89414819D02*
X159969286Y-89891009D01*
X159969286Y-89891009D02*
X160016905Y-89843390D01*
X160016905Y-89843390D02*
X160112143Y-89795771D01*
X160112143Y-89795771D02*
X160350238Y-89795771D01*
X160350238Y-89795771D02*
X160445476Y-89843390D01*
X160445476Y-89843390D02*
X160493095Y-89891009D01*
X160493095Y-89891009D02*
X160540714Y-89986247D01*
X160540714Y-89986247D02*
X160540714Y-90224342D01*
X160540714Y-90224342D02*
X160493095Y-90319580D01*
X160493095Y-90319580D02*
X160445476Y-90367200D01*
X160445476Y-90367200D02*
X160350238Y-90414819D01*
X160350238Y-90414819D02*
X160112143Y-90414819D01*
X160112143Y-90414819D02*
X160016905Y-90367200D01*
X160016905Y-90367200D02*
X159969286Y-90319580D01*
X153488095Y-115954819D02*
X153488095Y-116764342D01*
X153488095Y-116764342D02*
X153535714Y-116859580D01*
X153535714Y-116859580D02*
X153583333Y-116907200D01*
X153583333Y-116907200D02*
X153678571Y-116954819D01*
X153678571Y-116954819D02*
X153869047Y-116954819D01*
X153869047Y-116954819D02*
X153964285Y-116907200D01*
X153964285Y-116907200D02*
X154011904Y-116859580D01*
X154011904Y-116859580D02*
X154059523Y-116764342D01*
X154059523Y-116764342D02*
X154059523Y-115954819D01*
X154964285Y-116288152D02*
X154964285Y-116954819D01*
X154726190Y-115907200D02*
X154488095Y-116621485D01*
X154488095Y-116621485D02*
X155107142Y-116621485D01*
X149414819Y-121258094D02*
X148414819Y-121258094D01*
X148414819Y-121258094D02*
X148414819Y-121019999D01*
X148414819Y-121019999D02*
X148462438Y-120877142D01*
X148462438Y-120877142D02*
X148557676Y-120781904D01*
X148557676Y-120781904D02*
X148652914Y-120734285D01*
X148652914Y-120734285D02*
X148843390Y-120686666D01*
X148843390Y-120686666D02*
X148986247Y-120686666D01*
X148986247Y-120686666D02*
X149176723Y-120734285D01*
X149176723Y-120734285D02*
X149271961Y-120781904D01*
X149271961Y-120781904D02*
X149367200Y-120877142D01*
X149367200Y-120877142D02*
X149414819Y-121019999D01*
X149414819Y-121019999D02*
X149414819Y-121258094D01*
X148414819Y-120353332D02*
X148414819Y-119734285D01*
X148414819Y-119734285D02*
X148795771Y-120067618D01*
X148795771Y-120067618D02*
X148795771Y-119924761D01*
X148795771Y-119924761D02*
X148843390Y-119829523D01*
X148843390Y-119829523D02*
X148891009Y-119781904D01*
X148891009Y-119781904D02*
X148986247Y-119734285D01*
X148986247Y-119734285D02*
X149224342Y-119734285D01*
X149224342Y-119734285D02*
X149319580Y-119781904D01*
X149319580Y-119781904D02*
X149367200Y-119829523D01*
X149367200Y-119829523D02*
X149414819Y-119924761D01*
X149414819Y-119924761D02*
X149414819Y-120210475D01*
X149414819Y-120210475D02*
X149367200Y-120305713D01*
X149367200Y-120305713D02*
X149319580Y-120353332D01*
X133357142Y-121534819D02*
X133023809Y-121058628D01*
X132785714Y-121534819D02*
X132785714Y-120534819D01*
X132785714Y-120534819D02*
X133166666Y-120534819D01*
X133166666Y-120534819D02*
X133261904Y-120582438D01*
X133261904Y-120582438D02*
X133309523Y-120630057D01*
X133309523Y-120630057D02*
X133357142Y-120725295D01*
X133357142Y-120725295D02*
X133357142Y-120868152D01*
X133357142Y-120868152D02*
X133309523Y-120963390D01*
X133309523Y-120963390D02*
X133261904Y-121011009D01*
X133261904Y-121011009D02*
X133166666Y-121058628D01*
X133166666Y-121058628D02*
X132785714Y-121058628D01*
X134309523Y-121534819D02*
X133738095Y-121534819D01*
X134023809Y-121534819D02*
X134023809Y-120534819D01*
X134023809Y-120534819D02*
X133928571Y-120677676D01*
X133928571Y-120677676D02*
X133833333Y-120772914D01*
X133833333Y-120772914D02*
X133738095Y-120820533D01*
X134928571Y-120534819D02*
X135023809Y-120534819D01*
X135023809Y-120534819D02*
X135119047Y-120582438D01*
X135119047Y-120582438D02*
X135166666Y-120630057D01*
X135166666Y-120630057D02*
X135214285Y-120725295D01*
X135214285Y-120725295D02*
X135261904Y-120915771D01*
X135261904Y-120915771D02*
X135261904Y-121153866D01*
X135261904Y-121153866D02*
X135214285Y-121344342D01*
X135214285Y-121344342D02*
X135166666Y-121439580D01*
X135166666Y-121439580D02*
X135119047Y-121487200D01*
X135119047Y-121487200D02*
X135023809Y-121534819D01*
X135023809Y-121534819D02*
X134928571Y-121534819D01*
X134928571Y-121534819D02*
X134833333Y-121487200D01*
X134833333Y-121487200D02*
X134785714Y-121439580D01*
X134785714Y-121439580D02*
X134738095Y-121344342D01*
X134738095Y-121344342D02*
X134690476Y-121153866D01*
X134690476Y-121153866D02*
X134690476Y-120915771D01*
X134690476Y-120915771D02*
X134738095Y-120725295D01*
X134738095Y-120725295D02*
X134785714Y-120630057D01*
X134785714Y-120630057D02*
X134833333Y-120582438D01*
X134833333Y-120582438D02*
X134928571Y-120534819D01*
X166357142Y-90874819D02*
X166023809Y-90398628D01*
X165785714Y-90874819D02*
X165785714Y-89874819D01*
X165785714Y-89874819D02*
X166166666Y-89874819D01*
X166166666Y-89874819D02*
X166261904Y-89922438D01*
X166261904Y-89922438D02*
X166309523Y-89970057D01*
X166309523Y-89970057D02*
X166357142Y-90065295D01*
X166357142Y-90065295D02*
X166357142Y-90208152D01*
X166357142Y-90208152D02*
X166309523Y-90303390D01*
X166309523Y-90303390D02*
X166261904Y-90351009D01*
X166261904Y-90351009D02*
X166166666Y-90398628D01*
X166166666Y-90398628D02*
X165785714Y-90398628D01*
X167309523Y-90874819D02*
X166738095Y-90874819D01*
X167023809Y-90874819D02*
X167023809Y-89874819D01*
X167023809Y-89874819D02*
X166928571Y-90017676D01*
X166928571Y-90017676D02*
X166833333Y-90112914D01*
X166833333Y-90112914D02*
X166738095Y-90160533D01*
X168214285Y-89874819D02*
X167738095Y-89874819D01*
X167738095Y-89874819D02*
X167690476Y-90351009D01*
X167690476Y-90351009D02*
X167738095Y-90303390D01*
X167738095Y-90303390D02*
X167833333Y-90255771D01*
X167833333Y-90255771D02*
X168071428Y-90255771D01*
X168071428Y-90255771D02*
X168166666Y-90303390D01*
X168166666Y-90303390D02*
X168214285Y-90351009D01*
X168214285Y-90351009D02*
X168261904Y-90446247D01*
X168261904Y-90446247D02*
X168261904Y-90684342D01*
X168261904Y-90684342D02*
X168214285Y-90779580D01*
X168214285Y-90779580D02*
X168166666Y-90827200D01*
X168166666Y-90827200D02*
X168071428Y-90874819D01*
X168071428Y-90874819D02*
X167833333Y-90874819D01*
X167833333Y-90874819D02*
X167738095Y-90827200D01*
X167738095Y-90827200D02*
X167690476Y-90779580D01*
X82357142Y-105124819D02*
X82023809Y-104648628D01*
X81785714Y-105124819D02*
X81785714Y-104124819D01*
X81785714Y-104124819D02*
X82166666Y-104124819D01*
X82166666Y-104124819D02*
X82261904Y-104172438D01*
X82261904Y-104172438D02*
X82309523Y-104220057D01*
X82309523Y-104220057D02*
X82357142Y-104315295D01*
X82357142Y-104315295D02*
X82357142Y-104458152D01*
X82357142Y-104458152D02*
X82309523Y-104553390D01*
X82309523Y-104553390D02*
X82261904Y-104601009D01*
X82261904Y-104601009D02*
X82166666Y-104648628D01*
X82166666Y-104648628D02*
X81785714Y-104648628D01*
X83309523Y-105124819D02*
X82738095Y-105124819D01*
X83023809Y-105124819D02*
X83023809Y-104124819D01*
X83023809Y-104124819D02*
X82928571Y-104267676D01*
X82928571Y-104267676D02*
X82833333Y-104362914D01*
X82833333Y-104362914D02*
X82738095Y-104410533D01*
X83785714Y-105124819D02*
X83976190Y-105124819D01*
X83976190Y-105124819D02*
X84071428Y-105077200D01*
X84071428Y-105077200D02*
X84119047Y-105029580D01*
X84119047Y-105029580D02*
X84214285Y-104886723D01*
X84214285Y-104886723D02*
X84261904Y-104696247D01*
X84261904Y-104696247D02*
X84261904Y-104315295D01*
X84261904Y-104315295D02*
X84214285Y-104220057D01*
X84214285Y-104220057D02*
X84166666Y-104172438D01*
X84166666Y-104172438D02*
X84071428Y-104124819D01*
X84071428Y-104124819D02*
X83880952Y-104124819D01*
X83880952Y-104124819D02*
X83785714Y-104172438D01*
X83785714Y-104172438D02*
X83738095Y-104220057D01*
X83738095Y-104220057D02*
X83690476Y-104315295D01*
X83690476Y-104315295D02*
X83690476Y-104553390D01*
X83690476Y-104553390D02*
X83738095Y-104648628D01*
X83738095Y-104648628D02*
X83785714Y-104696247D01*
X83785714Y-104696247D02*
X83880952Y-104743866D01*
X83880952Y-104743866D02*
X84071428Y-104743866D01*
X84071428Y-104743866D02*
X84166666Y-104696247D01*
X84166666Y-104696247D02*
X84214285Y-104648628D01*
X84214285Y-104648628D02*
X84261904Y-104553390D01*
X197238095Y-126004819D02*
X197238095Y-125004819D01*
X197238095Y-125481009D02*
X197809523Y-125481009D01*
X197809523Y-126004819D02*
X197809523Y-125004819D01*
X198190476Y-125004819D02*
X198809523Y-125004819D01*
X198809523Y-125004819D02*
X198476190Y-125385771D01*
X198476190Y-125385771D02*
X198619047Y-125385771D01*
X198619047Y-125385771D02*
X198714285Y-125433390D01*
X198714285Y-125433390D02*
X198761904Y-125481009D01*
X198761904Y-125481009D02*
X198809523Y-125576247D01*
X198809523Y-125576247D02*
X198809523Y-125814342D01*
X198809523Y-125814342D02*
X198761904Y-125909580D01*
X198761904Y-125909580D02*
X198714285Y-125957200D01*
X198714285Y-125957200D02*
X198619047Y-126004819D01*
X198619047Y-126004819D02*
X198333333Y-126004819D01*
X198333333Y-126004819D02*
X198238095Y-125957200D01*
X198238095Y-125957200D02*
X198190476Y-125909580D01*
X156583333Y-118609819D02*
X156250000Y-118133628D01*
X156011905Y-118609819D02*
X156011905Y-117609819D01*
X156011905Y-117609819D02*
X156392857Y-117609819D01*
X156392857Y-117609819D02*
X156488095Y-117657438D01*
X156488095Y-117657438D02*
X156535714Y-117705057D01*
X156535714Y-117705057D02*
X156583333Y-117800295D01*
X156583333Y-117800295D02*
X156583333Y-117943152D01*
X156583333Y-117943152D02*
X156535714Y-118038390D01*
X156535714Y-118038390D02*
X156488095Y-118086009D01*
X156488095Y-118086009D02*
X156392857Y-118133628D01*
X156392857Y-118133628D02*
X156011905Y-118133628D01*
X156916667Y-117609819D02*
X157535714Y-117609819D01*
X157535714Y-117609819D02*
X157202381Y-117990771D01*
X157202381Y-117990771D02*
X157345238Y-117990771D01*
X157345238Y-117990771D02*
X157440476Y-118038390D01*
X157440476Y-118038390D02*
X157488095Y-118086009D01*
X157488095Y-118086009D02*
X157535714Y-118181247D01*
X157535714Y-118181247D02*
X157535714Y-118419342D01*
X157535714Y-118419342D02*
X157488095Y-118514580D01*
X157488095Y-118514580D02*
X157440476Y-118562200D01*
X157440476Y-118562200D02*
X157345238Y-118609819D01*
X157345238Y-118609819D02*
X157059524Y-118609819D01*
X157059524Y-118609819D02*
X156964286Y-118562200D01*
X156964286Y-118562200D02*
X156916667Y-118514580D01*
X190798095Y-110574819D02*
X190798095Y-111384342D01*
X190798095Y-111384342D02*
X190845714Y-111479580D01*
X190845714Y-111479580D02*
X190893333Y-111527200D01*
X190893333Y-111527200D02*
X190988571Y-111574819D01*
X190988571Y-111574819D02*
X191179047Y-111574819D01*
X191179047Y-111574819D02*
X191274285Y-111527200D01*
X191274285Y-111527200D02*
X191321904Y-111479580D01*
X191321904Y-111479580D02*
X191369523Y-111384342D01*
X191369523Y-111384342D02*
X191369523Y-110574819D01*
X192369523Y-111574819D02*
X191798095Y-111574819D01*
X192083809Y-111574819D02*
X192083809Y-110574819D01*
X192083809Y-110574819D02*
X191988571Y-110717676D01*
X191988571Y-110717676D02*
X191893333Y-110812914D01*
X191893333Y-110812914D02*
X191798095Y-110860533D01*
D11*
%TO.C,D4*%
X176240000Y-118750000D02*
X178530000Y-118750000D01*
X182950000Y-120220000D02*
X182950000Y-117280000D01*
X183070000Y-120220000D02*
X183070000Y-117280000D01*
X183190000Y-120220000D02*
X183190000Y-117280000D01*
X186260000Y-118750000D02*
X183970000Y-118750000D01*
X183970000Y-120220000D02*
X178530000Y-120220000D01*
X178530000Y-117280000D01*
X183970000Y-117280000D01*
X183970000Y-120220000D01*
%TO.C,R4*%
X154605000Y-82480000D02*
X151865000Y-82480000D01*
X151865000Y-89020000D01*
X154605000Y-89020000D01*
X154605000Y-82480000D01*
X153235000Y-81710000D02*
X153235000Y-82480000D01*
X153235000Y-89790000D02*
X153235000Y-89020000D01*
%TO.C,L1*%
X199720000Y-118750000D02*
G75*
G02*
X192280000Y-118750000I-3720000J0D01*
G01*
X192280000Y-118750000D02*
G75*
G02*
X199720000Y-118750000I3720000J0D01*
G01*
%TO.C,U5*%
X174040000Y-100830000D02*
X175670000Y-100830000D01*
X174040000Y-102460000D02*
X174040000Y-100830000D01*
D10*
X174400000Y-101190000D02*
X174400000Y-113890000D01*
X174400000Y-113890000D02*
X182020000Y-113890000D01*
X182020000Y-101190000D02*
X174400000Y-101190000D01*
X182020000Y-113890000D02*
X182020000Y-101190000D01*
D11*
%TO.C,R14*%
X166272936Y-125910000D02*
X167727064Y-125910000D01*
X166272936Y-124090000D02*
X167727064Y-124090000D01*
%TO.C,R20*%
X86772936Y-116090000D02*
X88227064Y-116090000D01*
X86772936Y-117910000D02*
X88227064Y-117910000D01*
%TO.C,D1*%
X121455000Y-79830000D02*
X124545000Y-79830000D01*
X121455170Y-79830000D02*
G75*
G02*
X123000000Y-74280000I1544830J2560000D01*
G01*
X123000000Y-74280000D02*
G75*
G02*
X124544830Y-79830000I0J-2990000D01*
G01*
X125500000Y-77270000D02*
G75*
G02*
X120500000Y-77270000I-2500000J0D01*
G01*
X120500000Y-77270000D02*
G75*
G02*
X125500000Y-77270000I2500000J0D01*
G01*
%TO.C,R17*%
X166272936Y-96590000D02*
X167727064Y-96590000D01*
X166272936Y-98410000D02*
X167727064Y-98410000D01*
%TO.C,U0*%
X96345000Y-93590000D02*
X96345000Y-103870000D01*
X96345000Y-103870000D02*
X97995000Y-103870000D01*
X99995000Y-103870000D02*
X101645000Y-103870000D01*
X101645000Y-93590000D02*
X96345000Y-93590000D01*
X101645000Y-103870000D02*
X101645000Y-93590000D01*
X97995000Y-103870000D02*
G75*
G02*
X99995000Y-103870000I1000000J0D01*
G01*
%TO.C,SW1*%
X130500000Y-125750000D02*
X130500000Y-127250000D01*
X131750000Y-129750000D02*
X136250000Y-129750000D01*
X136250000Y-123250000D02*
X131750000Y-123250000D01*
X137500000Y-127250000D02*
X137500000Y-125750000D01*
%TO.C,R16*%
X166272936Y-105840000D02*
X167727064Y-105840000D01*
X166272936Y-107660000D02*
X167727064Y-107660000D01*
%TO.C,U3*%
X139000000Y-94280000D02*
X139000000Y-114720000D01*
X139000000Y-114720000D02*
X140250000Y-114720000D01*
X142250000Y-114720000D02*
X143500000Y-114720000D01*
X143500000Y-94280000D02*
X139000000Y-94280000D01*
X143500000Y-114720000D02*
X143500000Y-94280000D01*
X146500000Y-114780000D02*
X136000000Y-114780000D01*
X136000000Y-94220000D01*
X146500000Y-94220000D01*
X146500000Y-114780000D01*
X140250000Y-114720000D02*
G75*
G02*
X142250000Y-114720000I1000000J0D01*
G01*
%TO.C,C4*%
X199538748Y-112410000D02*
X200961252Y-112410000D01*
X199538748Y-110590000D02*
X200961252Y-110590000D01*
%TO.C,R11*%
X140522936Y-90340000D02*
X141977064Y-90340000D01*
X140522936Y-92160000D02*
X141977064Y-92160000D01*
%TO.C,R1*%
X135210000Y-78500000D02*
X135980000Y-78500000D01*
X143290000Y-78500000D02*
X142520000Y-78500000D01*
X135980000Y-77130000D02*
X142520000Y-77130000D01*
X142520000Y-79870000D01*
X135980000Y-79870000D01*
X135980000Y-77130000D01*
%TO.C,R5*%
X166272936Y-110340000D02*
X167727064Y-110340000D01*
X166272936Y-112160000D02*
X167727064Y-112160000D01*
%TO.C,C1*%
X186195225Y-89275000D02*
X186695225Y-89275000D01*
X186445225Y-89025000D02*
X186445225Y-89525000D01*
X189000000Y-88170000D02*
X189000000Y-89710000D01*
X189000000Y-91790000D02*
X189000000Y-93330000D01*
X189040000Y-88170000D02*
X189040000Y-89710000D01*
X189040000Y-91790000D02*
X189040000Y-93330000D01*
X189080000Y-88171000D02*
X189080000Y-89710000D01*
X189080000Y-91790000D02*
X189080000Y-93329000D01*
X189120000Y-88173000D02*
X189120000Y-89710000D01*
X189120000Y-91790000D02*
X189120000Y-93327000D01*
X189160000Y-88175000D02*
X189160000Y-89710000D01*
X189160000Y-91790000D02*
X189160000Y-93325000D01*
X189200000Y-88178000D02*
X189200000Y-89710000D01*
X189200000Y-91790000D02*
X189200000Y-93322000D01*
X189240000Y-88181000D02*
X189240000Y-89710000D01*
X189240000Y-91790000D02*
X189240000Y-93319000D01*
X189280000Y-88185000D02*
X189280000Y-89710000D01*
X189280000Y-91790000D02*
X189280000Y-93315000D01*
X189320000Y-88190000D02*
X189320000Y-89710000D01*
X189320000Y-91790000D02*
X189320000Y-93310000D01*
X189360000Y-88195000D02*
X189360000Y-89710000D01*
X189360000Y-91790000D02*
X189360000Y-93305000D01*
X189400000Y-88201000D02*
X189400000Y-89710000D01*
X189400000Y-91790000D02*
X189400000Y-93299000D01*
X189440000Y-88207000D02*
X189440000Y-89710000D01*
X189440000Y-91790000D02*
X189440000Y-93293000D01*
X189480000Y-88214000D02*
X189480000Y-89710000D01*
X189480000Y-91790000D02*
X189480000Y-93286000D01*
X189520000Y-88222000D02*
X189520000Y-89710000D01*
X189520000Y-91790000D02*
X189520000Y-93278000D01*
X189560000Y-88231000D02*
X189560000Y-89710000D01*
X189560000Y-91790000D02*
X189560000Y-93269000D01*
X189600000Y-88240000D02*
X189600000Y-89710000D01*
X189600000Y-91790000D02*
X189600000Y-93260000D01*
X189640000Y-88249000D02*
X189640000Y-89710000D01*
X189640000Y-91790000D02*
X189640000Y-93251000D01*
X189680000Y-88260000D02*
X189680000Y-89710000D01*
X189680000Y-91790000D02*
X189680000Y-93240000D01*
X189720000Y-88271000D02*
X189720000Y-89710000D01*
X189720000Y-91790000D02*
X189720000Y-93229000D01*
X189760000Y-88283000D02*
X189760000Y-89710000D01*
X189760000Y-91790000D02*
X189760000Y-93217000D01*
X189800000Y-88295000D02*
X189800000Y-89710000D01*
X189800000Y-91790000D02*
X189800000Y-93205000D01*
X189840000Y-88308000D02*
X189840000Y-89710000D01*
X189840000Y-91790000D02*
X189840000Y-93192000D01*
X189880000Y-88322000D02*
X189880000Y-89710000D01*
X189880000Y-91790000D02*
X189880000Y-93178000D01*
X189920000Y-88337000D02*
X189920000Y-89710000D01*
X189920000Y-91790000D02*
X189920000Y-93163000D01*
X189960000Y-88352000D02*
X189960000Y-89710000D01*
X189960000Y-91790000D02*
X189960000Y-93148000D01*
X190000000Y-88368000D02*
X190000000Y-89710000D01*
X190000000Y-91790000D02*
X190000000Y-93132000D01*
X190040000Y-88385000D02*
X190040000Y-89710000D01*
X190040000Y-91790000D02*
X190040000Y-93115000D01*
X190080000Y-88403000D02*
X190080000Y-89710000D01*
X190080000Y-91790000D02*
X190080000Y-93097000D01*
X190120000Y-88421000D02*
X190120000Y-89710000D01*
X190120000Y-91790000D02*
X190120000Y-93079000D01*
X190160000Y-88441000D02*
X190160000Y-89710000D01*
X190160000Y-91790000D02*
X190160000Y-93059000D01*
X190200000Y-88461000D02*
X190200000Y-89710000D01*
X190200000Y-91790000D02*
X190200000Y-93039000D01*
X190240000Y-88482000D02*
X190240000Y-89710000D01*
X190240000Y-91790000D02*
X190240000Y-93018000D01*
X190280000Y-88504000D02*
X190280000Y-89710000D01*
X190280000Y-91790000D02*
X190280000Y-92996000D01*
X190320000Y-88527000D02*
X190320000Y-89710000D01*
X190320000Y-91790000D02*
X190320000Y-92973000D01*
X190360000Y-88551000D02*
X190360000Y-89710000D01*
X190360000Y-91790000D02*
X190360000Y-92949000D01*
X190400000Y-88575000D02*
X190400000Y-89710000D01*
X190400000Y-91790000D02*
X190400000Y-92925000D01*
X190440000Y-88601000D02*
X190440000Y-89710000D01*
X190440000Y-91790000D02*
X190440000Y-92899000D01*
X190480000Y-88628000D02*
X190480000Y-89710000D01*
X190480000Y-91790000D02*
X190480000Y-92872000D01*
X190520000Y-88656000D02*
X190520000Y-89710000D01*
X190520000Y-91790000D02*
X190520000Y-92844000D01*
X190560000Y-88685000D02*
X190560000Y-89710000D01*
X190560000Y-91790000D02*
X190560000Y-92815000D01*
X190600000Y-88715000D02*
X190600000Y-89710000D01*
X190600000Y-91790000D02*
X190600000Y-92785000D01*
X190640000Y-88747000D02*
X190640000Y-89710000D01*
X190640000Y-91790000D02*
X190640000Y-92753000D01*
X190680000Y-88780000D02*
X190680000Y-89710000D01*
X190680000Y-91790000D02*
X190680000Y-92720000D01*
X190720000Y-88814000D02*
X190720000Y-89710000D01*
X190720000Y-91790000D02*
X190720000Y-92686000D01*
X190760000Y-88849000D02*
X190760000Y-89710000D01*
X190760000Y-91790000D02*
X190760000Y-92651000D01*
X190800000Y-88886000D02*
X190800000Y-89710000D01*
X190800000Y-91790000D02*
X190800000Y-92614000D01*
X190840000Y-88925000D02*
X190840000Y-89710000D01*
X190840000Y-91790000D02*
X190840000Y-92575000D01*
X190880000Y-88965000D02*
X190880000Y-89710000D01*
X190880000Y-91790000D02*
X190880000Y-92535000D01*
X190920000Y-89007000D02*
X190920000Y-89710000D01*
X190920000Y-91790000D02*
X190920000Y-92493000D01*
X190960000Y-89051000D02*
X190960000Y-89710000D01*
X190960000Y-91790000D02*
X190960000Y-92449000D01*
X191000000Y-89098000D02*
X191000000Y-89710000D01*
X191000000Y-91790000D02*
X191000000Y-92402000D01*
X191040000Y-89146000D02*
X191040000Y-92354000D01*
X191080000Y-89197000D02*
X191080000Y-92303000D01*
X191120000Y-89251000D02*
X191120000Y-92249000D01*
X191160000Y-89307000D02*
X191160000Y-92193000D01*
X191200000Y-89367000D02*
X191200000Y-92133000D01*
X191240000Y-89431000D02*
X191240000Y-92069000D01*
X191280000Y-89499000D02*
X191280000Y-92001000D01*
X191320000Y-89573000D02*
X191320000Y-91927000D01*
X191360000Y-89652000D02*
X191360000Y-91848000D01*
X191400000Y-89739000D02*
X191400000Y-91761000D01*
X191440000Y-89836000D02*
X191440000Y-91664000D01*
X191480000Y-89945000D02*
X191480000Y-91555000D01*
X191520000Y-90073000D02*
X191520000Y-91427000D01*
X191560000Y-90233000D02*
X191560000Y-91267000D01*
X191600000Y-90467000D02*
X191600000Y-91033000D01*
X191620000Y-90750000D02*
G75*
G02*
X186380000Y-90750000I-2620000J0D01*
G01*
X186380000Y-90750000D02*
G75*
G02*
X191620000Y-90750000I2620000J0D01*
G01*
%TO.C,R18*%
X166272936Y-101590000D02*
X167727064Y-101590000D01*
X166272936Y-103410000D02*
X167727064Y-103410000D01*
%TO.C,R6*%
X166272936Y-114590000D02*
X167727064Y-114590000D01*
X166272936Y-116410000D02*
X167727064Y-116410000D01*
%TO.C,SW2*%
X113540000Y-102000000D02*
X113540000Y-103000000D01*
X113540000Y-103000000D02*
X114040000Y-102500000D01*
X114040000Y-102500000D02*
X113540000Y-102000000D01*
X114240000Y-96090000D02*
X114550000Y-96090000D01*
X114240000Y-104910000D02*
X114240000Y-96090000D01*
X114550000Y-104910000D02*
X114240000Y-104910000D01*
X118760000Y-96090000D02*
X118450000Y-96090000D01*
X118760000Y-96090000D02*
X118760000Y-104910000D01*
X118760000Y-104910000D02*
X118450000Y-104910000D01*
%TO.C,R2*%
X139210000Y-87460000D02*
X139980000Y-87460000D01*
X147290000Y-87460000D02*
X146520000Y-87460000D01*
X139980000Y-86090000D02*
X146520000Y-86090000D01*
X146520000Y-88830000D01*
X139980000Y-88830000D01*
X139980000Y-86090000D01*
%TO.C,U2*%
X124690000Y-94340000D02*
X124690000Y-114780000D01*
X124690000Y-114780000D02*
X129190000Y-114780000D01*
X125940000Y-94340000D02*
X124690000Y-94340000D01*
X129190000Y-94340000D02*
X127940000Y-94340000D01*
X129190000Y-114780000D02*
X129190000Y-94340000D01*
X121690000Y-94280000D02*
X132190000Y-94280000D01*
X132190000Y-114840000D01*
X121690000Y-114840000D01*
X121690000Y-94280000D01*
X127940000Y-94340000D02*
G75*
G02*
X125940000Y-94340000I-1000000J0D01*
G01*
%TO.C,D2*%
X125455000Y-88790000D02*
X128545000Y-88790000D01*
X125455170Y-88790000D02*
G75*
G02*
X127000000Y-83240000I1544830J2560000D01*
G01*
X127000000Y-83240000D02*
G75*
G02*
X128544830Y-88790000I0J-2990000D01*
G01*
X129500000Y-86230000D02*
G75*
G02*
X124500000Y-86230000I-2500000J0D01*
G01*
X124500000Y-86230000D02*
G75*
G02*
X129500000Y-86230000I2500000J0D01*
G01*
%TO.C,J1*%
X173630000Y-83997500D02*
X183870000Y-83997500D01*
X173630000Y-87617500D02*
X183870000Y-87617500D01*
X173630000Y-88617500D02*
X183870000Y-88617500D01*
X173630000Y-92617500D02*
X183870000Y-92617500D01*
X173630000Y-94737500D02*
X173630000Y-83997500D01*
X175950000Y-94737500D02*
X173630000Y-94737500D01*
X183870000Y-83997500D02*
X183870000Y-94737500D01*
X183870000Y-94737500D02*
X176550000Y-94737500D01*
X176690000Y-95347500D02*
X175810000Y-95347500D01*
X176250000Y-94737500D01*
X176690000Y-95347500D01*
G36*
X176690000Y-95347500D02*
G01*
X175810000Y-95347500D01*
X176250000Y-94737500D01*
X176690000Y-95347500D01*
G37*
%TO.C,R9*%
X96090000Y-112977064D02*
X96090000Y-111522936D01*
X97910000Y-112977064D02*
X97910000Y-111522936D01*
%TO.C,R8*%
X166272936Y-119590000D02*
X167727064Y-119590000D01*
X166272936Y-121410000D02*
X167727064Y-121410000D01*
%TO.C,C5*%
X102788748Y-106590000D02*
X104211252Y-106590000D01*
X102788748Y-108410000D02*
X104211252Y-108410000D01*
%TO.C,C2*%
X197445225Y-103775000D02*
X197945225Y-103775000D01*
X197695225Y-103525000D02*
X197695225Y-104025000D01*
X200250000Y-102670000D02*
X200250000Y-104210000D01*
X200250000Y-106290000D02*
X200250000Y-107830000D01*
X200290000Y-102670000D02*
X200290000Y-104210000D01*
X200290000Y-106290000D02*
X200290000Y-107830000D01*
X200330000Y-102671000D02*
X200330000Y-104210000D01*
X200330000Y-106290000D02*
X200330000Y-107829000D01*
X200370000Y-102673000D02*
X200370000Y-104210000D01*
X200370000Y-106290000D02*
X200370000Y-107827000D01*
X200410000Y-102675000D02*
X200410000Y-104210000D01*
X200410000Y-106290000D02*
X200410000Y-107825000D01*
X200450000Y-102678000D02*
X200450000Y-104210000D01*
X200450000Y-106290000D02*
X200450000Y-107822000D01*
X200490000Y-102681000D02*
X200490000Y-104210000D01*
X200490000Y-106290000D02*
X200490000Y-107819000D01*
X200530000Y-102685000D02*
X200530000Y-104210000D01*
X200530000Y-106290000D02*
X200530000Y-107815000D01*
X200570000Y-102690000D02*
X200570000Y-104210000D01*
X200570000Y-106290000D02*
X200570000Y-107810000D01*
X200610000Y-102695000D02*
X200610000Y-104210000D01*
X200610000Y-106290000D02*
X200610000Y-107805000D01*
X200650000Y-102701000D02*
X200650000Y-104210000D01*
X200650000Y-106290000D02*
X200650000Y-107799000D01*
X200690000Y-102707000D02*
X200690000Y-104210000D01*
X200690000Y-106290000D02*
X200690000Y-107793000D01*
X200730000Y-102714000D02*
X200730000Y-104210000D01*
X200730000Y-106290000D02*
X200730000Y-107786000D01*
X200770000Y-102722000D02*
X200770000Y-104210000D01*
X200770000Y-106290000D02*
X200770000Y-107778000D01*
X200810000Y-102731000D02*
X200810000Y-104210000D01*
X200810000Y-106290000D02*
X200810000Y-107769000D01*
X200850000Y-102740000D02*
X200850000Y-104210000D01*
X200850000Y-106290000D02*
X200850000Y-107760000D01*
X200890000Y-102749000D02*
X200890000Y-104210000D01*
X200890000Y-106290000D02*
X200890000Y-107751000D01*
X200930000Y-102760000D02*
X200930000Y-104210000D01*
X200930000Y-106290000D02*
X200930000Y-107740000D01*
X200970000Y-102771000D02*
X200970000Y-104210000D01*
X200970000Y-106290000D02*
X200970000Y-107729000D01*
X201010000Y-102783000D02*
X201010000Y-104210000D01*
X201010000Y-106290000D02*
X201010000Y-107717000D01*
X201050000Y-102795000D02*
X201050000Y-104210000D01*
X201050000Y-106290000D02*
X201050000Y-107705000D01*
X201090000Y-102808000D02*
X201090000Y-104210000D01*
X201090000Y-106290000D02*
X201090000Y-107692000D01*
X201130000Y-102822000D02*
X201130000Y-104210000D01*
X201130000Y-106290000D02*
X201130000Y-107678000D01*
X201170000Y-102837000D02*
X201170000Y-104210000D01*
X201170000Y-106290000D02*
X201170000Y-107663000D01*
X201210000Y-102852000D02*
X201210000Y-104210000D01*
X201210000Y-106290000D02*
X201210000Y-107648000D01*
X201250000Y-102868000D02*
X201250000Y-104210000D01*
X201250000Y-106290000D02*
X201250000Y-107632000D01*
X201290000Y-102885000D02*
X201290000Y-104210000D01*
X201290000Y-106290000D02*
X201290000Y-107615000D01*
X201330000Y-102903000D02*
X201330000Y-104210000D01*
X201330000Y-106290000D02*
X201330000Y-107597000D01*
X201370000Y-102921000D02*
X201370000Y-104210000D01*
X201370000Y-106290000D02*
X201370000Y-107579000D01*
X201410000Y-102941000D02*
X201410000Y-104210000D01*
X201410000Y-106290000D02*
X201410000Y-107559000D01*
X201450000Y-102961000D02*
X201450000Y-104210000D01*
X201450000Y-106290000D02*
X201450000Y-107539000D01*
X201490000Y-102982000D02*
X201490000Y-104210000D01*
X201490000Y-106290000D02*
X201490000Y-107518000D01*
X201530000Y-103004000D02*
X201530000Y-104210000D01*
X201530000Y-106290000D02*
X201530000Y-107496000D01*
X201570000Y-103027000D02*
X201570000Y-104210000D01*
X201570000Y-106290000D02*
X201570000Y-107473000D01*
X201610000Y-103051000D02*
X201610000Y-104210000D01*
X201610000Y-106290000D02*
X201610000Y-107449000D01*
X201650000Y-103075000D02*
X201650000Y-104210000D01*
X201650000Y-106290000D02*
X201650000Y-107425000D01*
X201690000Y-103101000D02*
X201690000Y-104210000D01*
X201690000Y-106290000D02*
X201690000Y-107399000D01*
X201730000Y-103128000D02*
X201730000Y-104210000D01*
X201730000Y-106290000D02*
X201730000Y-107372000D01*
X201770000Y-103156000D02*
X201770000Y-104210000D01*
X201770000Y-106290000D02*
X201770000Y-107344000D01*
X201810000Y-103185000D02*
X201810000Y-104210000D01*
X201810000Y-106290000D02*
X201810000Y-107315000D01*
X201850000Y-103215000D02*
X201850000Y-104210000D01*
X201850000Y-106290000D02*
X201850000Y-107285000D01*
X201890000Y-103247000D02*
X201890000Y-104210000D01*
X201890000Y-106290000D02*
X201890000Y-107253000D01*
X201930000Y-103280000D02*
X201930000Y-104210000D01*
X201930000Y-106290000D02*
X201930000Y-107220000D01*
X201970000Y-103314000D02*
X201970000Y-104210000D01*
X201970000Y-106290000D02*
X201970000Y-107186000D01*
X202010000Y-103349000D02*
X202010000Y-104210000D01*
X202010000Y-106290000D02*
X202010000Y-107151000D01*
X202050000Y-103386000D02*
X202050000Y-104210000D01*
X202050000Y-106290000D02*
X202050000Y-107114000D01*
X202090000Y-103425000D02*
X202090000Y-104210000D01*
X202090000Y-106290000D02*
X202090000Y-107075000D01*
X202130000Y-103465000D02*
X202130000Y-104210000D01*
X202130000Y-106290000D02*
X202130000Y-107035000D01*
X202170000Y-103507000D02*
X202170000Y-104210000D01*
X202170000Y-106290000D02*
X202170000Y-106993000D01*
X202210000Y-103551000D02*
X202210000Y-104210000D01*
X202210000Y-106290000D02*
X202210000Y-106949000D01*
X202250000Y-103598000D02*
X202250000Y-104210000D01*
X202250000Y-106290000D02*
X202250000Y-106902000D01*
X202290000Y-103646000D02*
X202290000Y-106854000D01*
X202330000Y-103697000D02*
X202330000Y-106803000D01*
X202370000Y-103751000D02*
X202370000Y-106749000D01*
X202410000Y-103807000D02*
X202410000Y-106693000D01*
X202450000Y-103867000D02*
X202450000Y-106633000D01*
X202490000Y-103931000D02*
X202490000Y-106569000D01*
X202530000Y-103999000D02*
X202530000Y-106501000D01*
X202570000Y-104073000D02*
X202570000Y-106427000D01*
X202610000Y-104152000D02*
X202610000Y-106348000D01*
X202650000Y-104239000D02*
X202650000Y-106261000D01*
X202690000Y-104336000D02*
X202690000Y-106164000D01*
X202730000Y-104445000D02*
X202730000Y-106055000D01*
X202770000Y-104573000D02*
X202770000Y-105927000D01*
X202810000Y-104733000D02*
X202810000Y-105767000D01*
X202850000Y-104967000D02*
X202850000Y-105533000D01*
X202870000Y-105250000D02*
G75*
G02*
X197630000Y-105250000I-2620000J0D01*
G01*
X197630000Y-105250000D02*
G75*
G02*
X202870000Y-105250000I2620000J0D01*
G01*
%TO.C,R7*%
X53022936Y-97590000D02*
X54477064Y-97590000D01*
X53022936Y-99410000D02*
X54477064Y-99410000D01*
%TO.C,R12*%
X61022936Y-97590000D02*
X62477064Y-97590000D01*
X61022936Y-99410000D02*
X62477064Y-99410000D01*
%TO.C,C3*%
X109538748Y-103410000D02*
X110961252Y-103410000D01*
X109538748Y-101590000D02*
X110961252Y-101590000D01*
%TO.C,D5*%
X162315000Y-87545000D02*
X162315000Y-84455000D01*
X162315000Y-87544830D02*
G75*
G02*
X156765000Y-86000000I-2560000J1544830D01*
G01*
X156765000Y-86000000D02*
G75*
G02*
X162315000Y-84455170I2990000J0D01*
G01*
X162255000Y-86000000D02*
G75*
G02*
X157255000Y-86000000I-2500000J0D01*
G01*
X157255000Y-86000000D02*
G75*
G02*
X162255000Y-86000000I2500000J0D01*
G01*
%TO.C,U4*%
X157000000Y-94280000D02*
X152500000Y-94280000D01*
X152500000Y-94280000D02*
X152500000Y-114720000D01*
X157000000Y-114720000D02*
X157000000Y-94280000D01*
X155750000Y-114720000D02*
X157000000Y-114720000D01*
X152500000Y-114720000D02*
X153750000Y-114720000D01*
X160000000Y-114780000D02*
X149500000Y-114780000D01*
X149500000Y-94220000D01*
X160000000Y-94220000D01*
X160000000Y-114780000D01*
X153750000Y-114720000D02*
G75*
G02*
X155750000Y-114720000I1000000J0D01*
G01*
%TO.C,D3*%
X146545000Y-117960000D02*
X143455000Y-117960000D01*
X146544830Y-117960000D02*
G75*
G02*
X145000000Y-123510000I-1544830J-2560000D01*
G01*
X145000000Y-123510000D02*
G75*
G02*
X143455170Y-117960000I0J2990000D01*
G01*
X147500000Y-120520000D02*
G75*
G02*
X142500000Y-120520000I-2500000J0D01*
G01*
X142500000Y-120520000D02*
G75*
G02*
X147500000Y-120520000I2500000J0D01*
G01*
%TO.C,R10*%
X134727064Y-118340000D02*
X133272936Y-118340000D01*
X134727064Y-120160000D02*
X133272936Y-120160000D01*
%TO.C,R15*%
X166272936Y-91340000D02*
X167727064Y-91340000D01*
X166272936Y-93160000D02*
X167727064Y-93160000D01*
%TO.C,R19*%
X82272936Y-105590000D02*
X83727064Y-105590000D01*
X82272936Y-107410000D02*
X83727064Y-107410000D01*
%TO.C,R3*%
X160790000Y-120525000D02*
X160020000Y-120525000D01*
X152710000Y-120525000D02*
X153480000Y-120525000D01*
X153480000Y-119155000D02*
X160020000Y-119155000D01*
X160020000Y-121895000D01*
X153480000Y-121895000D01*
X153480000Y-119155000D01*
%TO.C,U1*%
X188910000Y-99840000D02*
X188910000Y-110120000D01*
X188910000Y-110120000D02*
X190560000Y-110120000D01*
X192560000Y-110120000D02*
X194210000Y-110120000D01*
X194210000Y-99840000D02*
X188910000Y-99840000D01*
X194210000Y-110120000D02*
X194210000Y-99840000D01*
X190560000Y-110120000D02*
G75*
G02*
X192560000Y-110120000I1000000J0D01*
G01*
%TD*%
M02*
