%TF.GenerationSoftware,KiCad,Pcbnew,9.0.3*%
%TF.CreationDate,2025-12-16T09:58:15+01:00*%
%TF.ProjectId,PTP_Ivan_Hodak_Project1,5054505f-4976-4616-9e5f-486f64616b5f,rev?*%
%TF.SameCoordinates,Original*%
%TF.FileFunction,Copper,L2,Bot*%
%TF.FilePolarity,Positive*%
%FSLAX46Y46*%
G04 Gerber Fmt 4.6, Leading zero omitted, Abs format (unit mm)*
G04 Created by KiCad (PCBNEW 9.0.3) date 2025-12-16 09:58:15*
%MOMM*%
%LPD*%
G01*
G04 APERTURE LIST*
G04 Aperture macros list*
%AMRoundRect*
0 Rectangle with rounded corners*
0 $1 Rounding radius*
0 $2 $3 $4 $5 $6 $7 $8 $9 X,Y pos of 4 corners*
0 Add a 4 corners polygon primitive as box body*
4,1,4,$2,$3,$4,$5,$6,$7,$8,$9,$2,$3,0*
0 Add four circle primitives for the rounded corners*
1,1,$1+$1,$2,$3*
1,1,$1+$1,$4,$5*
1,1,$1+$1,$6,$7*
1,1,$1+$1,$8,$9*
0 Add four rect primitives between the rounded corners*
20,1,$1+$1,$2,$3,$4,$5,0*
20,1,$1+$1,$4,$5,$6,$7,0*
20,1,$1+$1,$6,$7,$8,$9,0*
20,1,$1+$1,$8,$9,$2,$3,0*%
G04 Aperture macros list end*
%TA.AperFunction,ComponentPad*%
%ADD10RoundRect,0.249999X0.850001X0.850001X-0.850001X0.850001X-0.850001X-0.850001X0.850001X-0.850001X0*%
%TD*%
%TA.AperFunction,ComponentPad*%
%ADD11C,2.200000*%
%TD*%
%TA.AperFunction,ComponentPad*%
%ADD12C,1.600000*%
%TD*%
%TA.AperFunction,ComponentPad*%
%ADD13C,2.400000*%
%TD*%
%TA.AperFunction,ComponentPad*%
%ADD14R,1.600000X1.600000*%
%TD*%
%TA.AperFunction,ComponentPad*%
%ADD15R,1.800000X1.800000*%
%TD*%
%TA.AperFunction,ComponentPad*%
%ADD16C,1.800000*%
%TD*%
%TA.AperFunction,ComponentPad*%
%ADD17RoundRect,0.250000X0.550000X0.550000X-0.550000X0.550000X-0.550000X-0.550000X0.550000X-0.550000X0*%
%TD*%
%TA.AperFunction,ComponentPad*%
%ADD18C,2.000000*%
%TD*%
%TA.AperFunction,ComponentPad*%
%ADD19RoundRect,0.250000X0.950000X0.550000X-0.950000X0.550000X-0.950000X-0.550000X0.950000X-0.550000X0*%
%TD*%
%TA.AperFunction,ComponentPad*%
%ADD20O,2.400000X1.600000*%
%TD*%
%TA.AperFunction,ComponentPad*%
%ADD21RoundRect,0.250000X-0.550000X-0.550000X0.550000X-0.550000X0.550000X0.550000X-0.550000X0.550000X0*%
%TD*%
%TA.AperFunction,ComponentPad*%
%ADD22O,3.500000X2.200000*%
%TD*%
%TA.AperFunction,ComponentPad*%
%ADD23R,2.500000X1.500000*%
%TD*%
%TA.AperFunction,ComponentPad*%
%ADD24O,2.500000X1.500000*%
%TD*%
%TA.AperFunction,ComponentPad*%
%ADD25RoundRect,0.250000X-0.950000X-0.550000X0.950000X-0.550000X0.950000X0.550000X-0.950000X0.550000X0*%
%TD*%
%TA.AperFunction,ComponentPad*%
%ADD26RoundRect,0.250001X-1.149999X-1.149999X1.149999X-1.149999X1.149999X1.149999X-1.149999X1.149999X0*%
%TD*%
%TA.AperFunction,ComponentPad*%
%ADD27C,2.800000*%
%TD*%
G04 APERTURE END LIST*
D10*
%TO.P,D4,1,K*%
%TO.N,Net-(D4-K)*%
X187600000Y-118750000D03*
D11*
%TO.P,D4,2,A*%
%TO.N,GND*%
X174900000Y-118750000D03*
%TD*%
D12*
%TO.P,R4,2*%
%TO.N,GND*%
X153235000Y-90830000D03*
%TO.P,R4,1*%
%TO.N,Net-(D5-K)*%
X153235000Y-80670000D03*
%TD*%
D13*
%TO.P,L1,2,2*%
%TO.N,+5V*%
X197500000Y-118750000D03*
%TO.P,L1,1,1*%
%TO.N,Net-(D4-K)*%
X194500000Y-118750000D03*
%TD*%
D14*
%TO.P,U5,1,CA*%
%TO.N,+5V*%
X175670000Y-102460000D03*
D12*
%TO.P,U5,2,F*%
%TO.N,Net-(U5-F)*%
X175670000Y-105000000D03*
%TO.P,U5,3,G*%
%TO.N,Net-(U5-G)*%
X175670000Y-107540000D03*
%TO.P,U5,4,E*%
%TO.N,Net-(U5-E)*%
X175670000Y-110080000D03*
%TO.P,U5,5,D*%
%TO.N,Net-(U5-D)*%
X175670000Y-112620000D03*
%TO.P,U5,6,CA*%
%TO.N,+5V*%
X180750000Y-112620000D03*
%TO.P,U5,7,DP*%
%TO.N,unconnected-(U5-DP-Pad7)*%
X180750000Y-110080000D03*
%TO.P,U5,8,C*%
%TO.N,Net-(U5-C)*%
X180750000Y-107540000D03*
%TO.P,U5,9,B*%
%TO.N,Net-(U5-B)*%
X180750000Y-105000000D03*
%TO.P,U5,10,A*%
%TO.N,Net-(U5-A)*%
X180750000Y-102460000D03*
%TD*%
D15*
%TO.P,D1,1,K*%
%TO.N,Net-(D1-K)*%
X123000000Y-78540000D03*
D16*
%TO.P,D1,2,A*%
%TO.N,Q0*%
X123000000Y-76000000D03*
%TD*%
D17*
%TO.P,U0,1,GND*%
%TO.N,GND*%
X102805000Y-102540000D03*
D12*
%TO.P,U0,2,TR*%
%TO.N,Net-(U0-THR)*%
X102805000Y-100000000D03*
%TO.P,U0,3,Q*%
%TO.N,555*%
X102805000Y-97460000D03*
%TO.P,U0,4,R*%
%TO.N,+5V*%
X102805000Y-94920000D03*
%TO.P,U0,5,CV*%
%TO.N,unconnected-(U0-CV-Pad5)*%
X95185000Y-94920000D03*
%TO.P,U0,6,THR*%
%TO.N,Net-(U0-THR)*%
X95185000Y-97460000D03*
%TO.P,U0,7,DIS*%
%TO.N,Net-(U0-DIS)*%
X95185000Y-100000000D03*
%TO.P,U0,8,VCC*%
%TO.N,+5V*%
X95185000Y-102540000D03*
%TD*%
D18*
%TO.P,SW1,1,1*%
%TO.N,GND*%
X130750000Y-124250000D03*
X137250000Y-124250000D03*
%TO.P,SW1,2,2*%
%TO.N,Net-(R13-Pad1)*%
X130750000Y-128750000D03*
X137250000Y-128750000D03*
%TD*%
D19*
%TO.P,U3,1,Q*%
%TO.N,Q2*%
X145060000Y-113390000D03*
D20*
%TO.P,U3,2,~{Q}*%
%TO.N,unconnected-(U3A-~{Q}-Pad2)*%
X145060000Y-110850000D03*
%TO.P,U3,3,C*%
%TO.N,Q1*%
X145060000Y-108310000D03*
%TO.P,U3,4,R*%
%TO.N,Reset*%
X145060000Y-105770000D03*
%TO.P,U3,5,K*%
%TO.N,Net-(U3A-J)*%
X145060000Y-103230000D03*
%TO.P,U3,6,J*%
X145060000Y-100690000D03*
%TO.P,U3,7,S*%
%TO.N,GND*%
X145060000Y-98150000D03*
%TO.P,U3,8,VSS*%
X145060000Y-95610000D03*
%TO.P,U3,9,S*%
X137440000Y-95610000D03*
%TO.P,U3,10,J*%
%TO.N,Net-(U3B-J)*%
X137440000Y-98150000D03*
%TO.P,U3,11,K*%
X137440000Y-100690000D03*
%TO.P,U3,12,R*%
%TO.N,Reset*%
X137440000Y-103230000D03*
%TO.P,U3,13,C*%
%TO.N,Q2*%
X137440000Y-105770000D03*
%TO.P,U3,14,~{Q}*%
%TO.N,unconnected-(U3B-~{Q}-Pad14)*%
X137440000Y-108310000D03*
%TO.P,U3,15,Q*%
%TO.N,Q3*%
X137440000Y-110850000D03*
%TO.P,U3,16,VDD*%
%TO.N,+5V*%
X137440000Y-113390000D03*
%TD*%
D12*
%TO.P,R1,1*%
%TO.N,Net-(D1-K)*%
X134170000Y-78500000D03*
%TO.P,R1,2*%
%TO.N,GND*%
X144330000Y-78500000D03*
%TD*%
D21*
%TO.P,C1,1*%
%TO.N,VD*%
X188000000Y-90750000D03*
D12*
%TO.P,C1,2*%
%TO.N,GND*%
X190000000Y-90750000D03*
%TD*%
D22*
%TO.P,SW2,*%
%TO.N,*%
X116500000Y-104600000D03*
X116500000Y-96400000D03*
D23*
%TO.P,SW2,1,A*%
%TO.N,Net-(SW2-A)*%
X116500000Y-102500000D03*
D24*
%TO.P,SW2,2,B*%
%TO.N,Clock*%
X116500000Y-100500000D03*
%TO.P,SW2,3,C*%
%TO.N,555*%
X116500000Y-98500000D03*
%TD*%
D12*
%TO.P,R2,1*%
%TO.N,Net-(D2-K)*%
X138170000Y-87460000D03*
%TO.P,R2,2*%
%TO.N,GND*%
X148330000Y-87460000D03*
%TD*%
D25*
%TO.P,U2,1,Q*%
%TO.N,Q0*%
X123130000Y-95670000D03*
D20*
%TO.P,U2,2,~{Q}*%
%TO.N,unconnected-(U2A-~{Q}-Pad2)*%
X123130000Y-98210000D03*
%TO.P,U2,3,C*%
%TO.N,Clock*%
X123130000Y-100750000D03*
%TO.P,U2,4,R*%
%TO.N,Reset*%
X123130000Y-103290000D03*
%TO.P,U2,5,K*%
%TO.N,Net-(U2A-J)*%
X123130000Y-105830000D03*
%TO.P,U2,6,J*%
X123130000Y-108370000D03*
%TO.P,U2,7,S*%
%TO.N,GND*%
X123130000Y-110910000D03*
%TO.P,U2,8,VSS*%
X123130000Y-113450000D03*
%TO.P,U2,9,S*%
X130750000Y-113450000D03*
%TO.P,U2,10,J*%
%TO.N,Net-(U2B-J)*%
X130750000Y-110910000D03*
%TO.P,U2,11,K*%
X130750000Y-108370000D03*
%TO.P,U2,12,R*%
%TO.N,Reset*%
X130750000Y-105830000D03*
%TO.P,U2,13,C*%
%TO.N,Q0*%
X130750000Y-103290000D03*
%TO.P,U2,14,~{Q}*%
%TO.N,unconnected-(U2B-~{Q}-Pad14)*%
X130750000Y-100750000D03*
%TO.P,U2,15,Q*%
%TO.N,Q1*%
X130750000Y-98210000D03*
%TO.P,U2,16,VDD*%
%TO.N,+5V*%
X130750000Y-95670000D03*
%TD*%
D15*
%TO.P,D2,1,K*%
%TO.N,Net-(D2-K)*%
X127000000Y-87500000D03*
D16*
%TO.P,D2,2,A*%
%TO.N,Q1*%
X127000000Y-84960000D03*
%TD*%
D26*
%TO.P,J1,1,Pin_1*%
%TO.N,GND*%
X176250000Y-90617500D03*
D27*
%TO.P,J1,2,Pin_2*%
%TO.N,VD*%
X181250000Y-90617500D03*
%TD*%
D21*
%TO.P,C2,1*%
%TO.N,+5V*%
X199250000Y-105250000D03*
D12*
%TO.P,C2,2*%
%TO.N,GND*%
X201250000Y-105250000D03*
%TD*%
D15*
%TO.P,D5,1,K*%
%TO.N,Net-(D5-K)*%
X161025000Y-86000000D03*
D16*
%TO.P,D5,2,A*%
%TO.N,Q3*%
X158485000Y-86000000D03*
%TD*%
D19*
%TO.P,U4,1,B*%
%TO.N,Q1*%
X158560000Y-113390000D03*
D20*
%TO.P,U4,2,C*%
%TO.N,Q2*%
X158560000Y-110850000D03*
%TO.P,U4,3,LT*%
%TO.N,Net-(U4-BI)*%
X158560000Y-108310000D03*
%TO.P,U4,4,BI*%
X158560000Y-105770000D03*
%TO.P,U4,5,RBI*%
X158560000Y-103230000D03*
%TO.P,U4,6,D*%
%TO.N,Q3*%
X158560000Y-100690000D03*
%TO.P,U4,7,A*%
%TO.N,Q0*%
X158560000Y-98150000D03*
%TO.P,U4,8,GND*%
%TO.N,GND*%
X158560000Y-95610000D03*
%TO.P,U4,9,e*%
%TO.N,Net-(U4-e)*%
X150940000Y-95610000D03*
%TO.P,U4,10,d*%
%TO.N,Net-(U4-d)*%
X150940000Y-98150000D03*
%TO.P,U4,11,c*%
%TO.N,Net-(U4-c)*%
X150940000Y-100690000D03*
%TO.P,U4,12,b*%
%TO.N,Net-(U4-b)*%
X150940000Y-103230000D03*
%TO.P,U4,13,a*%
%TO.N,Net-(U4-a)*%
X150940000Y-105770000D03*
%TO.P,U4,14,g*%
%TO.N,Net-(U4-g)*%
X150940000Y-108310000D03*
%TO.P,U4,15,f*%
%TO.N,Net-(U4-f)*%
X150940000Y-110850000D03*
%TO.P,U4,16,VCC*%
%TO.N,+5V*%
X150940000Y-113390000D03*
%TD*%
D15*
%TO.P,D3,1,K*%
%TO.N,Net-(D3-K)*%
X145000000Y-119250000D03*
D16*
%TO.P,D3,2,A*%
%TO.N,Q2*%
X145000000Y-121790000D03*
%TD*%
D12*
%TO.P,R3,1*%
%TO.N,Net-(D3-K)*%
X151670000Y-120525000D03*
%TO.P,R3,2*%
%TO.N,GND*%
X161830000Y-120525000D03*
%TD*%
D17*
%TO.P,U1,1,FB*%
%TO.N,+5V*%
X195370000Y-108790000D03*
D12*
%TO.P,U1,2,SGND*%
%TO.N,GND*%
X195370000Y-106250000D03*
%TO.P,U1,3,~{ON}/OFF*%
X195370000Y-103710000D03*
%TO.P,U1,4,PGND*%
X195370000Y-101170000D03*
%TO.P,U1,5,VIN*%
%TO.N,VD*%
X187750000Y-101170000D03*
%TO.P,U1,6,NC*%
%TO.N,unconnected-(U1-NC-Pad6)*%
X187750000Y-103710000D03*
%TO.P,U1,7,OUT*%
%TO.N,Net-(D4-K)*%
X187750000Y-106250000D03*
%TO.P,U1,8,NC*%
%TO.N,unconnected-(U1-NC-Pad8)*%
X187750000Y-108790000D03*
%TD*%
%TA.AperFunction,Conductor*%
%TO.N,GND*%
G36*
X123380000Y-113134314D02*
G01*
X123375606Y-113129920D01*
X123284394Y-113077259D01*
X123182661Y-113050000D01*
X123077339Y-113050000D01*
X122975606Y-113077259D01*
X122884394Y-113129920D01*
X122880000Y-113134314D01*
X122880000Y-111225686D01*
X122884394Y-111230080D01*
X122975606Y-111282741D01*
X123077339Y-111310000D01*
X123182661Y-111310000D01*
X123284394Y-111282741D01*
X123375606Y-111230080D01*
X123380000Y-111225686D01*
X123380000Y-113134314D01*
G37*
%TD.AperFunction*%
%TA.AperFunction,Conductor*%
G36*
X145310000Y-97834314D02*
G01*
X145305606Y-97829920D01*
X145214394Y-97777259D01*
X145112661Y-97750000D01*
X145007339Y-97750000D01*
X144905606Y-97777259D01*
X144814394Y-97829920D01*
X144810000Y-97834314D01*
X144810000Y-95925686D01*
X144814394Y-95930080D01*
X144905606Y-95982741D01*
X145007339Y-96010000D01*
X145112661Y-96010000D01*
X145214394Y-95982741D01*
X145305606Y-95930080D01*
X145310000Y-95925686D01*
X145310000Y-97834314D01*
G37*
%TD.AperFunction*%
%TA.AperFunction,Conductor*%
G36*
X203943039Y-62019685D02*
G01*
X203988794Y-62072489D01*
X204000000Y-62124000D01*
X204000000Y-137376000D01*
X203980315Y-137443039D01*
X203927511Y-137488794D01*
X203876000Y-137500000D01*
X107874000Y-137500000D01*
X107806961Y-137480315D01*
X107761206Y-137427511D01*
X107750000Y-137376000D01*
X107750000Y-131831491D01*
X110999500Y-131831491D01*
X110999500Y-132168508D01*
X111037231Y-132503381D01*
X111037233Y-132503397D01*
X111112223Y-132831953D01*
X111112227Y-132831965D01*
X111223532Y-133150054D01*
X111369752Y-133453683D01*
X111369754Y-133453686D01*
X111549054Y-133739039D01*
X111759175Y-134002523D01*
X111997477Y-134240825D01*
X112260961Y-134450946D01*
X112546314Y-134630246D01*
X112849949Y-134776469D01*
X113088848Y-134860063D01*
X113168034Y-134887772D01*
X113168046Y-134887776D01*
X113496606Y-134962767D01*
X113831492Y-135000499D01*
X113831493Y-135000500D01*
X113831496Y-135000500D01*
X114168507Y-135000500D01*
X114168507Y-135000499D01*
X114503394Y-134962767D01*
X114831954Y-134887776D01*
X115150051Y-134776469D01*
X115453686Y-134630246D01*
X115739039Y-134450946D01*
X116002523Y-134240825D01*
X116240825Y-134002523D01*
X116450946Y-133739039D01*
X116630246Y-133453686D01*
X116776469Y-133150051D01*
X116887776Y-132831954D01*
X116962767Y-132503394D01*
X117000500Y-132168504D01*
X117000500Y-131831496D01*
X117000499Y-131831491D01*
X194999500Y-131831491D01*
X194999500Y-132168508D01*
X195037231Y-132503381D01*
X195037233Y-132503397D01*
X195112223Y-132831953D01*
X195112227Y-132831965D01*
X195223532Y-133150054D01*
X195369752Y-133453683D01*
X195369754Y-133453686D01*
X195549054Y-133739039D01*
X195759175Y-134002523D01*
X195997477Y-134240825D01*
X196260961Y-134450946D01*
X196546314Y-134630246D01*
X196849949Y-134776469D01*
X197088848Y-134860063D01*
X197168034Y-134887772D01*
X197168046Y-134887776D01*
X197496606Y-134962767D01*
X197831492Y-135000499D01*
X197831493Y-135000500D01*
X197831496Y-135000500D01*
X198168507Y-135000500D01*
X198168507Y-135000499D01*
X198503394Y-134962767D01*
X198831954Y-134887776D01*
X199150051Y-134776469D01*
X199453686Y-134630246D01*
X199739039Y-134450946D01*
X200002523Y-134240825D01*
X200240825Y-134002523D01*
X200450946Y-133739039D01*
X200630246Y-133453686D01*
X200776469Y-133150051D01*
X200887776Y-132831954D01*
X200962767Y-132503394D01*
X201000500Y-132168504D01*
X201000500Y-131831496D01*
X200962767Y-131496606D01*
X200887776Y-131168046D01*
X200776469Y-130849949D01*
X200630246Y-130546314D01*
X200450946Y-130260961D01*
X200240825Y-129997477D01*
X200002523Y-129759175D01*
X199739039Y-129549054D01*
X199453686Y-129369754D01*
X199453683Y-129369752D01*
X199150054Y-129223532D01*
X198831965Y-129112227D01*
X198831953Y-129112223D01*
X198503397Y-129037233D01*
X198503381Y-129037231D01*
X198168508Y-128999500D01*
X198168504Y-128999500D01*
X197831496Y-128999500D01*
X197831491Y-128999500D01*
X197496618Y-129037231D01*
X197496602Y-129037233D01*
X197168046Y-129112223D01*
X197168034Y-129112227D01*
X196849945Y-129223532D01*
X196546316Y-129369752D01*
X196260962Y-129549053D01*
X195997477Y-129759174D01*
X195759174Y-129997477D01*
X195549053Y-130260962D01*
X195369752Y-130546316D01*
X195223532Y-130849945D01*
X195112227Y-131168034D01*
X195112223Y-131168046D01*
X195037233Y-131496602D01*
X195037231Y-131496618D01*
X194999500Y-131831491D01*
X117000499Y-131831491D01*
X116962767Y-131496606D01*
X116887776Y-131168046D01*
X116776469Y-130849949D01*
X116630246Y-130546314D01*
X116450946Y-130260961D01*
X116240825Y-129997477D01*
X116002523Y-129759175D01*
X115739039Y-129549054D01*
X115453686Y-129369754D01*
X115453683Y-129369752D01*
X115150054Y-129223532D01*
X114831965Y-129112227D01*
X114831953Y-129112223D01*
X114503397Y-129037233D01*
X114503381Y-129037231D01*
X114168508Y-128999500D01*
X114168504Y-128999500D01*
X113831496Y-128999500D01*
X113831491Y-128999500D01*
X113496618Y-129037231D01*
X113496602Y-129037233D01*
X113168046Y-129112223D01*
X113168034Y-129112227D01*
X112849945Y-129223532D01*
X112546316Y-129369752D01*
X112260962Y-129549053D01*
X111997477Y-129759174D01*
X111759174Y-129997477D01*
X111549053Y-130260962D01*
X111369752Y-130546316D01*
X111223532Y-130849945D01*
X111112227Y-131168034D01*
X111112223Y-131168046D01*
X111037233Y-131496602D01*
X111037231Y-131496618D01*
X110999500Y-131831491D01*
X107750000Y-131831491D01*
X107750000Y-128631902D01*
X129249500Y-128631902D01*
X129249500Y-128868097D01*
X129286446Y-129101368D01*
X129359433Y-129325996D01*
X129466657Y-129536433D01*
X129605483Y-129727510D01*
X129772490Y-129894517D01*
X129963567Y-130033343D01*
X130062991Y-130084002D01*
X130174003Y-130140566D01*
X130174005Y-130140566D01*
X130174008Y-130140568D01*
X130294412Y-130179689D01*
X130398631Y-130213553D01*
X130631903Y-130250500D01*
X130631908Y-130250500D01*
X130868097Y-130250500D01*
X131101368Y-130213553D01*
X131325992Y-130140568D01*
X131536433Y-130033343D01*
X131727510Y-129894517D01*
X131894517Y-129727510D01*
X132033343Y-129536433D01*
X132140568Y-129325992D01*
X132213553Y-129101368D01*
X132223711Y-129037231D01*
X132250500Y-128868097D01*
X132250500Y-128631902D01*
X135749500Y-128631902D01*
X135749500Y-128868097D01*
X135786446Y-129101368D01*
X135859433Y-129325996D01*
X135966657Y-129536433D01*
X136105483Y-129727510D01*
X136272490Y-129894517D01*
X136463567Y-130033343D01*
X136562991Y-130084002D01*
X136674003Y-130140566D01*
X136674005Y-130140566D01*
X136674008Y-130140568D01*
X136794412Y-130179689D01*
X136898631Y-130213553D01*
X137131903Y-130250500D01*
X137131908Y-130250500D01*
X137368097Y-130250500D01*
X137601368Y-130213553D01*
X137825992Y-130140568D01*
X138036433Y-130033343D01*
X138227510Y-129894517D01*
X138394517Y-129727510D01*
X138533343Y-129536433D01*
X138640568Y-129325992D01*
X138713553Y-129101368D01*
X138723711Y-129037231D01*
X138750500Y-128868097D01*
X138750500Y-128631902D01*
X138713553Y-128398631D01*
X138640566Y-128174003D01*
X138533342Y-127963566D01*
X138394517Y-127772490D01*
X138227510Y-127605483D01*
X138036433Y-127466657D01*
X137825996Y-127359433D01*
X137601368Y-127286446D01*
X137368097Y-127249500D01*
X137368092Y-127249500D01*
X137131908Y-127249500D01*
X137131903Y-127249500D01*
X136898631Y-127286446D01*
X136674003Y-127359433D01*
X136463566Y-127466657D01*
X136354550Y-127545862D01*
X136272490Y-127605483D01*
X136272488Y-127605485D01*
X136272487Y-127605485D01*
X136105485Y-127772487D01*
X136105485Y-127772488D01*
X136105483Y-127772490D01*
X136045862Y-127854550D01*
X135966657Y-127963566D01*
X135859433Y-128174003D01*
X135786446Y-128398631D01*
X135749500Y-128631902D01*
X132250500Y-128631902D01*
X132213553Y-128398631D01*
X132140566Y-128174003D01*
X132033342Y-127963566D01*
X131894517Y-127772490D01*
X131727510Y-127605483D01*
X131536433Y-127466657D01*
X131325996Y-127359433D01*
X131101368Y-127286446D01*
X130868097Y-127249500D01*
X130868092Y-127249500D01*
X130631908Y-127249500D01*
X130631903Y-127249500D01*
X130398631Y-127286446D01*
X130174003Y-127359433D01*
X129963566Y-127466657D01*
X129854550Y-127545862D01*
X129772490Y-127605483D01*
X129772488Y-127605485D01*
X129772487Y-127605485D01*
X129605485Y-127772487D01*
X129605485Y-127772488D01*
X129605483Y-127772490D01*
X129545862Y-127854550D01*
X129466657Y-127963566D01*
X129359433Y-128174003D01*
X129286446Y-128398631D01*
X129249500Y-128631902D01*
X107750000Y-128631902D01*
X107750000Y-124131947D01*
X129250000Y-124131947D01*
X129250000Y-124368052D01*
X129286934Y-124601247D01*
X129359897Y-124825802D01*
X129467087Y-125036174D01*
X129527338Y-125119104D01*
X129527340Y-125119105D01*
X130226212Y-124420233D01*
X130237482Y-124462292D01*
X130309890Y-124587708D01*
X130412292Y-124690110D01*
X130537708Y-124762518D01*
X130579765Y-124773787D01*
X129880893Y-125472658D01*
X129963828Y-125532914D01*
X130174197Y-125640102D01*
X130398752Y-125713065D01*
X130398751Y-125713065D01*
X130631948Y-125750000D01*
X130868052Y-125750000D01*
X131101247Y-125713065D01*
X131325802Y-125640102D01*
X131536163Y-125532918D01*
X131536169Y-125532914D01*
X131619104Y-125472658D01*
X131619105Y-125472658D01*
X130920233Y-124773787D01*
X130962292Y-124762518D01*
X131087708Y-124690110D01*
X131190110Y-124587708D01*
X131262518Y-124462292D01*
X131273787Y-124420234D01*
X131972658Y-125119105D01*
X131972658Y-125119104D01*
X132032914Y-125036169D01*
X132032918Y-125036163D01*
X132140102Y-124825802D01*
X132213065Y-124601247D01*
X132250000Y-124368052D01*
X132250000Y-124131947D01*
X135750000Y-124131947D01*
X135750000Y-124368052D01*
X135786934Y-124601247D01*
X135859897Y-124825802D01*
X135967087Y-125036174D01*
X136027338Y-125119104D01*
X136027340Y-125119105D01*
X136726212Y-124420233D01*
X136737482Y-124462292D01*
X136809890Y-124587708D01*
X136912292Y-124690110D01*
X137037708Y-124762518D01*
X137079765Y-124773787D01*
X136380893Y-125472658D01*
X136463828Y-125532914D01*
X136674197Y-125640102D01*
X136898752Y-125713065D01*
X136898751Y-125713065D01*
X137131948Y-125750000D01*
X137368052Y-125750000D01*
X137601247Y-125713065D01*
X137825802Y-125640102D01*
X138036163Y-125532918D01*
X138036169Y-125532914D01*
X138119104Y-125472658D01*
X138119105Y-125472658D01*
X137420233Y-124773787D01*
X137462292Y-124762518D01*
X137587708Y-124690110D01*
X137690110Y-124587708D01*
X137762518Y-124462292D01*
X137773787Y-124420234D01*
X138472658Y-125119105D01*
X138472658Y-125119104D01*
X138532914Y-125036169D01*
X138532918Y-125036163D01*
X138640102Y-124825802D01*
X138713065Y-124601247D01*
X138750000Y-124368052D01*
X138750000Y-124131947D01*
X138713065Y-123898752D01*
X138640102Y-123674197D01*
X138532914Y-123463828D01*
X138472658Y-123380894D01*
X138472658Y-123380893D01*
X137773787Y-124079765D01*
X137762518Y-124037708D01*
X137690110Y-123912292D01*
X137587708Y-123809890D01*
X137462292Y-123737482D01*
X137420234Y-123726212D01*
X138119105Y-123027340D01*
X138119104Y-123027338D01*
X138036174Y-122967087D01*
X137825802Y-122859897D01*
X137601247Y-122786934D01*
X137601248Y-122786934D01*
X137368052Y-122750000D01*
X137131948Y-122750000D01*
X136898752Y-122786934D01*
X136674197Y-122859897D01*
X136463830Y-122967084D01*
X136380894Y-123027340D01*
X137079766Y-123726212D01*
X137037708Y-123737482D01*
X136912292Y-123809890D01*
X136809890Y-123912292D01*
X136737482Y-124037708D01*
X136726212Y-124079766D01*
X136027340Y-123380894D01*
X135967084Y-123463830D01*
X135859897Y-123674197D01*
X135786934Y-123898752D01*
X135750000Y-124131947D01*
X132250000Y-124131947D01*
X132213065Y-123898752D01*
X132140102Y-123674197D01*
X132032914Y-123463828D01*
X131972658Y-123380894D01*
X131972658Y-123380893D01*
X131273787Y-124079765D01*
X131262518Y-124037708D01*
X131190110Y-123912292D01*
X131087708Y-123809890D01*
X130962292Y-123737482D01*
X130920234Y-123726212D01*
X131619105Y-123027340D01*
X131619104Y-123027339D01*
X131536174Y-122967087D01*
X131325802Y-122859897D01*
X131101247Y-122786934D01*
X131101248Y-122786934D01*
X130868052Y-122750000D01*
X130631948Y-122750000D01*
X130398752Y-122786934D01*
X130174197Y-122859897D01*
X129963830Y-122967084D01*
X129880894Y-123027340D01*
X130579766Y-123726212D01*
X130537708Y-123737482D01*
X130412292Y-123809890D01*
X130309890Y-123912292D01*
X130237482Y-124037708D01*
X130226212Y-124079766D01*
X129527340Y-123380894D01*
X129467084Y-123463830D01*
X129359897Y-123674197D01*
X129286934Y-123898752D01*
X129250000Y-124131947D01*
X107750000Y-124131947D01*
X107750000Y-118302135D01*
X143599500Y-118302135D01*
X143599500Y-120197870D01*
X143599501Y-120197876D01*
X143605908Y-120257483D01*
X143656202Y-120392328D01*
X143656206Y-120392335D01*
X143742452Y-120507544D01*
X143742455Y-120507547D01*
X143857664Y-120593793D01*
X143857671Y-120593797D01*
X143937580Y-120623601D01*
X143993514Y-120665472D01*
X144017931Y-120730936D01*
X144003080Y-120799209D01*
X143981929Y-120827463D01*
X143931756Y-120877636D01*
X143931752Y-120877641D01*
X143802187Y-121055974D01*
X143702104Y-121252393D01*
X143702103Y-121252396D01*
X143633985Y-121462047D01*
X143599500Y-121679778D01*
X143599500Y-121900221D01*
X143633985Y-122117952D01*
X143702103Y-122327603D01*
X143702104Y-122327606D01*
X143802187Y-122524025D01*
X143931752Y-122702358D01*
X143931756Y-122702363D01*
X144087636Y-122858243D01*
X144087641Y-122858247D01*
X144237444Y-122967084D01*
X144265978Y-122987815D01*
X144394375Y-123053237D01*
X144462393Y-123087895D01*
X144462396Y-123087896D01*
X144567221Y-123121955D01*
X144672049Y-123156015D01*
X144889778Y-123190500D01*
X144889779Y-123190500D01*
X145110221Y-123190500D01*
X145110222Y-123190500D01*
X145327951Y-123156015D01*
X145537606Y-123087895D01*
X145734022Y-122987815D01*
X145912365Y-122858242D01*
X146068242Y-122702365D01*
X146197815Y-122524022D01*
X146297895Y-122327606D01*
X146366015Y-122117951D01*
X146400500Y-121900222D01*
X146400500Y-121679778D01*
X146366015Y-121462049D01*
X146297895Y-121252394D01*
X146297895Y-121252393D01*
X146263237Y-121184375D01*
X146197815Y-121055978D01*
X146174604Y-121024031D01*
X146068247Y-120877641D01*
X146068243Y-120877636D01*
X146018071Y-120827464D01*
X145984586Y-120766141D01*
X145989570Y-120696449D01*
X146031442Y-120640516D01*
X146062420Y-120623601D01*
X146142326Y-120593798D01*
X146142326Y-120593797D01*
X146142331Y-120593796D01*
X146257546Y-120507546D01*
X146321101Y-120422648D01*
X150369500Y-120422648D01*
X150369500Y-120627351D01*
X150401522Y-120829534D01*
X150464781Y-121024223D01*
X150528691Y-121149653D01*
X150557585Y-121206359D01*
X150557715Y-121206613D01*
X150678028Y-121372213D01*
X150822786Y-121516971D01*
X150943226Y-121604474D01*
X150988390Y-121637287D01*
X151104607Y-121696503D01*
X151170776Y-121730218D01*
X151170778Y-121730218D01*
X151170781Y-121730220D01*
X151275137Y-121764127D01*
X151365465Y-121793477D01*
X151466557Y-121809488D01*
X151567648Y-121825500D01*
X151567649Y-121825500D01*
X151772351Y-121825500D01*
X151772352Y-121825500D01*
X151974534Y-121793477D01*
X152169219Y-121730220D01*
X152351610Y-121637287D01*
X152444590Y-121569732D01*
X152517213Y-121516971D01*
X152517215Y-121516968D01*
X152517219Y-121516966D01*
X152661966Y-121372219D01*
X152661968Y-121372215D01*
X152661971Y-121372213D01*
X152714732Y-121299590D01*
X152782287Y-121206610D01*
X152875220Y-121024219D01*
X152938477Y-120829534D01*
X152970500Y-120627352D01*
X152970500Y-120422682D01*
X160530000Y-120422682D01*
X160530000Y-120627317D01*
X160562009Y-120829417D01*
X160625244Y-121024031D01*
X160718141Y-121206350D01*
X160718147Y-121206359D01*
X160750523Y-121250921D01*
X160750524Y-121250922D01*
X161430000Y-120571446D01*
X161430000Y-120577661D01*
X161457259Y-120679394D01*
X161509920Y-120770606D01*
X161584394Y-120845080D01*
X161675606Y-120897741D01*
X161777339Y-120925000D01*
X161783553Y-120925000D01*
X161104076Y-121604474D01*
X161148650Y-121636859D01*
X161330968Y-121729755D01*
X161525582Y-121792990D01*
X161727683Y-121825000D01*
X161932317Y-121825000D01*
X162134417Y-121792990D01*
X162329031Y-121729755D01*
X162511349Y-121636859D01*
X162555921Y-121604474D01*
X161876447Y-120925000D01*
X161882661Y-120925000D01*
X161984394Y-120897741D01*
X162075606Y-120845080D01*
X162150080Y-120770606D01*
X162202741Y-120679394D01*
X162230000Y-120577661D01*
X162230000Y-120571448D01*
X162909474Y-121250922D01*
X162909474Y-121250921D01*
X162941859Y-121206349D01*
X163034755Y-121024031D01*
X163097990Y-120829417D01*
X163130000Y-120627317D01*
X163130000Y-120422682D01*
X163097990Y-120220582D01*
X163037790Y-120035310D01*
X163037789Y-120035307D01*
X163034756Y-120025971D01*
X162941859Y-119843650D01*
X162909474Y-119799077D01*
X162909474Y-119799076D01*
X162230000Y-120478551D01*
X162230000Y-120472339D01*
X162202741Y-120370606D01*
X162150080Y-120279394D01*
X162075606Y-120204920D01*
X161984394Y-120152259D01*
X161882661Y-120125000D01*
X161876446Y-120125000D01*
X162555922Y-119445524D01*
X162555921Y-119445523D01*
X162511359Y-119413147D01*
X162511350Y-119413141D01*
X162329031Y-119320244D01*
X162134417Y-119257009D01*
X161932317Y-119225000D01*
X161727683Y-119225000D01*
X161525582Y-119257009D01*
X161330968Y-119320244D01*
X161148644Y-119413143D01*
X161104077Y-119445523D01*
X161104077Y-119445524D01*
X161783554Y-120125000D01*
X161777339Y-120125000D01*
X161675606Y-120152259D01*
X161584394Y-120204920D01*
X161509920Y-120279394D01*
X161457259Y-120370606D01*
X161430000Y-120472339D01*
X161430000Y-120478553D01*
X160750524Y-119799077D01*
X160750523Y-119799077D01*
X160718143Y-119843644D01*
X160625244Y-120025968D01*
X160562009Y-120220582D01*
X160530000Y-120422682D01*
X152970500Y-120422682D01*
X152970500Y-120422648D01*
X152958994Y-120350000D01*
X152938477Y-120220465D01*
X152876994Y-120031242D01*
X152875220Y-120025781D01*
X152875218Y-120025778D01*
X152875218Y-120025776D01*
X152820981Y-119919332D01*
X152782287Y-119843390D01*
X152750092Y-119799077D01*
X152661971Y-119677786D01*
X152517213Y-119533028D01*
X152351613Y-119412715D01*
X152351612Y-119412714D01*
X152351610Y-119412713D01*
X152256367Y-119364184D01*
X152169223Y-119319781D01*
X151974534Y-119256522D01*
X151799995Y-119228878D01*
X151772352Y-119224500D01*
X151567648Y-119224500D01*
X151543329Y-119228351D01*
X151365465Y-119256522D01*
X151170776Y-119319781D01*
X150988386Y-119412715D01*
X150822786Y-119533028D01*
X150678028Y-119677786D01*
X150557715Y-119843386D01*
X150464781Y-120025776D01*
X150401522Y-120220465D01*
X150369500Y-120422648D01*
X146321101Y-120422648D01*
X146343796Y-120392331D01*
X146343798Y-120392326D01*
X146350468Y-120374444D01*
X146350468Y-120374443D01*
X146383898Y-120284812D01*
X146394091Y-120257483D01*
X146400500Y-120197873D01*
X146400499Y-118624071D01*
X173300000Y-118624071D01*
X173300000Y-118875928D01*
X173339397Y-119124669D01*
X173417219Y-119364184D01*
X173531557Y-119588583D01*
X173605748Y-119690697D01*
X173605748Y-119690698D01*
X174376212Y-118920234D01*
X174387482Y-118962292D01*
X174459890Y-119087708D01*
X174562292Y-119190110D01*
X174687708Y-119262518D01*
X174729765Y-119273787D01*
X173959300Y-120044250D01*
X174061416Y-120118442D01*
X174285815Y-120232780D01*
X174525330Y-120310602D01*
X174774072Y-120350000D01*
X175025928Y-120350000D01*
X175274669Y-120310602D01*
X175514184Y-120232780D01*
X175738575Y-120118446D01*
X175738581Y-120118442D01*
X175840697Y-120044250D01*
X175840698Y-120044250D01*
X175070234Y-119273787D01*
X175112292Y-119262518D01*
X175237708Y-119190110D01*
X175340110Y-119087708D01*
X175412518Y-118962292D01*
X175423787Y-118920235D01*
X176194250Y-119690698D01*
X176194250Y-119690697D01*
X176268442Y-119588581D01*
X176268446Y-119588575D01*
X176382780Y-119364184D01*
X176460602Y-119124669D01*
X176500000Y-118875928D01*
X176500000Y-118624071D01*
X176460602Y-118375330D01*
X176382780Y-118135815D01*
X176268442Y-117911416D01*
X176223807Y-117849982D01*
X185999500Y-117849982D01*
X185999500Y-119650017D01*
X186010000Y-119752796D01*
X186065185Y-119919332D01*
X186065186Y-119919335D01*
X186157288Y-120068656D01*
X186281344Y-120192712D01*
X186430665Y-120284814D01*
X186597202Y-120339999D01*
X186699990Y-120350500D01*
X186699995Y-120350500D01*
X188500005Y-120350500D01*
X188500010Y-120350500D01*
X188602798Y-120339999D01*
X188769335Y-120284814D01*
X188918656Y-120192712D01*
X189042712Y-120068656D01*
X189134814Y-119919335D01*
X189189999Y-119752798D01*
X189200500Y-119650010D01*
X189200500Y-118638549D01*
X192799500Y-118638549D01*
X192799500Y-118861450D01*
X192799501Y-118861466D01*
X192828594Y-119082452D01*
X192828595Y-119082457D01*
X192828596Y-119082463D01*
X192886290Y-119297780D01*
X192886293Y-119297790D01*
X192947487Y-119445524D01*
X192971595Y-119503726D01*
X193083052Y-119696774D01*
X193083057Y-119696780D01*
X193083058Y-119696782D01*
X193218751Y-119873622D01*
X193218757Y-119873629D01*
X193376370Y-120031242D01*
X193376377Y-120031248D01*
X193425130Y-120068657D01*
X193553226Y-120166948D01*
X193746274Y-120278405D01*
X193952219Y-120363710D01*
X194167537Y-120421404D01*
X194388543Y-120450500D01*
X194388550Y-120450500D01*
X194611450Y-120450500D01*
X194611457Y-120450500D01*
X194832463Y-120421404D01*
X195047781Y-120363710D01*
X195253726Y-120278405D01*
X195446774Y-120166948D01*
X195623624Y-120031247D01*
X195781247Y-119873624D01*
X195901624Y-119716745D01*
X195958052Y-119675542D01*
X196027798Y-119671387D01*
X196088718Y-119705599D01*
X196098376Y-119716745D01*
X196218751Y-119873622D01*
X196218757Y-119873629D01*
X196376370Y-120031242D01*
X196376377Y-120031248D01*
X196425130Y-120068657D01*
X196553226Y-120166948D01*
X196746274Y-120278405D01*
X196952219Y-120363710D01*
X197167537Y-120421404D01*
X197388543Y-120450500D01*
X197388550Y-120450500D01*
X197611450Y-120450500D01*
X197611457Y-120450500D01*
X197832463Y-120421404D01*
X198047781Y-120363710D01*
X198253726Y-120278405D01*
X198446774Y-120166948D01*
X198623624Y-120031247D01*
X198781247Y-119873624D01*
X198916948Y-119696774D01*
X199028405Y-119503726D01*
X199113710Y-119297781D01*
X199171404Y-119082463D01*
X199200500Y-118861457D01*
X199200500Y-118638543D01*
X199171404Y-118417537D01*
X199113710Y-118202219D01*
X199028405Y-117996274D01*
X198916948Y-117803226D01*
X198781247Y-117626376D01*
X198781242Y-117626370D01*
X198623629Y-117468757D01*
X198623622Y-117468751D01*
X198446782Y-117333058D01*
X198446780Y-117333057D01*
X198446774Y-117333052D01*
X198253726Y-117221595D01*
X198253722Y-117221593D01*
X198047790Y-117136293D01*
X198047783Y-117136291D01*
X198047781Y-117136290D01*
X197832463Y-117078596D01*
X197832457Y-117078595D01*
X197832452Y-117078594D01*
X197611466Y-117049501D01*
X197611463Y-117049500D01*
X197611457Y-117049500D01*
X197388543Y-117049500D01*
X197388537Y-117049500D01*
X197388533Y-117049501D01*
X197167547Y-117078594D01*
X197167540Y-117078595D01*
X197167537Y-117078596D01*
X196952219Y-117136290D01*
X196952209Y-117136293D01*
X196746277Y-117221593D01*
X196746273Y-117221595D01*
X196553226Y-117333052D01*
X196553217Y-117333058D01*
X196376377Y-117468751D01*
X196376370Y-117468757D01*
X196218757Y-117626370D01*
X196218751Y-117626377D01*
X196098376Y-117783254D01*
X196041948Y-117824457D01*
X195972202Y-117828612D01*
X195911282Y-117794400D01*
X195901624Y-117783254D01*
X195781248Y-117626377D01*
X195781242Y-117626370D01*
X195623629Y-117468757D01*
X195623622Y-117468751D01*
X195446782Y-117333058D01*
X195446780Y-117333057D01*
X195446774Y-117333052D01*
X195253726Y-117221595D01*
X195253722Y-117221593D01*
X195047790Y-117136293D01*
X195047783Y-117136291D01*
X195047781Y-117136290D01*
X194832463Y-117078596D01*
X194832457Y-117078595D01*
X194832452Y-117078594D01*
X194611466Y-117049501D01*
X194611463Y-117049500D01*
X194611457Y-117049500D01*
X194388543Y-117049500D01*
X194388537Y-117049500D01*
X194388533Y-117049501D01*
X194167547Y-117078594D01*
X194167540Y-117078595D01*
X194167537Y-117078596D01*
X193952219Y-117136290D01*
X193952209Y-117136293D01*
X193746277Y-117221593D01*
X193746273Y-117221595D01*
X193553226Y-117333052D01*
X193553217Y-117333058D01*
X193376377Y-117468751D01*
X193376370Y-117468757D01*
X193218757Y-117626370D01*
X193218751Y-117626377D01*
X193083058Y-117803217D01*
X193083052Y-117803226D01*
X192971595Y-117996273D01*
X192971593Y-117996277D01*
X192886293Y-118202209D01*
X192886290Y-118202219D01*
X192830002Y-118412292D01*
X192828597Y-118417534D01*
X192828594Y-118417547D01*
X192799501Y-118638533D01*
X192799500Y-118638549D01*
X189200500Y-118638549D01*
X189200500Y-117849990D01*
X189189999Y-117747202D01*
X189134814Y-117580665D01*
X189042712Y-117431344D01*
X188918656Y-117307288D01*
X188779726Y-117221595D01*
X188769337Y-117215187D01*
X188769332Y-117215185D01*
X188767863Y-117214698D01*
X188602798Y-117160001D01*
X188602796Y-117160000D01*
X188500017Y-117149500D01*
X188500010Y-117149500D01*
X186699990Y-117149500D01*
X186699982Y-117149500D01*
X186597203Y-117160000D01*
X186597202Y-117160001D01*
X186514669Y-117187349D01*
X186430667Y-117215185D01*
X186430662Y-117215187D01*
X186281342Y-117307289D01*
X186157289Y-117431342D01*
X186065187Y-117580662D01*
X186065185Y-117580667D01*
X186037349Y-117664669D01*
X186010001Y-117747202D01*
X186010001Y-117747203D01*
X186010000Y-117747203D01*
X185999500Y-117849982D01*
X176223807Y-117849982D01*
X176194250Y-117809301D01*
X176194250Y-117809300D01*
X175423787Y-118579764D01*
X175412518Y-118537708D01*
X175340110Y-118412292D01*
X175237708Y-118309890D01*
X175112292Y-118237482D01*
X175070232Y-118226212D01*
X175840698Y-117455748D01*
X175738583Y-117381557D01*
X175514184Y-117267219D01*
X175274669Y-117189397D01*
X175025928Y-117150000D01*
X174774072Y-117150000D01*
X174525330Y-117189397D01*
X174285815Y-117267219D01*
X174061413Y-117381559D01*
X173959301Y-117455747D01*
X173959300Y-117455748D01*
X174729765Y-118226212D01*
X174687708Y-118237482D01*
X174562292Y-118309890D01*
X174459890Y-118412292D01*
X174387482Y-118537708D01*
X174376212Y-118579765D01*
X173605748Y-117809300D01*
X173605747Y-117809301D01*
X173531559Y-117911413D01*
X173417219Y-118135815D01*
X173339397Y-118375330D01*
X173300000Y-118624071D01*
X146400499Y-118624071D01*
X146400499Y-118302128D01*
X146394091Y-118242517D01*
X146378233Y-118200000D01*
X146343797Y-118107671D01*
X146343793Y-118107664D01*
X146257547Y-117992455D01*
X146257544Y-117992452D01*
X146142335Y-117906206D01*
X146142328Y-117906202D01*
X146007482Y-117855908D01*
X146007483Y-117855908D01*
X145947883Y-117849501D01*
X145947881Y-117849500D01*
X145947873Y-117849500D01*
X145947864Y-117849500D01*
X144052129Y-117849500D01*
X144052123Y-117849501D01*
X143992516Y-117855908D01*
X143857671Y-117906202D01*
X143857664Y-117906206D01*
X143742455Y-117992452D01*
X143742452Y-117992455D01*
X143656206Y-118107664D01*
X143656202Y-118107671D01*
X143605908Y-118242517D01*
X143599501Y-118302116D01*
X143599501Y-118302123D01*
X143599500Y-118302135D01*
X107750000Y-118302135D01*
X107750000Y-96274038D01*
X114249500Y-96274038D01*
X114249500Y-96525962D01*
X114251618Y-96539334D01*
X114288910Y-96774785D01*
X114366760Y-97014383D01*
X114439952Y-97158028D01*
X114470526Y-97218034D01*
X114481132Y-97238848D01*
X114629201Y-97442649D01*
X114629205Y-97442654D01*
X114807349Y-97620798D01*
X114894752Y-97684299D01*
X114937418Y-97739628D01*
X114943397Y-97809242D01*
X114932352Y-97840911D01*
X114841118Y-98019967D01*
X114780290Y-98207173D01*
X114749500Y-98401577D01*
X114749500Y-98598422D01*
X114780290Y-98792826D01*
X114841117Y-98980029D01*
X114923631Y-99141971D01*
X114930476Y-99155405D01*
X115046172Y-99314646D01*
X115046174Y-99314648D01*
X115143845Y-99412319D01*
X115177330Y-99473642D01*
X115172346Y-99543334D01*
X115143845Y-99587681D01*
X115046174Y-99685351D01*
X115046174Y-99685352D01*
X115046172Y-99685354D01*
X114996485Y-99753741D01*
X114930476Y-99844594D01*
X114841117Y-100019970D01*
X114780290Y-100207173D01*
X114749500Y-100401577D01*
X114749500Y-100598422D01*
X114780290Y-100792826D01*
X114841117Y-100980029D01*
X114930472Y-101155397D01*
X114930476Y-101155405D01*
X114956781Y-101191611D01*
X114956783Y-101191613D01*
X114980263Y-101257419D01*
X114964438Y-101325473D01*
X114930777Y-101363765D01*
X114892452Y-101392455D01*
X114806206Y-101507664D01*
X114806202Y-101507671D01*
X114755908Y-101642517D01*
X114751667Y-101681971D01*
X114749501Y-101702123D01*
X114749500Y-101702135D01*
X114749500Y-103297870D01*
X114749501Y-103297876D01*
X114756669Y-103364555D01*
X114744262Y-103433314D01*
X114721061Y-103465488D01*
X114629205Y-103557345D01*
X114629201Y-103557350D01*
X114481132Y-103761151D01*
X114366760Y-103985616D01*
X114288910Y-104225214D01*
X114287939Y-104231344D01*
X114249500Y-104474038D01*
X114249500Y-104725962D01*
X114264689Y-104821859D01*
X114288910Y-104974785D01*
X114366760Y-105214383D01*
X114430304Y-105339094D01*
X114463576Y-105404394D01*
X114481132Y-105438848D01*
X114629201Y-105642649D01*
X114629205Y-105642654D01*
X114807345Y-105820794D01*
X114807350Y-105820798D01*
X114957545Y-105929920D01*
X115011155Y-105968870D01*
X115154184Y-106041747D01*
X115235616Y-106083239D01*
X115235618Y-106083239D01*
X115235621Y-106083241D01*
X115475215Y-106161090D01*
X115724038Y-106200500D01*
X115724039Y-106200500D01*
X117275961Y-106200500D01*
X117275962Y-106200500D01*
X117524785Y-106161090D01*
X117764379Y-106083241D01*
X117988845Y-105968870D01*
X118192656Y-105820793D01*
X118370793Y-105642656D01*
X118518870Y-105438845D01*
X118633241Y-105214379D01*
X118711090Y-104974785D01*
X118750500Y-104725962D01*
X118750500Y-104474038D01*
X118711090Y-104225215D01*
X118633241Y-103985621D01*
X118633239Y-103985618D01*
X118633239Y-103985616D01*
X118571473Y-103864394D01*
X118518870Y-103761155D01*
X118450819Y-103667490D01*
X118370798Y-103557350D01*
X118370794Y-103557345D01*
X118278939Y-103465490D01*
X118245454Y-103404167D01*
X118243331Y-103364554D01*
X118246793Y-103332351D01*
X118250500Y-103297873D01*
X118250499Y-101702128D01*
X118244091Y-101642517D01*
X118233000Y-101612781D01*
X118193797Y-101507671D01*
X118193793Y-101507664D01*
X118107548Y-101392456D01*
X118107546Y-101392455D01*
X118107546Y-101392454D01*
X118069220Y-101363763D01*
X118027351Y-101307829D01*
X118022368Y-101238137D01*
X118043214Y-101191616D01*
X118069524Y-101155405D01*
X118158884Y-100980025D01*
X118219709Y-100792826D01*
X118223324Y-100770000D01*
X118250500Y-100598422D01*
X118250500Y-100401577D01*
X118219709Y-100207173D01*
X118181807Y-100090524D01*
X118158884Y-100019975D01*
X118158882Y-100019972D01*
X118158882Y-100019970D01*
X118111743Y-99927455D01*
X118069524Y-99844595D01*
X117953828Y-99685354D01*
X117856155Y-99587681D01*
X117822670Y-99526358D01*
X117827654Y-99456666D01*
X117856155Y-99412319D01*
X117898959Y-99369515D01*
X117953828Y-99314646D01*
X118069524Y-99155405D01*
X118158884Y-98980025D01*
X118219709Y-98792826D01*
X118250500Y-98598422D01*
X118250500Y-98401577D01*
X118219709Y-98207173D01*
X118191487Y-98120317D01*
X118158884Y-98019975D01*
X118158882Y-98019972D01*
X118158882Y-98019970D01*
X118070029Y-97845586D01*
X118069524Y-97844595D01*
X118069522Y-97844593D01*
X118067647Y-97840912D01*
X118054751Y-97772243D01*
X118081027Y-97707502D01*
X118105248Y-97684298D01*
X118192652Y-97620796D01*
X118192652Y-97620795D01*
X118192656Y-97620793D01*
X118370793Y-97442656D01*
X118518870Y-97238845D01*
X118633241Y-97014379D01*
X118711090Y-96774785D01*
X118750500Y-96525962D01*
X118750500Y-96274038D01*
X118711090Y-96025215D01*
X118633241Y-95785621D01*
X118633239Y-95785618D01*
X118633239Y-95785616D01*
X118570590Y-95662661D01*
X118518870Y-95561155D01*
X118479995Y-95507648D01*
X118370798Y-95357350D01*
X118370794Y-95357345D01*
X118192654Y-95179205D01*
X118192649Y-95179201D01*
X118176065Y-95167152D01*
X118042322Y-95069983D01*
X121429500Y-95069983D01*
X121429500Y-96270001D01*
X121429501Y-96270018D01*
X121440000Y-96372796D01*
X121440001Y-96372799D01*
X121487856Y-96517213D01*
X121495186Y-96539334D01*
X121587288Y-96688656D01*
X121711344Y-96812712D01*
X121860666Y-96904814D01*
X121942570Y-96931954D01*
X122000015Y-96971727D01*
X122026838Y-97036243D01*
X122014523Y-97105018D01*
X121976451Y-97149978D01*
X121882787Y-97218028D01*
X121882782Y-97218032D01*
X121738028Y-97362786D01*
X121617715Y-97528386D01*
X121524781Y-97710776D01*
X121461522Y-97905465D01*
X121429500Y-98107648D01*
X121429500Y-98312351D01*
X121461522Y-98514534D01*
X121524781Y-98709223D01*
X121617715Y-98891613D01*
X121738028Y-99057213D01*
X121882786Y-99201971D01*
X121965806Y-99262287D01*
X122048390Y-99322287D01*
X122117480Y-99357490D01*
X122141080Y-99369515D01*
X122191876Y-99417490D01*
X122208671Y-99485311D01*
X122186134Y-99551446D01*
X122141080Y-99590485D01*
X122048386Y-99637715D01*
X121882786Y-99758028D01*
X121738028Y-99902786D01*
X121617715Y-100068386D01*
X121524781Y-100250776D01*
X121461522Y-100445465D01*
X121429500Y-100647648D01*
X121429500Y-100852352D01*
X121433878Y-100879995D01*
X121461522Y-101054534D01*
X121524781Y-101249223D01*
X121563633Y-101325473D01*
X121610607Y-101417664D01*
X121617715Y-101431613D01*
X121738028Y-101597213D01*
X121882786Y-101741971D01*
X121965806Y-101802287D01*
X122048390Y-101862287D01*
X122117480Y-101897490D01*
X122141080Y-101909515D01*
X122191876Y-101957490D01*
X122208671Y-102025311D01*
X122186134Y-102091446D01*
X122141080Y-102130485D01*
X122048386Y-102177715D01*
X121882786Y-102298028D01*
X121738028Y-102442786D01*
X121617715Y-102608386D01*
X121524781Y-102790776D01*
X121461522Y-102985465D01*
X121439003Y-103127648D01*
X121429500Y-103187648D01*
X121429500Y-103392352D01*
X121432417Y-103410768D01*
X121461522Y-103594534D01*
X121524781Y-103789223D01*
X121574965Y-103887713D01*
X121611797Y-103960000D01*
X121617715Y-103971613D01*
X121738028Y-104137213D01*
X121882786Y-104281971D01*
X121965806Y-104342287D01*
X122048390Y-104402287D01*
X122117480Y-104437490D01*
X122141080Y-104449515D01*
X122191876Y-104497490D01*
X122208671Y-104565311D01*
X122186134Y-104631446D01*
X122141080Y-104670485D01*
X122048386Y-104717715D01*
X121882786Y-104838028D01*
X121738028Y-104982786D01*
X121617715Y-105148386D01*
X121524781Y-105330776D01*
X121461522Y-105525465D01*
X121441798Y-105650000D01*
X121429500Y-105727648D01*
X121429500Y-105932352D01*
X121432738Y-105952796D01*
X121461522Y-106134534D01*
X121524781Y-106329223D01*
X121617715Y-106511613D01*
X121738028Y-106677213D01*
X121882786Y-106821971D01*
X121965806Y-106882287D01*
X122048390Y-106942287D01*
X122117480Y-106977490D01*
X122141080Y-106989515D01*
X122191876Y-107037490D01*
X122208671Y-107105311D01*
X122186134Y-107171446D01*
X122141080Y-107210485D01*
X122048386Y-107257715D01*
X121882786Y-107378028D01*
X121738028Y-107522786D01*
X121617715Y-107688386D01*
X121524781Y-107870776D01*
X121461522Y-108065465D01*
X121429500Y-108267648D01*
X121429500Y-108472351D01*
X121461522Y-108674534D01*
X121524781Y-108869223D01*
X121617715Y-109051613D01*
X121738028Y-109217213D01*
X121882786Y-109361971D01*
X121965806Y-109422287D01*
X122048390Y-109482287D01*
X122099944Y-109508555D01*
X122141629Y-109529795D01*
X122192425Y-109577770D01*
X122209220Y-109645591D01*
X122186682Y-109711726D01*
X122141629Y-109750765D01*
X122048650Y-109798140D01*
X121883105Y-109918417D01*
X121883104Y-109918417D01*
X121738417Y-110063104D01*
X121738417Y-110063105D01*
X121618140Y-110228650D01*
X121525244Y-110410970D01*
X121462009Y-110605586D01*
X121453391Y-110660000D01*
X122814314Y-110660000D01*
X122809920Y-110664394D01*
X122757259Y-110755606D01*
X122730000Y-110857339D01*
X122730000Y-110962661D01*
X122757259Y-111064394D01*
X122809920Y-111155606D01*
X122814314Y-111160000D01*
X121453391Y-111160000D01*
X121462009Y-111214413D01*
X121525244Y-111409029D01*
X121618140Y-111591349D01*
X121738417Y-111756894D01*
X121738417Y-111756895D01*
X121883104Y-111901582D01*
X122048650Y-112021859D01*
X122142179Y-112069515D01*
X122192975Y-112117490D01*
X122209770Y-112185311D01*
X122187232Y-112251446D01*
X122142179Y-112290485D01*
X122048650Y-112338140D01*
X121883105Y-112458417D01*
X121883104Y-112458417D01*
X121738417Y-112603104D01*
X121738417Y-112603105D01*
X121618140Y-112768650D01*
X121525244Y-112950970D01*
X121462009Y-113145586D01*
X121453391Y-113200000D01*
X122814314Y-113200000D01*
X122809920Y-113204394D01*
X122757259Y-113295606D01*
X122730000Y-113397339D01*
X122730000Y-113502661D01*
X122757259Y-113604394D01*
X122809920Y-113695606D01*
X122814314Y-113700000D01*
X121453391Y-113700000D01*
X121462009Y-113754413D01*
X121525244Y-113949029D01*
X121618140Y-114131349D01*
X121738417Y-114296894D01*
X121738417Y-114296895D01*
X121883104Y-114441582D01*
X122048650Y-114561859D01*
X122230968Y-114654755D01*
X122425582Y-114717990D01*
X122627683Y-114750000D01*
X122880000Y-114750000D01*
X122880000Y-113765686D01*
X122884394Y-113770080D01*
X122975606Y-113822741D01*
X123077339Y-113850000D01*
X123182661Y-113850000D01*
X123284394Y-113822741D01*
X123375606Y-113770080D01*
X123380000Y-113765686D01*
X123380000Y-114750000D01*
X123632317Y-114750000D01*
X123834417Y-114717990D01*
X124029031Y-114654755D01*
X124211349Y-114561859D01*
X124376894Y-114441582D01*
X124376895Y-114441582D01*
X124521582Y-114296895D01*
X124521582Y-114296894D01*
X124641859Y-114131349D01*
X124734755Y-113949029D01*
X124797990Y-113754413D01*
X124806609Y-113700000D01*
X123445686Y-113700000D01*
X123450080Y-113695606D01*
X123502741Y-113604394D01*
X123530000Y-113502661D01*
X123530000Y-113397339D01*
X123502741Y-113295606D01*
X123450080Y-113204394D01*
X123445686Y-113200000D01*
X124806609Y-113200000D01*
X124797990Y-113145586D01*
X124734755Y-112950970D01*
X124641859Y-112768650D01*
X124521582Y-112603105D01*
X124521582Y-112603104D01*
X124376895Y-112458417D01*
X124211349Y-112338140D01*
X124117820Y-112290485D01*
X124067024Y-112242511D01*
X124050229Y-112174690D01*
X124072766Y-112108555D01*
X124117820Y-112069515D01*
X124211349Y-112021859D01*
X124376894Y-111901582D01*
X124376895Y-111901582D01*
X124521582Y-111756895D01*
X124521582Y-111756894D01*
X124641859Y-111591349D01*
X124734755Y-111409029D01*
X124797990Y-111214413D01*
X124806609Y-111160000D01*
X123445686Y-111160000D01*
X123450080Y-111155606D01*
X123502741Y-111064394D01*
X123530000Y-110962661D01*
X123530000Y-110857339D01*
X123502741Y-110755606D01*
X123450080Y-110664394D01*
X123445686Y-110660000D01*
X124806609Y-110660000D01*
X124797990Y-110605586D01*
X124734755Y-110410970D01*
X124641859Y-110228650D01*
X124521582Y-110063105D01*
X124521582Y-110063104D01*
X124376895Y-109918417D01*
X124211349Y-109798140D01*
X124118370Y-109750765D01*
X124067574Y-109702790D01*
X124050779Y-109634969D01*
X124073316Y-109568835D01*
X124118370Y-109529795D01*
X124146975Y-109515220D01*
X124211610Y-109482287D01*
X124294198Y-109422284D01*
X124377213Y-109361971D01*
X124377215Y-109361968D01*
X124377219Y-109361966D01*
X124521966Y-109217219D01*
X124521968Y-109217215D01*
X124521971Y-109217213D01*
X124611101Y-109094534D01*
X124642287Y-109051610D01*
X124735220Y-108869219D01*
X124798477Y-108674534D01*
X124830500Y-108472352D01*
X124830500Y-108267648D01*
X124801920Y-108087203D01*
X124798477Y-108065465D01*
X124751429Y-107920668D01*
X124735220Y-107870781D01*
X124735218Y-107870778D01*
X124735218Y-107870776D01*
X124684553Y-107771342D01*
X124642287Y-107688390D01*
X124567011Y-107584780D01*
X124521971Y-107522786D01*
X124377213Y-107378028D01*
X124211614Y-107257715D01*
X124205006Y-107254348D01*
X124118917Y-107210483D01*
X124068123Y-107162511D01*
X124051328Y-107094690D01*
X124073865Y-107028555D01*
X124118917Y-106989516D01*
X124211610Y-106942287D01*
X124294198Y-106882284D01*
X124377213Y-106821971D01*
X124377215Y-106821968D01*
X124377219Y-106821966D01*
X124521966Y-106677219D01*
X124521968Y-106677215D01*
X124521971Y-106677213D01*
X124614032Y-106550500D01*
X124642287Y-106511610D01*
X124735220Y-106329219D01*
X124798477Y-106134534D01*
X124830500Y-105932352D01*
X124830500Y-105727648D01*
X124805275Y-105568386D01*
X124798477Y-105525465D01*
X124735218Y-105330776D01*
X124675910Y-105214379D01*
X124642287Y-105148390D01*
X124608838Y-105102351D01*
X124521971Y-104982786D01*
X124377213Y-104838028D01*
X124211614Y-104717715D01*
X124205006Y-104714348D01*
X124118917Y-104670483D01*
X124068123Y-104622511D01*
X124051328Y-104554690D01*
X124073865Y-104488555D01*
X124118917Y-104449516D01*
X124211610Y-104402287D01*
X124294198Y-104342284D01*
X124377213Y-104281971D01*
X124377215Y-104281968D01*
X124377219Y-104281966D01*
X124521966Y-104137219D01*
X124521968Y-104137215D01*
X124521971Y-104137213D01*
X124599806Y-104030080D01*
X124642287Y-103971610D01*
X124735220Y-103789219D01*
X124798477Y-103594534D01*
X124830500Y-103392352D01*
X124830500Y-103187648D01*
X124798477Y-102985466D01*
X124798025Y-102984076D01*
X124735218Y-102790776D01*
X124698150Y-102718028D01*
X124642287Y-102608390D01*
X124571854Y-102511446D01*
X124521971Y-102442786D01*
X124377213Y-102298028D01*
X124211614Y-102177715D01*
X124205006Y-102174348D01*
X124118917Y-102130483D01*
X124068123Y-102082511D01*
X124051328Y-102014690D01*
X124073865Y-101948555D01*
X124118917Y-101909516D01*
X124211610Y-101862287D01*
X124294198Y-101802284D01*
X124377213Y-101741971D01*
X124377215Y-101741968D01*
X124377219Y-101741966D01*
X124521966Y-101597219D01*
X124521968Y-101597215D01*
X124521971Y-101597213D01*
X124611186Y-101474417D01*
X124642287Y-101431610D01*
X124735220Y-101249219D01*
X124798477Y-101054534D01*
X124830500Y-100852352D01*
X124830500Y-100647648D01*
X124798477Y-100445466D01*
X124798025Y-100444076D01*
X124735218Y-100250776D01*
X124698150Y-100178028D01*
X124642287Y-100068390D01*
X124567348Y-99965244D01*
X124521971Y-99902786D01*
X124377213Y-99758028D01*
X124211614Y-99637715D01*
X124205006Y-99634348D01*
X124118917Y-99590483D01*
X124068123Y-99542511D01*
X124051328Y-99474690D01*
X124073865Y-99408555D01*
X124118917Y-99369516D01*
X124211610Y-99322287D01*
X124294780Y-99261861D01*
X124377213Y-99201971D01*
X124377215Y-99201968D01*
X124377219Y-99201966D01*
X124521966Y-99057219D01*
X124521968Y-99057215D01*
X124521971Y-99057213D01*
X124578050Y-98980025D01*
X124642287Y-98891610D01*
X124735220Y-98709219D01*
X124798477Y-98514534D01*
X124830500Y-98312352D01*
X124830500Y-98107648D01*
X124816613Y-98019970D01*
X124798477Y-97905465D01*
X124735218Y-97710776D01*
X124689369Y-97620793D01*
X124642287Y-97528390D01*
X124598692Y-97468386D01*
X124521971Y-97362786D01*
X124377219Y-97218034D01*
X124377211Y-97218028D01*
X124283547Y-97149978D01*
X124240882Y-97094649D01*
X124234903Y-97025036D01*
X124267508Y-96963240D01*
X124317426Y-96931955D01*
X124399334Y-96904814D01*
X124548656Y-96812712D01*
X124672712Y-96688656D01*
X124764814Y-96539334D01*
X124819999Y-96372797D01*
X124830500Y-96270009D01*
X124830499Y-95567648D01*
X129049500Y-95567648D01*
X129049500Y-95772351D01*
X129081522Y-95974534D01*
X129144781Y-96169223D01*
X129237715Y-96351613D01*
X129358028Y-96517213D01*
X129502786Y-96661971D01*
X129585806Y-96722287D01*
X129668390Y-96782287D01*
X129737480Y-96817490D01*
X129761080Y-96829515D01*
X129811876Y-96877490D01*
X129828671Y-96945311D01*
X129806134Y-97011446D01*
X129761080Y-97050485D01*
X129668386Y-97097715D01*
X129502786Y-97218028D01*
X129358028Y-97362786D01*
X129237715Y-97528386D01*
X129144781Y-97710776D01*
X129081522Y-97905465D01*
X129049500Y-98107648D01*
X129049500Y-98312351D01*
X129081522Y-98514534D01*
X129144781Y-98709223D01*
X129237715Y-98891613D01*
X129358028Y-99057213D01*
X129502786Y-99201971D01*
X129585806Y-99262287D01*
X129668390Y-99322287D01*
X129737480Y-99357490D01*
X129761080Y-99369515D01*
X129811876Y-99417490D01*
X129828671Y-99485311D01*
X129806134Y-99551446D01*
X129761080Y-99590485D01*
X129668386Y-99637715D01*
X129502786Y-99758028D01*
X129358028Y-99902786D01*
X129237715Y-100068386D01*
X129144781Y-100250776D01*
X129081522Y-100445465D01*
X129049500Y-100647648D01*
X129049500Y-100852352D01*
X129053878Y-100879995D01*
X129081522Y-101054534D01*
X129144781Y-101249223D01*
X129183633Y-101325473D01*
X129230607Y-101417664D01*
X129237715Y-101431613D01*
X129358028Y-101597213D01*
X129502786Y-101741971D01*
X129585806Y-101802287D01*
X129668390Y-101862287D01*
X129737480Y-101897490D01*
X129761080Y-101909515D01*
X129811876Y-101957490D01*
X129828671Y-102025311D01*
X129806134Y-102091446D01*
X129761080Y-102130485D01*
X129668386Y-102177715D01*
X129502786Y-102298028D01*
X129358028Y-102442786D01*
X129237715Y-102608386D01*
X129144781Y-102790776D01*
X129081522Y-102985465D01*
X129059003Y-103127648D01*
X129049500Y-103187648D01*
X129049500Y-103392352D01*
X129052417Y-103410768D01*
X129081522Y-103594534D01*
X129144781Y-103789223D01*
X129194965Y-103887713D01*
X129231797Y-103960000D01*
X129237715Y-103971613D01*
X129358028Y-104137213D01*
X129502786Y-104281971D01*
X129585806Y-104342287D01*
X129668390Y-104402287D01*
X129737480Y-104437490D01*
X129761080Y-104449515D01*
X129811876Y-104497490D01*
X129828671Y-104565311D01*
X129806134Y-104631446D01*
X129761080Y-104670485D01*
X129668386Y-104717715D01*
X129502786Y-104838028D01*
X129358028Y-104982786D01*
X129237715Y-105148386D01*
X129144781Y-105330776D01*
X129081522Y-105525465D01*
X129061798Y-105650000D01*
X129049500Y-105727648D01*
X129049500Y-105932352D01*
X129052738Y-105952796D01*
X129081522Y-106134534D01*
X129144781Y-106329223D01*
X129237715Y-106511613D01*
X129358028Y-106677213D01*
X129502786Y-106821971D01*
X129585806Y-106882287D01*
X129668390Y-106942287D01*
X129737480Y-106977490D01*
X129761080Y-106989515D01*
X129811876Y-107037490D01*
X129828671Y-107105311D01*
X129806134Y-107171446D01*
X129761080Y-107210485D01*
X129668386Y-107257715D01*
X129502786Y-107378028D01*
X129358028Y-107522786D01*
X129237715Y-107688386D01*
X129144781Y-107870776D01*
X129081522Y-108065465D01*
X129049500Y-108267648D01*
X129049500Y-108472351D01*
X129081522Y-108674534D01*
X129144781Y-108869223D01*
X129237715Y-109051613D01*
X129358028Y-109217213D01*
X129502786Y-109361971D01*
X129585806Y-109422287D01*
X129668390Y-109482287D01*
X129733025Y-109515220D01*
X129761080Y-109529515D01*
X129811876Y-109577490D01*
X129828671Y-109645311D01*
X129806134Y-109711446D01*
X129761080Y-109750485D01*
X129668386Y-109797715D01*
X129502786Y-109918028D01*
X129358028Y-110062786D01*
X129237715Y-110228386D01*
X129144781Y-110410776D01*
X129081522Y-110605465D01*
X129049500Y-110807648D01*
X129049500Y-111012351D01*
X129081522Y-111214534D01*
X129144781Y-111409223D01*
X129237715Y-111591613D01*
X129358028Y-111757213D01*
X129502786Y-111901971D01*
X129650811Y-112009515D01*
X129668390Y-112022287D01*
X129719944Y-112048555D01*
X129761629Y-112069795D01*
X129812425Y-112117770D01*
X129829220Y-112185591D01*
X129806682Y-112251726D01*
X129761629Y-112290765D01*
X129668650Y-112338140D01*
X129503105Y-112458417D01*
X129503104Y-112458417D01*
X129358417Y-112603104D01*
X129358417Y-112603105D01*
X129238140Y-112768650D01*
X129145244Y-112950970D01*
X129082009Y-113145586D01*
X129073391Y-113200000D01*
X130434314Y-113200000D01*
X130429920Y-113204394D01*
X130377259Y-113295606D01*
X130350000Y-113397339D01*
X130350000Y-113502661D01*
X130377259Y-113604394D01*
X130429920Y-113695606D01*
X130434314Y-113700000D01*
X129073391Y-113700000D01*
X129082009Y-113754413D01*
X129145244Y-113949029D01*
X129238140Y-114131349D01*
X129358417Y-114296894D01*
X129358417Y-114296895D01*
X129503104Y-114441582D01*
X129668650Y-114561859D01*
X129850968Y-114654755D01*
X130045582Y-114717990D01*
X130247683Y-114750000D01*
X130500000Y-114750000D01*
X130500000Y-113765686D01*
X130504394Y-113770080D01*
X130595606Y-113822741D01*
X130697339Y-113850000D01*
X130802661Y-113850000D01*
X130904394Y-113822741D01*
X130995606Y-113770080D01*
X131000000Y-113765686D01*
X131000000Y-114750000D01*
X131252317Y-114750000D01*
X131454417Y-114717990D01*
X131649031Y-114654755D01*
X131831349Y-114561859D01*
X131996894Y-114441582D01*
X131996895Y-114441582D01*
X132141582Y-114296895D01*
X132141582Y-114296894D01*
X132261859Y-114131349D01*
X132354755Y-113949029D01*
X132417990Y-113754413D01*
X132426609Y-113700000D01*
X131065686Y-113700000D01*
X131070080Y-113695606D01*
X131122741Y-113604394D01*
X131150000Y-113502661D01*
X131150000Y-113397339D01*
X131122741Y-113295606D01*
X131070080Y-113204394D01*
X131065686Y-113200000D01*
X132426609Y-113200000D01*
X132417990Y-113145586D01*
X132354755Y-112950970D01*
X132261859Y-112768650D01*
X132141582Y-112603105D01*
X132141582Y-112603104D01*
X131996895Y-112458417D01*
X131831349Y-112338140D01*
X131738370Y-112290765D01*
X131687574Y-112242790D01*
X131670779Y-112174969D01*
X131693316Y-112108835D01*
X131738370Y-112069795D01*
X131766975Y-112055220D01*
X131831610Y-112022287D01*
X131924251Y-111954980D01*
X131997213Y-111901971D01*
X131997215Y-111901968D01*
X131997219Y-111901966D01*
X132141966Y-111757219D01*
X132141968Y-111757215D01*
X132141971Y-111757213D01*
X132194732Y-111684590D01*
X132262287Y-111591610D01*
X132355220Y-111409219D01*
X132418477Y-111214534D01*
X132450500Y-111012352D01*
X132450500Y-110807648D01*
X132440997Y-110747648D01*
X132418477Y-110605465D01*
X132355218Y-110410776D01*
X132262419Y-110228650D01*
X132262287Y-110228390D01*
X132218692Y-110168386D01*
X132141971Y-110062786D01*
X131997213Y-109918028D01*
X131831614Y-109797715D01*
X131825006Y-109794348D01*
X131738917Y-109750483D01*
X131688123Y-109702511D01*
X131671328Y-109634690D01*
X131693865Y-109568555D01*
X131738917Y-109529516D01*
X131831610Y-109482287D01*
X131914198Y-109422284D01*
X131997213Y-109361971D01*
X131997215Y-109361968D01*
X131997219Y-109361966D01*
X132141966Y-109217219D01*
X132141968Y-109217215D01*
X132141971Y-109217213D01*
X132231101Y-109094534D01*
X132262287Y-109051610D01*
X132355220Y-108869219D01*
X132418477Y-108674534D01*
X132450500Y-108472352D01*
X132450500Y-108267648D01*
X132421920Y-108087203D01*
X132418477Y-108065465D01*
X132371429Y-107920668D01*
X132355220Y-107870781D01*
X132355218Y-107870778D01*
X132355218Y-107870776D01*
X132304553Y-107771342D01*
X132262287Y-107688390D01*
X132187011Y-107584780D01*
X132141971Y-107522786D01*
X131997213Y-107378028D01*
X131831614Y-107257715D01*
X131825006Y-107254348D01*
X131738917Y-107210483D01*
X131688123Y-107162511D01*
X131671328Y-107094690D01*
X131693865Y-107028555D01*
X131738917Y-106989516D01*
X131831610Y-106942287D01*
X131914198Y-106882284D01*
X131997213Y-106821971D01*
X131997215Y-106821968D01*
X131997219Y-106821966D01*
X132141966Y-106677219D01*
X132141968Y-106677215D01*
X132141971Y-106677213D01*
X132234032Y-106550500D01*
X132262287Y-106511610D01*
X132355220Y-106329219D01*
X132418477Y-106134534D01*
X132450500Y-105932352D01*
X132450500Y-105727648D01*
X132425275Y-105568386D01*
X132418477Y-105525465D01*
X132355218Y-105330776D01*
X132295910Y-105214379D01*
X132262287Y-105148390D01*
X132228838Y-105102351D01*
X132141971Y-104982786D01*
X131997213Y-104838028D01*
X131831614Y-104717715D01*
X131825006Y-104714348D01*
X131738917Y-104670483D01*
X131688123Y-104622511D01*
X131671328Y-104554690D01*
X131693865Y-104488555D01*
X131738917Y-104449516D01*
X131831610Y-104402287D01*
X131914198Y-104342284D01*
X131997213Y-104281971D01*
X131997215Y-104281968D01*
X131997219Y-104281966D01*
X132141966Y-104137219D01*
X132141968Y-104137215D01*
X132141971Y-104137213D01*
X132219806Y-104030080D01*
X132262287Y-103971610D01*
X132355220Y-103789219D01*
X132418477Y-103594534D01*
X132450500Y-103392352D01*
X132450500Y-103187648D01*
X132418477Y-102985466D01*
X132418025Y-102984076D01*
X132355218Y-102790776D01*
X132318150Y-102718028D01*
X132262287Y-102608390D01*
X132191854Y-102511446D01*
X132141971Y-102442786D01*
X131997213Y-102298028D01*
X131831614Y-102177715D01*
X131825006Y-102174348D01*
X131738917Y-102130483D01*
X131688123Y-102082511D01*
X131671328Y-102014690D01*
X131693865Y-101948555D01*
X131738917Y-101909516D01*
X131831610Y-101862287D01*
X131914198Y-101802284D01*
X131997213Y-101741971D01*
X131997215Y-101741968D01*
X131997219Y-101741966D01*
X132141966Y-101597219D01*
X132141968Y-101597215D01*
X132141971Y-101597213D01*
X132231186Y-101474417D01*
X132262287Y-101431610D01*
X132355220Y-101249219D01*
X132418477Y-101054534D01*
X132450500Y-100852352D01*
X132450500Y-100647648D01*
X132418477Y-100445466D01*
X132418025Y-100444076D01*
X132355218Y-100250776D01*
X132318150Y-100178028D01*
X132262287Y-100068390D01*
X132187348Y-99965244D01*
X132141971Y-99902786D01*
X131997213Y-99758028D01*
X131831614Y-99637715D01*
X131825006Y-99634348D01*
X131738917Y-99590483D01*
X131688123Y-99542511D01*
X131671328Y-99474690D01*
X131693865Y-99408555D01*
X131738917Y-99369516D01*
X131831610Y-99322287D01*
X131914780Y-99261861D01*
X131997213Y-99201971D01*
X131997215Y-99201968D01*
X131997219Y-99201966D01*
X132141966Y-99057219D01*
X132141968Y-99057215D01*
X132141971Y-99057213D01*
X132198050Y-98980025D01*
X132262287Y-98891610D01*
X132355220Y-98709219D01*
X132418477Y-98514534D01*
X132450500Y-98312352D01*
X132450500Y-98107648D01*
X132440997Y-98047648D01*
X135739500Y-98047648D01*
X135739500Y-98252351D01*
X135771522Y-98454534D01*
X135834781Y-98649223D01*
X135927715Y-98831613D01*
X136048028Y-98997213D01*
X136192786Y-99141971D01*
X136275371Y-99201971D01*
X136358390Y-99262287D01*
X136449840Y-99308883D01*
X136451080Y-99309515D01*
X136501876Y-99357490D01*
X136518671Y-99425311D01*
X136496134Y-99491446D01*
X136451080Y-99530485D01*
X136358386Y-99577715D01*
X136192786Y-99698028D01*
X136048028Y-99842786D01*
X135927715Y-100008386D01*
X135834781Y-100190776D01*
X135771522Y-100385465D01*
X135739500Y-100587648D01*
X135739500Y-100792351D01*
X135771522Y-100994534D01*
X135834781Y-101189223D01*
X135877138Y-101272351D01*
X135923715Y-101363764D01*
X135927715Y-101371613D01*
X136048028Y-101537213D01*
X136192786Y-101681971D01*
X136275371Y-101741971D01*
X136358390Y-101802287D01*
X136449840Y-101848883D01*
X136451080Y-101849515D01*
X136501876Y-101897490D01*
X136518671Y-101965311D01*
X136496134Y-102031446D01*
X136451080Y-102070485D01*
X136358386Y-102117715D01*
X136192786Y-102238028D01*
X136048028Y-102382786D01*
X135927715Y-102548386D01*
X135834781Y-102730776D01*
X135771522Y-102925465D01*
X135739500Y-103127648D01*
X135739500Y-103332351D01*
X135771522Y-103534534D01*
X135834781Y-103729223D01*
X135927715Y-103911613D01*
X136048028Y-104077213D01*
X136192786Y-104221971D01*
X136275371Y-104281971D01*
X136358390Y-104342287D01*
X136433707Y-104380663D01*
X136451080Y-104389515D01*
X136501876Y-104437490D01*
X136518671Y-104505311D01*
X136496134Y-104571446D01*
X136451080Y-104610485D01*
X136358386Y-104657715D01*
X136192786Y-104778028D01*
X136048028Y-104922786D01*
X135927715Y-105088386D01*
X135834781Y-105270776D01*
X135771522Y-105465465D01*
X135739500Y-105667648D01*
X135739500Y-105872351D01*
X135771522Y-106074534D01*
X135834781Y-106269223D01*
X135927715Y-106451613D01*
X136048028Y-106617213D01*
X136192786Y-106761971D01*
X136275371Y-106821971D01*
X136358390Y-106882287D01*
X136449840Y-106928883D01*
X136451080Y-106929515D01*
X136501876Y-106977490D01*
X136518671Y-107045311D01*
X136496134Y-107111446D01*
X136451080Y-107150485D01*
X136358386Y-107197715D01*
X136192786Y-107318028D01*
X136048028Y-107462786D01*
X135927715Y-107628386D01*
X135834781Y-107810776D01*
X135771522Y-108005465D01*
X135739500Y-108207648D01*
X135739500Y-108412351D01*
X135771522Y-108614534D01*
X135834781Y-108809223D01*
X135927715Y-108991613D01*
X136048028Y-109157213D01*
X136192786Y-109301971D01*
X136313972Y-109390016D01*
X136358390Y-109422287D01*
X136449840Y-109468883D01*
X136451080Y-109469515D01*
X136501876Y-109517490D01*
X136518671Y-109585311D01*
X136496134Y-109651446D01*
X136451080Y-109690485D01*
X136358386Y-109737715D01*
X136192786Y-109858028D01*
X136048028Y-110002786D01*
X135927715Y-110168386D01*
X135834781Y-110350776D01*
X135771522Y-110545465D01*
X135739500Y-110747648D01*
X135739500Y-110952351D01*
X135771522Y-111154534D01*
X135834781Y-111349223D01*
X135927715Y-111531613D01*
X136048028Y-111697213D01*
X136192786Y-111841971D01*
X136325493Y-111938386D01*
X136358390Y-111962287D01*
X136449840Y-112008883D01*
X136451080Y-112009515D01*
X136501876Y-112057490D01*
X136518671Y-112125311D01*
X136496134Y-112191446D01*
X136451080Y-112230485D01*
X136358386Y-112277715D01*
X136192786Y-112398028D01*
X136048028Y-112542786D01*
X135927715Y-112708386D01*
X135834781Y-112890776D01*
X135771522Y-113085465D01*
X135739500Y-113287648D01*
X135739500Y-113492351D01*
X135771522Y-113694534D01*
X135834781Y-113889223D01*
X135927715Y-114071613D01*
X136048028Y-114237213D01*
X136192786Y-114381971D01*
X136347749Y-114494556D01*
X136358390Y-114502287D01*
X136474607Y-114561503D01*
X136540776Y-114595218D01*
X136540778Y-114595218D01*
X136540781Y-114595220D01*
X136631856Y-114624812D01*
X136735465Y-114658477D01*
X136836557Y-114674488D01*
X136937648Y-114690500D01*
X136937649Y-114690500D01*
X137942351Y-114690500D01*
X137942352Y-114690500D01*
X138144534Y-114658477D01*
X138339219Y-114595220D01*
X138521610Y-114502287D01*
X138650482Y-114408657D01*
X138687213Y-114381971D01*
X138687215Y-114381968D01*
X138687219Y-114381966D01*
X138831966Y-114237219D01*
X138831968Y-114237215D01*
X138831971Y-114237213D01*
X138936892Y-114092799D01*
X138952287Y-114071610D01*
X139045220Y-113889219D01*
X139108477Y-113694534D01*
X139140500Y-113492352D01*
X139140500Y-113287648D01*
X139108477Y-113085466D01*
X139105810Y-113077259D01*
X139079127Y-112995137D01*
X139045220Y-112890781D01*
X139045218Y-112890778D01*
X139045218Y-112890776D01*
X138993865Y-112789991D01*
X138952287Y-112708390D01*
X138875794Y-112603105D01*
X138831971Y-112542786D01*
X138687213Y-112398028D01*
X138521614Y-112277715D01*
X138515006Y-112274348D01*
X138428917Y-112230483D01*
X138378123Y-112182511D01*
X138361328Y-112114690D01*
X138383865Y-112048555D01*
X138428917Y-112009516D01*
X138521610Y-111962287D01*
X138604629Y-111901971D01*
X138687213Y-111841971D01*
X138687215Y-111841968D01*
X138687219Y-111841966D01*
X138831966Y-111697219D01*
X138831968Y-111697215D01*
X138831971Y-111697213D01*
X138884732Y-111624590D01*
X138952287Y-111531610D01*
X139045220Y-111349219D01*
X139108477Y-111154534D01*
X139140500Y-110952352D01*
X139140500Y-110747648D01*
X139108477Y-110545466D01*
X139105810Y-110537259D01*
X139079127Y-110455137D01*
X139045220Y-110350781D01*
X139045218Y-110350778D01*
X139045218Y-110350776D01*
X138982991Y-110228650D01*
X138952287Y-110168390D01*
X138944556Y-110157749D01*
X138831971Y-110002786D01*
X138687213Y-109858028D01*
X138521614Y-109737715D01*
X138515006Y-109734348D01*
X138428917Y-109690483D01*
X138378123Y-109642511D01*
X138361328Y-109574690D01*
X138383865Y-109508555D01*
X138428917Y-109469516D01*
X138521610Y-109422287D01*
X138604629Y-109361971D01*
X138687213Y-109301971D01*
X138687215Y-109301968D01*
X138687219Y-109301966D01*
X138831966Y-109157219D01*
X138831968Y-109157215D01*
X138831971Y-109157213D01*
X138884732Y-109084590D01*
X138952287Y-108991610D01*
X139045220Y-108809219D01*
X139108477Y-108614534D01*
X139140500Y-108412352D01*
X139140500Y-108207648D01*
X139108477Y-108005466D01*
X139088109Y-107942781D01*
X139064715Y-107870781D01*
X139045220Y-107810781D01*
X139045218Y-107810778D01*
X139045218Y-107810776D01*
X139011503Y-107744607D01*
X138952287Y-107628390D01*
X138920603Y-107584780D01*
X138831971Y-107462786D01*
X138687213Y-107318028D01*
X138521614Y-107197715D01*
X138452522Y-107162511D01*
X138428917Y-107150483D01*
X138378123Y-107102511D01*
X138361328Y-107034690D01*
X138383865Y-106968555D01*
X138428917Y-106929516D01*
X138521610Y-106882287D01*
X138604629Y-106821971D01*
X138687213Y-106761971D01*
X138687215Y-106761968D01*
X138687219Y-106761966D01*
X138831966Y-106617219D01*
X138831968Y-106617215D01*
X138831971Y-106617213D01*
X138888070Y-106539998D01*
X138952287Y-106451610D01*
X139045220Y-106269219D01*
X139108477Y-106074534D01*
X139140500Y-105872352D01*
X139140500Y-105667648D01*
X139136541Y-105642654D01*
X139108477Y-105465465D01*
X139064715Y-105330781D01*
X139045220Y-105270781D01*
X139045218Y-105270778D01*
X139045218Y-105270776D01*
X138994136Y-105170523D01*
X138952287Y-105088390D01*
X138920603Y-105044780D01*
X138831971Y-104922786D01*
X138687213Y-104778028D01*
X138521614Y-104657715D01*
X138452522Y-104622511D01*
X138428917Y-104610483D01*
X138378123Y-104562511D01*
X138361328Y-104494690D01*
X138383865Y-104428555D01*
X138428917Y-104389516D01*
X138521610Y-104342287D01*
X138604629Y-104281971D01*
X138687213Y-104221971D01*
X138687215Y-104221968D01*
X138687219Y-104221966D01*
X138831966Y-104077219D01*
X138831968Y-104077215D01*
X138831971Y-104077213D01*
X138898519Y-103985616D01*
X138952287Y-103911610D01*
X139045220Y-103729219D01*
X139108477Y-103534534D01*
X139140500Y-103332352D01*
X139140500Y-103127648D01*
X139108477Y-102925466D01*
X139088109Y-102862781D01*
X139064715Y-102790781D01*
X139045220Y-102730781D01*
X139045218Y-102730778D01*
X139045218Y-102730776D01*
X138994136Y-102630523D01*
X138952287Y-102548390D01*
X138920603Y-102504780D01*
X138831971Y-102382786D01*
X138687213Y-102238028D01*
X138521614Y-102117715D01*
X138452522Y-102082511D01*
X138428917Y-102070483D01*
X138378123Y-102022511D01*
X138361328Y-101954690D01*
X138383865Y-101888555D01*
X138428917Y-101849516D01*
X138521610Y-101802287D01*
X138604629Y-101741971D01*
X138687213Y-101681971D01*
X138687215Y-101681968D01*
X138687219Y-101681966D01*
X138831966Y-101537219D01*
X138831968Y-101537215D01*
X138831971Y-101537213D01*
X138884732Y-101464590D01*
X138952287Y-101371610D01*
X139045220Y-101189219D01*
X139108477Y-100994534D01*
X139140500Y-100792352D01*
X139140500Y-100587648D01*
X143359500Y-100587648D01*
X143359500Y-100792351D01*
X143391522Y-100994534D01*
X143454781Y-101189223D01*
X143497138Y-101272351D01*
X143543715Y-101363764D01*
X143547715Y-101371613D01*
X143668028Y-101537213D01*
X143812786Y-101681971D01*
X143895371Y-101741971D01*
X143978390Y-101802287D01*
X144069840Y-101848883D01*
X144071080Y-101849515D01*
X144121876Y-101897490D01*
X144138671Y-101965311D01*
X144116134Y-102031446D01*
X144071080Y-102070485D01*
X143978386Y-102117715D01*
X143812786Y-102238028D01*
X143668028Y-102382786D01*
X143547715Y-102548386D01*
X143454781Y-102730776D01*
X143391522Y-102925465D01*
X143359500Y-103127648D01*
X143359500Y-103332351D01*
X143391522Y-103534534D01*
X143454781Y-103729223D01*
X143547715Y-103911613D01*
X143668028Y-104077213D01*
X143812786Y-104221971D01*
X143895371Y-104281971D01*
X143978390Y-104342287D01*
X144053707Y-104380663D01*
X144071080Y-104389515D01*
X144121876Y-104437490D01*
X144138671Y-104505311D01*
X144116134Y-104571446D01*
X144071080Y-104610485D01*
X143978386Y-104657715D01*
X143812786Y-104778028D01*
X143668028Y-104922786D01*
X143547715Y-105088386D01*
X143454781Y-105270776D01*
X143391522Y-105465465D01*
X143359500Y-105667648D01*
X143359500Y-105872351D01*
X143391522Y-106074534D01*
X143454781Y-106269223D01*
X143547715Y-106451613D01*
X143668028Y-106617213D01*
X143812786Y-106761971D01*
X143895371Y-106821971D01*
X143978390Y-106882287D01*
X144069840Y-106928883D01*
X144071080Y-106929515D01*
X144121876Y-106977490D01*
X144138671Y-107045311D01*
X144116134Y-107111446D01*
X144071080Y-107150485D01*
X143978386Y-107197715D01*
X143812786Y-107318028D01*
X143668028Y-107462786D01*
X143547715Y-107628386D01*
X143454781Y-107810776D01*
X143391522Y-108005465D01*
X143359500Y-108207648D01*
X143359500Y-108412351D01*
X143391522Y-108614534D01*
X143454781Y-108809223D01*
X143547715Y-108991613D01*
X143668028Y-109157213D01*
X143812786Y-109301971D01*
X143933972Y-109390016D01*
X143978390Y-109422287D01*
X144069840Y-109468883D01*
X144071080Y-109469515D01*
X144121876Y-109517490D01*
X144138671Y-109585311D01*
X144116134Y-109651446D01*
X144071080Y-109690485D01*
X143978386Y-109737715D01*
X143812786Y-109858028D01*
X143668028Y-110002786D01*
X143547715Y-110168386D01*
X143454781Y-110350776D01*
X143391522Y-110545465D01*
X143359500Y-110747648D01*
X143359500Y-110952351D01*
X143391522Y-111154534D01*
X143454781Y-111349223D01*
X143547715Y-111531613D01*
X143668028Y-111697213D01*
X143668034Y-111697219D01*
X143812781Y-111841966D01*
X143906452Y-111910021D01*
X143949117Y-111965350D01*
X143955096Y-112034963D01*
X143922491Y-112096759D01*
X143872571Y-112128045D01*
X143790666Y-112155186D01*
X143790663Y-112155187D01*
X143641342Y-112247289D01*
X143517289Y-112371342D01*
X143425187Y-112520663D01*
X143425186Y-112520666D01*
X143370001Y-112687203D01*
X143370001Y-112687204D01*
X143370000Y-112687204D01*
X143359500Y-112789983D01*
X143359500Y-113990001D01*
X143359501Y-113990018D01*
X143370000Y-114092796D01*
X143370001Y-114092799D01*
X143417856Y-114237213D01*
X143425186Y-114259334D01*
X143517288Y-114408656D01*
X143641344Y-114532712D01*
X143790666Y-114624814D01*
X143957203Y-114679999D01*
X144059991Y-114690500D01*
X146060008Y-114690499D01*
X146162797Y-114679999D01*
X146329334Y-114624814D01*
X146478656Y-114532712D01*
X146602712Y-114408656D01*
X146694814Y-114259334D01*
X146749999Y-114092797D01*
X146760500Y-113990009D01*
X146760499Y-112789992D01*
X146749999Y-112687203D01*
X146694814Y-112520666D01*
X146602712Y-112371344D01*
X146478656Y-112247288D01*
X146329334Y-112155186D01*
X146247427Y-112128044D01*
X146189984Y-112088272D01*
X146163161Y-112023756D01*
X146175476Y-111954980D01*
X146213547Y-111910021D01*
X146307219Y-111841966D01*
X146451966Y-111697219D01*
X146451968Y-111697215D01*
X146451971Y-111697213D01*
X146504732Y-111624590D01*
X146572287Y-111531610D01*
X146665220Y-111349219D01*
X146728477Y-111154534D01*
X146760500Y-110952352D01*
X146760500Y-110747648D01*
X146728477Y-110545466D01*
X146725810Y-110537259D01*
X146699127Y-110455137D01*
X146665220Y-110350781D01*
X146665218Y-110350778D01*
X146665218Y-110350776D01*
X146602991Y-110228650D01*
X146572287Y-110168390D01*
X146564556Y-110157749D01*
X146451971Y-110002786D01*
X146307213Y-109858028D01*
X146141614Y-109737715D01*
X146135006Y-109734348D01*
X146048917Y-109690483D01*
X145998123Y-109642511D01*
X145981328Y-109574690D01*
X146003865Y-109508555D01*
X146048917Y-109469516D01*
X146141610Y-109422287D01*
X146224629Y-109361971D01*
X146307213Y-109301971D01*
X146307215Y-109301968D01*
X146307219Y-109301966D01*
X146451966Y-109157219D01*
X146451968Y-109157215D01*
X146451971Y-109157213D01*
X146504732Y-109084590D01*
X146572287Y-108991610D01*
X146665220Y-108809219D01*
X146728477Y-108614534D01*
X146760500Y-108412352D01*
X146760500Y-108207648D01*
X146728477Y-108005466D01*
X146708109Y-107942781D01*
X146684715Y-107870781D01*
X146665220Y-107810781D01*
X146665218Y-107810778D01*
X146665218Y-107810776D01*
X146631503Y-107744607D01*
X146572287Y-107628390D01*
X146540603Y-107584780D01*
X146451971Y-107462786D01*
X146307213Y-107318028D01*
X146141614Y-107197715D01*
X146072522Y-107162511D01*
X146048917Y-107150483D01*
X145998123Y-107102511D01*
X145981328Y-107034690D01*
X146003865Y-106968555D01*
X146048917Y-106929516D01*
X146141610Y-106882287D01*
X146224629Y-106821971D01*
X146307213Y-106761971D01*
X146307215Y-106761968D01*
X146307219Y-106761966D01*
X146451966Y-106617219D01*
X146451968Y-106617215D01*
X146451971Y-106617213D01*
X146508070Y-106539998D01*
X146572287Y-106451610D01*
X146665220Y-106269219D01*
X146728477Y-106074534D01*
X146760500Y-105872352D01*
X146760500Y-105667648D01*
X146756541Y-105642654D01*
X146728477Y-105465465D01*
X146684715Y-105330781D01*
X146665220Y-105270781D01*
X146665218Y-105270778D01*
X146665218Y-105270776D01*
X146614136Y-105170523D01*
X146572287Y-105088390D01*
X146540603Y-105044780D01*
X146451971Y-104922786D01*
X146307213Y-104778028D01*
X146141614Y-104657715D01*
X146072522Y-104622511D01*
X146048917Y-104610483D01*
X145998123Y-104562511D01*
X145981328Y-104494690D01*
X146003865Y-104428555D01*
X146048917Y-104389516D01*
X146141610Y-104342287D01*
X146224629Y-104281971D01*
X146307213Y-104221971D01*
X146307215Y-104221968D01*
X146307219Y-104221966D01*
X146451966Y-104077219D01*
X146451968Y-104077215D01*
X146451971Y-104077213D01*
X146518519Y-103985616D01*
X146572287Y-103911610D01*
X146665220Y-103729219D01*
X146728477Y-103534534D01*
X146760500Y-103332352D01*
X146760500Y-103127648D01*
X146728477Y-102925466D01*
X146708109Y-102862781D01*
X146684715Y-102790781D01*
X146665220Y-102730781D01*
X146665218Y-102730778D01*
X146665218Y-102730776D01*
X146614136Y-102630523D01*
X146572287Y-102548390D01*
X146540603Y-102504780D01*
X146451971Y-102382786D01*
X146307213Y-102238028D01*
X146141614Y-102117715D01*
X146072522Y-102082511D01*
X146048917Y-102070483D01*
X145998123Y-102022511D01*
X145981328Y-101954690D01*
X146003865Y-101888555D01*
X146048917Y-101849516D01*
X146141610Y-101802287D01*
X146224629Y-101741971D01*
X146307213Y-101681971D01*
X146307215Y-101681968D01*
X146307219Y-101681966D01*
X146451966Y-101537219D01*
X146451968Y-101537215D01*
X146451971Y-101537213D01*
X146504732Y-101464590D01*
X146572287Y-101371610D01*
X146665220Y-101189219D01*
X146728477Y-100994534D01*
X146760500Y-100792352D01*
X146760500Y-100587648D01*
X146728477Y-100385466D01*
X146708109Y-100322781D01*
X146684715Y-100250781D01*
X146665220Y-100190781D01*
X146665218Y-100190778D01*
X146665218Y-100190776D01*
X146614136Y-100090523D01*
X146572287Y-100008390D01*
X146540940Y-99965244D01*
X146451971Y-99842786D01*
X146307213Y-99698028D01*
X146141611Y-99577713D01*
X146048369Y-99530203D01*
X145997574Y-99482229D01*
X145980779Y-99414407D01*
X146003317Y-99348273D01*
X146048371Y-99309234D01*
X146141347Y-99261861D01*
X146306894Y-99141582D01*
X146306895Y-99141582D01*
X146451582Y-98996895D01*
X146451582Y-98996894D01*
X146571859Y-98831349D01*
X146664755Y-98649029D01*
X146727990Y-98454413D01*
X146736609Y-98400000D01*
X145375686Y-98400000D01*
X145380080Y-98395606D01*
X145432741Y-98304394D01*
X145460000Y-98202661D01*
X145460000Y-98097339D01*
X145432741Y-97995606D01*
X145380080Y-97904394D01*
X145375686Y-97900000D01*
X146736609Y-97900000D01*
X146727990Y-97845586D01*
X146664755Y-97650970D01*
X146571859Y-97468650D01*
X146451582Y-97303105D01*
X146451582Y-97303104D01*
X146306895Y-97158417D01*
X146141349Y-97038140D01*
X146047820Y-96990485D01*
X145997024Y-96942511D01*
X145980229Y-96874690D01*
X146002766Y-96808555D01*
X146047820Y-96769515D01*
X146141349Y-96721859D01*
X146306894Y-96601582D01*
X146306895Y-96601582D01*
X146451582Y-96456895D01*
X146451582Y-96456894D01*
X146571859Y-96291349D01*
X146664755Y-96109029D01*
X146727990Y-95914413D01*
X146736609Y-95860000D01*
X145375686Y-95860000D01*
X145380080Y-95855606D01*
X145432741Y-95764394D01*
X145460000Y-95662661D01*
X145460000Y-95557339D01*
X145446685Y-95507648D01*
X149239500Y-95507648D01*
X149239500Y-95712351D01*
X149271522Y-95914534D01*
X149334781Y-96109223D01*
X149398691Y-96234653D01*
X149416711Y-96270018D01*
X149427715Y-96291613D01*
X149548028Y-96457213D01*
X149692786Y-96601971D01*
X149847749Y-96714556D01*
X149858390Y-96722287D01*
X149949840Y-96768883D01*
X149951080Y-96769515D01*
X150001876Y-96817490D01*
X150018671Y-96885311D01*
X149996134Y-96951446D01*
X149951080Y-96990485D01*
X149858386Y-97037715D01*
X149692786Y-97158028D01*
X149548028Y-97302786D01*
X149427715Y-97468386D01*
X149334781Y-97650776D01*
X149271522Y-97845465D01*
X149239500Y-98047648D01*
X149239500Y-98252351D01*
X149271522Y-98454534D01*
X149334781Y-98649223D01*
X149427715Y-98831613D01*
X149548028Y-98997213D01*
X149692786Y-99141971D01*
X149775371Y-99201971D01*
X149858390Y-99262287D01*
X149949840Y-99308883D01*
X149951080Y-99309515D01*
X150001876Y-99357490D01*
X150018671Y-99425311D01*
X149996134Y-99491446D01*
X149951080Y-99530485D01*
X149858386Y-99577715D01*
X149692786Y-99698028D01*
X149548028Y-99842786D01*
X149427715Y-100008386D01*
X149334781Y-100190776D01*
X149271522Y-100385465D01*
X149239500Y-100587648D01*
X149239500Y-100792351D01*
X149271522Y-100994534D01*
X149334781Y-101189223D01*
X149377138Y-101272351D01*
X149423715Y-101363764D01*
X149427715Y-101371613D01*
X149548028Y-101537213D01*
X149692786Y-101681971D01*
X149775371Y-101741971D01*
X149858390Y-101802287D01*
X149949840Y-101848883D01*
X149951080Y-101849515D01*
X150001876Y-101897490D01*
X150018671Y-101965311D01*
X149996134Y-102031446D01*
X149951080Y-102070485D01*
X149858386Y-102117715D01*
X149692786Y-102238028D01*
X149548028Y-102382786D01*
X149427715Y-102548386D01*
X149334781Y-102730776D01*
X149271522Y-102925465D01*
X149239500Y-103127648D01*
X149239500Y-103332351D01*
X149271522Y-103534534D01*
X149334781Y-103729223D01*
X149427715Y-103911613D01*
X149548028Y-104077213D01*
X149692786Y-104221971D01*
X149775371Y-104281971D01*
X149858390Y-104342287D01*
X149933707Y-104380663D01*
X149951080Y-104389515D01*
X150001876Y-104437490D01*
X150018671Y-104505311D01*
X149996134Y-104571446D01*
X149951080Y-104610485D01*
X149858386Y-104657715D01*
X149692786Y-104778028D01*
X149548028Y-104922786D01*
X149427715Y-105088386D01*
X149334781Y-105270776D01*
X149271522Y-105465465D01*
X149239500Y-105667648D01*
X149239500Y-105872351D01*
X149271522Y-106074534D01*
X149334781Y-106269223D01*
X149427715Y-106451613D01*
X149548028Y-106617213D01*
X149692786Y-106761971D01*
X149775371Y-106821971D01*
X149858390Y-106882287D01*
X149949840Y-106928883D01*
X149951080Y-106929515D01*
X150001876Y-106977490D01*
X150018671Y-107045311D01*
X149996134Y-107111446D01*
X149951080Y-107150485D01*
X149858386Y-107197715D01*
X149692786Y-107318028D01*
X149548028Y-107462786D01*
X149427715Y-107628386D01*
X149334781Y-107810776D01*
X149271522Y-108005465D01*
X149239500Y-108207648D01*
X149239500Y-108412351D01*
X149271522Y-108614534D01*
X149334781Y-108809223D01*
X149427715Y-108991613D01*
X149548028Y-109157213D01*
X149692786Y-109301971D01*
X149813972Y-109390016D01*
X149858390Y-109422287D01*
X149949840Y-109468883D01*
X149951080Y-109469515D01*
X150001876Y-109517490D01*
X150018671Y-109585311D01*
X149996134Y-109651446D01*
X149951080Y-109690485D01*
X149858386Y-109737715D01*
X149692786Y-109858028D01*
X149548028Y-110002786D01*
X149427715Y-110168386D01*
X149334781Y-110350776D01*
X149271522Y-110545465D01*
X149239500Y-110747648D01*
X149239500Y-110952351D01*
X149271522Y-111154534D01*
X149334781Y-111349223D01*
X149427715Y-111531613D01*
X149548028Y-111697213D01*
X149692786Y-111841971D01*
X149825493Y-111938386D01*
X149858390Y-111962287D01*
X149949840Y-112008883D01*
X149951080Y-112009515D01*
X150001876Y-112057490D01*
X150018671Y-112125311D01*
X149996134Y-112191446D01*
X149951080Y-112230485D01*
X149858386Y-112277715D01*
X149692786Y-112398028D01*
X149548028Y-112542786D01*
X149427715Y-112708386D01*
X149334781Y-112890776D01*
X149271522Y-113085465D01*
X149239500Y-113287648D01*
X149239500Y-113492351D01*
X149271522Y-113694534D01*
X149334781Y-113889223D01*
X149427715Y-114071613D01*
X149548028Y-114237213D01*
X149692786Y-114381971D01*
X149847749Y-114494556D01*
X149858390Y-114502287D01*
X149974607Y-114561503D01*
X150040776Y-114595218D01*
X150040778Y-114595218D01*
X150040781Y-114595220D01*
X150131856Y-114624812D01*
X150235465Y-114658477D01*
X150336557Y-114674488D01*
X150437648Y-114690500D01*
X150437649Y-114690500D01*
X151442351Y-114690500D01*
X151442352Y-114690500D01*
X151644534Y-114658477D01*
X151839219Y-114595220D01*
X152021610Y-114502287D01*
X152150482Y-114408657D01*
X152187213Y-114381971D01*
X152187215Y-114381968D01*
X152187219Y-114381966D01*
X152331966Y-114237219D01*
X152331968Y-114237215D01*
X152331971Y-114237213D01*
X152436892Y-114092799D01*
X152452287Y-114071610D01*
X152545220Y-113889219D01*
X152608477Y-113694534D01*
X152640500Y-113492352D01*
X152640500Y-113287648D01*
X152608477Y-113085466D01*
X152605810Y-113077259D01*
X152579127Y-112995137D01*
X152545220Y-112890781D01*
X152545218Y-112890778D01*
X152545218Y-112890776D01*
X152493865Y-112789991D01*
X152452287Y-112708390D01*
X152375794Y-112603105D01*
X152331971Y-112542786D01*
X152187213Y-112398028D01*
X152021614Y-112277715D01*
X152015006Y-112274348D01*
X151928917Y-112230483D01*
X151878123Y-112182511D01*
X151861328Y-112114690D01*
X151883865Y-112048555D01*
X151928917Y-112009516D01*
X152021610Y-111962287D01*
X152104629Y-111901971D01*
X152187213Y-111841971D01*
X152187215Y-111841968D01*
X152187219Y-111841966D01*
X152331966Y-111697219D01*
X152331968Y-111697215D01*
X152331971Y-111697213D01*
X152384732Y-111624590D01*
X152452287Y-111531610D01*
X152545220Y-111349219D01*
X152608477Y-111154534D01*
X152640500Y-110952352D01*
X152640500Y-110747648D01*
X152608477Y-110545466D01*
X152605810Y-110537259D01*
X152579127Y-110455137D01*
X152545220Y-110350781D01*
X152545218Y-110350778D01*
X152545218Y-110350776D01*
X152482991Y-110228650D01*
X152452287Y-110168390D01*
X152444556Y-110157749D01*
X152331971Y-110002786D01*
X152187213Y-109858028D01*
X152021614Y-109737715D01*
X152015006Y-109734348D01*
X151928917Y-109690483D01*
X151878123Y-109642511D01*
X151861328Y-109574690D01*
X151883865Y-109508555D01*
X151928917Y-109469516D01*
X152021610Y-109422287D01*
X152104629Y-109361971D01*
X152187213Y-109301971D01*
X152187215Y-109301968D01*
X152187219Y-109301966D01*
X152331966Y-109157219D01*
X152331968Y-109157215D01*
X152331971Y-109157213D01*
X152384732Y-109084590D01*
X152452287Y-108991610D01*
X152545220Y-108809219D01*
X152608477Y-108614534D01*
X152640500Y-108412352D01*
X152640500Y-108207648D01*
X152608477Y-108005466D01*
X152588109Y-107942781D01*
X152564715Y-107870781D01*
X152545220Y-107810781D01*
X152545218Y-107810778D01*
X152545218Y-107810776D01*
X152511503Y-107744607D01*
X152452287Y-107628390D01*
X152420603Y-107584780D01*
X152331971Y-107462786D01*
X152187213Y-107318028D01*
X152021614Y-107197715D01*
X151952522Y-107162511D01*
X151928917Y-107150483D01*
X151878123Y-107102511D01*
X151861328Y-107034690D01*
X151883865Y-106968555D01*
X151928917Y-106929516D01*
X152021610Y-106882287D01*
X152104629Y-106821971D01*
X152187213Y-106761971D01*
X152187215Y-106761968D01*
X152187219Y-106761966D01*
X152331966Y-106617219D01*
X152331968Y-106617215D01*
X152331971Y-106617213D01*
X152388070Y-106539998D01*
X152452287Y-106451610D01*
X152545220Y-106269219D01*
X152608477Y-106074534D01*
X152640500Y-105872352D01*
X152640500Y-105667648D01*
X152636541Y-105642654D01*
X152608477Y-105465465D01*
X152564715Y-105330781D01*
X152545220Y-105270781D01*
X152545218Y-105270778D01*
X152545218Y-105270776D01*
X152494136Y-105170523D01*
X152452287Y-105088390D01*
X152420603Y-105044780D01*
X152331971Y-104922786D01*
X152187213Y-104778028D01*
X152021614Y-104657715D01*
X151952522Y-104622511D01*
X151928917Y-104610483D01*
X151878123Y-104562511D01*
X151861328Y-104494690D01*
X151883865Y-104428555D01*
X151928917Y-104389516D01*
X152021610Y-104342287D01*
X152104629Y-104281971D01*
X152187213Y-104221971D01*
X152187215Y-104221968D01*
X152187219Y-104221966D01*
X152331966Y-104077219D01*
X152331968Y-104077215D01*
X152331971Y-104077213D01*
X152398519Y-103985616D01*
X152452287Y-103911610D01*
X152545220Y-103729219D01*
X152608477Y-103534534D01*
X152640500Y-103332352D01*
X152640500Y-103127648D01*
X152608477Y-102925466D01*
X152588109Y-102862781D01*
X152564715Y-102790781D01*
X152545220Y-102730781D01*
X152545218Y-102730778D01*
X152545218Y-102730776D01*
X152494136Y-102630523D01*
X152452287Y-102548390D01*
X152420603Y-102504780D01*
X152331971Y-102382786D01*
X152187213Y-102238028D01*
X152021614Y-102117715D01*
X151952522Y-102082511D01*
X151928917Y-102070483D01*
X151878123Y-102022511D01*
X151861328Y-101954690D01*
X151883865Y-101888555D01*
X151928917Y-101849516D01*
X152021610Y-101802287D01*
X152104629Y-101741971D01*
X152187213Y-101681971D01*
X152187215Y-101681968D01*
X152187219Y-101681966D01*
X152331966Y-101537219D01*
X152331968Y-101537215D01*
X152331971Y-101537213D01*
X152384732Y-101464590D01*
X152452287Y-101371610D01*
X152545220Y-101189219D01*
X152608477Y-100994534D01*
X152640500Y-100792352D01*
X152640500Y-100587648D01*
X152608477Y-100385466D01*
X152588109Y-100322781D01*
X152564715Y-100250781D01*
X152545220Y-100190781D01*
X152545218Y-100190778D01*
X152545218Y-100190776D01*
X152494136Y-100090523D01*
X152452287Y-100008390D01*
X152420940Y-99965244D01*
X152331971Y-99842786D01*
X152187213Y-99698028D01*
X152021614Y-99577715D01*
X151956975Y-99544780D01*
X151928917Y-99530483D01*
X151878123Y-99482511D01*
X151861328Y-99414690D01*
X151883865Y-99348555D01*
X151928917Y-99309516D01*
X152021610Y-99262287D01*
X152104629Y-99201971D01*
X152187213Y-99141971D01*
X152187215Y-99141968D01*
X152187219Y-99141966D01*
X152331966Y-98997219D01*
X152331968Y-98997215D01*
X152331971Y-98997213D01*
X152384732Y-98924590D01*
X152452287Y-98831610D01*
X152545220Y-98649219D01*
X152608477Y-98454534D01*
X152640500Y-98252352D01*
X152640500Y-98047648D01*
X156859500Y-98047648D01*
X156859500Y-98252351D01*
X156891522Y-98454534D01*
X156954781Y-98649223D01*
X157047715Y-98831613D01*
X157168028Y-98997213D01*
X157312786Y-99141971D01*
X157395371Y-99201971D01*
X157478390Y-99262287D01*
X157569840Y-99308883D01*
X157571080Y-99309515D01*
X157621876Y-99357490D01*
X157638671Y-99425311D01*
X157616134Y-99491446D01*
X157571080Y-99530485D01*
X157478386Y-99577715D01*
X157312786Y-99698028D01*
X157168028Y-99842786D01*
X157047715Y-100008386D01*
X156954781Y-100190776D01*
X156891522Y-100385465D01*
X156859500Y-100587648D01*
X156859500Y-100792351D01*
X156891522Y-100994534D01*
X156954781Y-101189223D01*
X156997138Y-101272351D01*
X157043715Y-101363764D01*
X157047715Y-101371613D01*
X157168028Y-101537213D01*
X157312786Y-101681971D01*
X157395371Y-101741971D01*
X157478390Y-101802287D01*
X157569840Y-101848883D01*
X157571080Y-101849515D01*
X157621876Y-101897490D01*
X157638671Y-101965311D01*
X157616134Y-102031446D01*
X157571080Y-102070485D01*
X157478386Y-102117715D01*
X157312786Y-102238028D01*
X157168028Y-102382786D01*
X157047715Y-102548386D01*
X156954781Y-102730776D01*
X156891522Y-102925465D01*
X156859500Y-103127648D01*
X156859500Y-103332351D01*
X156891522Y-103534534D01*
X156954781Y-103729223D01*
X157047715Y-103911613D01*
X157168028Y-104077213D01*
X157312786Y-104221971D01*
X157395371Y-104281971D01*
X157478390Y-104342287D01*
X157553707Y-104380663D01*
X157571080Y-104389515D01*
X157621876Y-104437490D01*
X157638671Y-104505311D01*
X157616134Y-104571446D01*
X157571080Y-104610485D01*
X157478386Y-104657715D01*
X157312786Y-104778028D01*
X157168028Y-104922786D01*
X157047715Y-105088386D01*
X156954781Y-105270776D01*
X156891522Y-105465465D01*
X156859500Y-105667648D01*
X156859500Y-105872351D01*
X156891522Y-106074534D01*
X156954781Y-106269223D01*
X157047715Y-106451613D01*
X157168028Y-106617213D01*
X157312786Y-106761971D01*
X157395371Y-106821971D01*
X157478390Y-106882287D01*
X157569840Y-106928883D01*
X157571080Y-106929515D01*
X157621876Y-106977490D01*
X157638671Y-107045311D01*
X157616134Y-107111446D01*
X157571080Y-107150485D01*
X157478386Y-107197715D01*
X157312786Y-107318028D01*
X157168028Y-107462786D01*
X157047715Y-107628386D01*
X156954781Y-107810776D01*
X156891522Y-108005465D01*
X156859500Y-108207648D01*
X156859500Y-108412351D01*
X156891522Y-108614534D01*
X156954781Y-108809223D01*
X157047715Y-108991613D01*
X157168028Y-109157213D01*
X157312786Y-109301971D01*
X157433972Y-109390016D01*
X157478390Y-109422287D01*
X157569840Y-109468883D01*
X157571080Y-109469515D01*
X157621876Y-109517490D01*
X157638671Y-109585311D01*
X157616134Y-109651446D01*
X157571080Y-109690485D01*
X157478386Y-109737715D01*
X157312786Y-109858028D01*
X157168028Y-110002786D01*
X157047715Y-110168386D01*
X156954781Y-110350776D01*
X156891522Y-110545465D01*
X156859500Y-110747648D01*
X156859500Y-110952351D01*
X156891522Y-111154534D01*
X156954781Y-111349223D01*
X157047715Y-111531613D01*
X157168028Y-111697213D01*
X157168034Y-111697219D01*
X157312781Y-111841966D01*
X157406452Y-111910021D01*
X157449117Y-111965350D01*
X157455096Y-112034963D01*
X157422491Y-112096759D01*
X157372571Y-112128045D01*
X157290666Y-112155186D01*
X157290663Y-112155187D01*
X157141342Y-112247289D01*
X157017289Y-112371342D01*
X156925187Y-112520663D01*
X156925186Y-112520666D01*
X156870001Y-112687203D01*
X156870001Y-112687204D01*
X156870000Y-112687204D01*
X156859500Y-112789983D01*
X156859500Y-113990001D01*
X156859501Y-113990018D01*
X156870000Y-114092796D01*
X156870001Y-114092799D01*
X156917856Y-114237213D01*
X156925186Y-114259334D01*
X157017288Y-114408656D01*
X157141344Y-114532712D01*
X157290666Y-114624814D01*
X157457203Y-114679999D01*
X157559991Y-114690500D01*
X159560008Y-114690499D01*
X159662797Y-114679999D01*
X159829334Y-114624814D01*
X159978656Y-114532712D01*
X160102712Y-114408656D01*
X160194814Y-114259334D01*
X160249999Y-114092797D01*
X160260500Y-113990009D01*
X160260499Y-112789992D01*
X160249999Y-112687203D01*
X160194814Y-112520666D01*
X160102712Y-112371344D01*
X159978656Y-112247288D01*
X159829334Y-112155186D01*
X159747427Y-112128044D01*
X159689984Y-112088272D01*
X159663161Y-112023756D01*
X159675476Y-111954980D01*
X159713547Y-111910021D01*
X159807219Y-111841966D01*
X159951966Y-111697219D01*
X159951968Y-111697215D01*
X159951971Y-111697213D01*
X160004732Y-111624590D01*
X160072287Y-111531610D01*
X160165220Y-111349219D01*
X160228477Y-111154534D01*
X160260500Y-110952352D01*
X160260500Y-110747648D01*
X160228477Y-110545466D01*
X160225810Y-110537259D01*
X160199127Y-110455137D01*
X160165220Y-110350781D01*
X160165218Y-110350778D01*
X160165218Y-110350776D01*
X160102991Y-110228650D01*
X160072287Y-110168390D01*
X160064556Y-110157749D01*
X159951971Y-110002786D01*
X159807213Y-109858028D01*
X159641614Y-109737715D01*
X159635006Y-109734348D01*
X159548917Y-109690483D01*
X159498123Y-109642511D01*
X159481328Y-109574690D01*
X159503865Y-109508555D01*
X159548917Y-109469516D01*
X159641610Y-109422287D01*
X159724629Y-109361971D01*
X159807213Y-109301971D01*
X159807215Y-109301968D01*
X159807219Y-109301966D01*
X159951966Y-109157219D01*
X159951968Y-109157215D01*
X159951971Y-109157213D01*
X160004732Y-109084590D01*
X160072287Y-108991610D01*
X160165220Y-108809219D01*
X160228477Y-108614534D01*
X160260500Y-108412352D01*
X160260500Y-108207648D01*
X160228477Y-108005466D01*
X160208109Y-107942781D01*
X160184715Y-107870781D01*
X160165220Y-107810781D01*
X160165218Y-107810778D01*
X160165218Y-107810776D01*
X160131503Y-107744607D01*
X160072287Y-107628390D01*
X160040603Y-107584780D01*
X159951971Y-107462786D01*
X159807213Y-107318028D01*
X159641614Y-107197715D01*
X159572522Y-107162511D01*
X159548917Y-107150483D01*
X159498123Y-107102511D01*
X159481328Y-107034690D01*
X159503865Y-106968555D01*
X159548917Y-106929516D01*
X159641610Y-106882287D01*
X159724629Y-106821971D01*
X159807213Y-106761971D01*
X159807215Y-106761968D01*
X159807219Y-106761966D01*
X159951966Y-106617219D01*
X159951968Y-106617215D01*
X159951971Y-106617213D01*
X160008070Y-106539998D01*
X160072287Y-106451610D01*
X160165220Y-106269219D01*
X160228477Y-106074534D01*
X160260500Y-105872352D01*
X160260500Y-105667648D01*
X160256541Y-105642654D01*
X160228477Y-105465465D01*
X160184715Y-105330781D01*
X160165220Y-105270781D01*
X160165218Y-105270778D01*
X160165218Y-105270776D01*
X160114136Y-105170523D01*
X160072287Y-105088390D01*
X160040603Y-105044780D01*
X159951971Y-104922786D01*
X159807213Y-104778028D01*
X159641614Y-104657715D01*
X159572522Y-104622511D01*
X159548917Y-104610483D01*
X159498123Y-104562511D01*
X159481328Y-104494690D01*
X159503865Y-104428555D01*
X159548917Y-104389516D01*
X159641610Y-104342287D01*
X159724629Y-104281971D01*
X159807213Y-104221971D01*
X159807215Y-104221968D01*
X159807219Y-104221966D01*
X159951966Y-104077219D01*
X159951968Y-104077215D01*
X159951971Y-104077213D01*
X160018519Y-103985616D01*
X160072287Y-103911610D01*
X160165220Y-103729219D01*
X160228477Y-103534534D01*
X160260500Y-103332352D01*
X160260500Y-103127648D01*
X160228477Y-102925466D01*
X160208109Y-102862781D01*
X160184715Y-102790781D01*
X160165220Y-102730781D01*
X160165218Y-102730778D01*
X160165218Y-102730776D01*
X160114136Y-102630523D01*
X160072287Y-102548390D01*
X160040603Y-102504780D01*
X159951971Y-102382786D01*
X159807213Y-102238028D01*
X159641614Y-102117715D01*
X159572522Y-102082511D01*
X159548917Y-102070483D01*
X159498123Y-102022511D01*
X159481328Y-101954690D01*
X159503865Y-101888555D01*
X159548917Y-101849516D01*
X159641610Y-101802287D01*
X159724629Y-101741971D01*
X159807213Y-101681971D01*
X159807215Y-101681968D01*
X159807219Y-101681966D01*
X159877050Y-101612135D01*
X174369500Y-101612135D01*
X174369500Y-103307870D01*
X174369501Y-103307876D01*
X174375908Y-103367483D01*
X174426202Y-103502328D01*
X174426206Y-103502335D01*
X174512452Y-103617544D01*
X174512455Y-103617547D01*
X174627664Y-103703793D01*
X174627671Y-103703797D01*
X174644305Y-103710001D01*
X174762517Y-103754091D01*
X174799441Y-103758060D01*
X174863989Y-103784796D01*
X174903838Y-103842188D01*
X174906333Y-103912013D01*
X174870681Y-103972102D01*
X174859071Y-103981666D01*
X174822784Y-104008030D01*
X174678028Y-104152786D01*
X174557715Y-104318386D01*
X174464781Y-104500776D01*
X174401522Y-104695465D01*
X174369500Y-104897648D01*
X174369500Y-105102351D01*
X174401522Y-105304534D01*
X174464781Y-105499223D01*
X174557715Y-105681613D01*
X174678028Y-105847213D01*
X174822786Y-105991971D01*
X174948411Y-106083241D01*
X174988390Y-106112287D01*
X175079840Y-106158883D01*
X175081080Y-106159515D01*
X175131876Y-106207490D01*
X175148671Y-106275311D01*
X175126134Y-106341446D01*
X175081080Y-106380485D01*
X174988386Y-106427715D01*
X174822786Y-106548028D01*
X174678028Y-106692786D01*
X174557715Y-106858386D01*
X174464781Y-107040776D01*
X174401522Y-107235465D01*
X174369500Y-107437648D01*
X174369500Y-107642351D01*
X174401522Y-107844534D01*
X174464781Y-108039223D01*
X174557715Y-108221613D01*
X174678028Y-108387213D01*
X174822786Y-108531971D01*
X174936427Y-108614534D01*
X174988390Y-108652287D01*
X175057790Y-108687648D01*
X175081080Y-108699515D01*
X175131876Y-108747490D01*
X175148671Y-108815311D01*
X175126134Y-108881446D01*
X175081080Y-108920485D01*
X174988386Y-108967715D01*
X174822786Y-109088028D01*
X174678028Y-109232786D01*
X174557715Y-109398386D01*
X174464781Y-109580776D01*
X174401522Y-109775465D01*
X174369500Y-109977648D01*
X174369500Y-110182351D01*
X174401522Y-110384534D01*
X174464781Y-110579223D01*
X174557715Y-110761613D01*
X174678028Y-110927213D01*
X174822786Y-111071971D01*
X174943950Y-111160000D01*
X174988390Y-111192287D01*
X175062563Y-111230080D01*
X175081080Y-111239515D01*
X175131876Y-111287490D01*
X175148671Y-111355311D01*
X175126134Y-111421446D01*
X175081080Y-111460485D01*
X174988386Y-111507715D01*
X174822786Y-111628028D01*
X174678028Y-111772786D01*
X174557715Y-111938386D01*
X174464781Y-112120776D01*
X174401522Y-112315465D01*
X174369500Y-112517648D01*
X174369500Y-112722351D01*
X174401522Y-112924534D01*
X174464781Y-113119223D01*
X174557715Y-113301613D01*
X174678028Y-113467213D01*
X174822786Y-113611971D01*
X174943950Y-113700000D01*
X174988390Y-113732287D01*
X175104607Y-113791503D01*
X175170776Y-113825218D01*
X175170778Y-113825218D01*
X175170781Y-113825220D01*
X175247046Y-113850000D01*
X175365465Y-113888477D01*
X175466557Y-113904488D01*
X175567648Y-113920500D01*
X175567649Y-113920500D01*
X175772351Y-113920500D01*
X175772352Y-113920500D01*
X175974534Y-113888477D01*
X176169219Y-113825220D01*
X176351610Y-113732287D01*
X176444590Y-113664732D01*
X176517213Y-113611971D01*
X176517215Y-113611968D01*
X176517219Y-113611966D01*
X176661966Y-113467219D01*
X176661968Y-113467215D01*
X176661971Y-113467213D01*
X176714732Y-113394590D01*
X176782287Y-113301610D01*
X176875220Y-113119219D01*
X176938477Y-112924534D01*
X176970500Y-112722352D01*
X176970500Y-112517648D01*
X176938477Y-112315466D01*
X176914772Y-112242511D01*
X176896187Y-112185311D01*
X176875220Y-112120781D01*
X176875218Y-112120778D01*
X176875218Y-112120776D01*
X176825783Y-112023756D01*
X176782287Y-111938390D01*
X176755545Y-111901582D01*
X176661971Y-111772786D01*
X176517213Y-111628028D01*
X176351614Y-111507715D01*
X176345006Y-111504348D01*
X176258917Y-111460483D01*
X176208123Y-111412511D01*
X176191328Y-111344690D01*
X176213865Y-111278555D01*
X176258917Y-111239516D01*
X176351610Y-111192287D01*
X176396050Y-111160000D01*
X176517213Y-111071971D01*
X176517215Y-111071968D01*
X176517219Y-111071966D01*
X176661966Y-110927219D01*
X176661968Y-110927215D01*
X176661971Y-110927213D01*
X176714732Y-110854590D01*
X176782287Y-110761610D01*
X176875220Y-110579219D01*
X176938477Y-110384534D01*
X176970500Y-110182352D01*
X176970500Y-109977648D01*
X176938477Y-109775466D01*
X176914772Y-109702511D01*
X176896187Y-109645311D01*
X176875220Y-109580781D01*
X176875218Y-109580778D01*
X176875218Y-109580776D01*
X176830389Y-109492795D01*
X176782287Y-109398390D01*
X176755824Y-109361966D01*
X176661971Y-109232786D01*
X176517213Y-109088028D01*
X176351614Y-108967715D01*
X176345006Y-108964348D01*
X176258917Y-108920483D01*
X176208123Y-108872511D01*
X176191328Y-108804690D01*
X176213865Y-108738555D01*
X176258917Y-108699516D01*
X176351610Y-108652287D01*
X176403573Y-108614534D01*
X176517213Y-108531971D01*
X176517215Y-108531968D01*
X176517219Y-108531966D01*
X176661966Y-108387219D01*
X176661968Y-108387215D01*
X176661971Y-108387213D01*
X176732035Y-108290776D01*
X176782287Y-108221610D01*
X176875220Y-108039219D01*
X176938477Y-107844534D01*
X176970500Y-107642352D01*
X176970500Y-107437648D01*
X176938477Y-107235466D01*
X176914772Y-107162511D01*
X176896187Y-107105311D01*
X176875220Y-107040781D01*
X176875218Y-107040778D01*
X176875218Y-107040776D01*
X176838419Y-106968555D01*
X176782287Y-106858390D01*
X176755824Y-106821966D01*
X176661971Y-106692786D01*
X176517213Y-106548028D01*
X176351614Y-106427715D01*
X176305844Y-106404394D01*
X176258917Y-106380483D01*
X176208123Y-106332511D01*
X176191328Y-106264690D01*
X176213865Y-106198555D01*
X176258917Y-106159516D01*
X176351610Y-106112287D01*
X176391589Y-106083241D01*
X176517213Y-105991971D01*
X176517215Y-105991968D01*
X176517219Y-105991966D01*
X176661966Y-105847219D01*
X176661968Y-105847215D01*
X176661971Y-105847213D01*
X176733303Y-105749031D01*
X176782287Y-105681610D01*
X176875220Y-105499219D01*
X176938477Y-105304534D01*
X176970500Y-105102352D01*
X176970500Y-104897648D01*
X176938477Y-104695466D01*
X176925177Y-104654534D01*
X176896187Y-104565311D01*
X176875220Y-104500781D01*
X176875218Y-104500778D01*
X176875218Y-104500776D01*
X176838419Y-104428555D01*
X176782287Y-104318390D01*
X176755824Y-104281966D01*
X176661971Y-104152786D01*
X176517219Y-104008034D01*
X176480930Y-103981669D01*
X176438264Y-103926339D01*
X176432285Y-103856726D01*
X176464890Y-103794931D01*
X176525728Y-103760573D01*
X176540562Y-103758060D01*
X176577483Y-103754091D01*
X176642074Y-103730000D01*
X176712331Y-103703796D01*
X176827546Y-103617546D01*
X176913796Y-103502331D01*
X176964091Y-103367483D01*
X176970500Y-103307873D01*
X176970499Y-102357648D01*
X179449500Y-102357648D01*
X179449500Y-102562351D01*
X179481522Y-102764534D01*
X179544781Y-102959223D01*
X179637715Y-103141613D01*
X179758028Y-103307213D01*
X179902786Y-103451971D01*
X180047824Y-103557345D01*
X180068390Y-103572287D01*
X180157212Y-103617544D01*
X180161080Y-103619515D01*
X180211876Y-103667490D01*
X180228671Y-103735311D01*
X180206134Y-103801446D01*
X180161080Y-103840485D01*
X180068386Y-103887715D01*
X179902786Y-104008028D01*
X179758028Y-104152786D01*
X179637715Y-104318386D01*
X179544781Y-104500776D01*
X179481522Y-104695465D01*
X179449500Y-104897648D01*
X179449500Y-105102351D01*
X179481522Y-105304534D01*
X179544781Y-105499223D01*
X179637715Y-105681613D01*
X179758028Y-105847213D01*
X179902786Y-105991971D01*
X180028411Y-106083241D01*
X180068390Y-106112287D01*
X180159840Y-106158883D01*
X180161080Y-106159515D01*
X180211876Y-106207490D01*
X180228671Y-106275311D01*
X180206134Y-106341446D01*
X180161080Y-106380485D01*
X180068386Y-106427715D01*
X179902786Y-106548028D01*
X179758028Y-106692786D01*
X179637715Y-106858386D01*
X179544781Y-107040776D01*
X179481522Y-107235465D01*
X179449500Y-107437648D01*
X179449500Y-107642351D01*
X179481522Y-107844534D01*
X179544781Y-108039223D01*
X179637715Y-108221613D01*
X179758028Y-108387213D01*
X179902786Y-108531971D01*
X180016427Y-108614534D01*
X180068390Y-108652287D01*
X180137790Y-108687648D01*
X180161080Y-108699515D01*
X180211876Y-108747490D01*
X180228671Y-108815311D01*
X180206134Y-108881446D01*
X180161080Y-108920485D01*
X180068386Y-108967715D01*
X179902786Y-109088028D01*
X179758028Y-109232786D01*
X179637715Y-109398386D01*
X179544781Y-109580776D01*
X179481522Y-109775465D01*
X179449500Y-109977648D01*
X179449500Y-110182351D01*
X179481522Y-110384534D01*
X179544781Y-110579223D01*
X179637715Y-110761613D01*
X179758028Y-110927213D01*
X179902786Y-111071971D01*
X180023950Y-111160000D01*
X180068390Y-111192287D01*
X180142563Y-111230080D01*
X180161080Y-111239515D01*
X180211876Y-111287490D01*
X180228671Y-111355311D01*
X180206134Y-111421446D01*
X180161080Y-111460485D01*
X180068386Y-111507715D01*
X179902786Y-111628028D01*
X179758028Y-111772786D01*
X179637715Y-111938386D01*
X179544781Y-112120776D01*
X179481522Y-112315465D01*
X179449500Y-112517648D01*
X179449500Y-112722351D01*
X179481522Y-112924534D01*
X179544781Y-113119223D01*
X179637715Y-113301613D01*
X179758028Y-113467213D01*
X179902786Y-113611971D01*
X180023950Y-113700000D01*
X180068390Y-113732287D01*
X180184607Y-113791503D01*
X180250776Y-113825218D01*
X180250778Y-113825218D01*
X180250781Y-113825220D01*
X180327046Y-113850000D01*
X180445465Y-113888477D01*
X180546557Y-113904488D01*
X180647648Y-113920500D01*
X180647649Y-113920500D01*
X180852351Y-113920500D01*
X180852352Y-113920500D01*
X181054534Y-113888477D01*
X181249219Y-113825220D01*
X181431610Y-113732287D01*
X181524590Y-113664732D01*
X181597213Y-113611971D01*
X181597215Y-113611968D01*
X181597219Y-113611966D01*
X181741966Y-113467219D01*
X181741968Y-113467215D01*
X181741971Y-113467213D01*
X181794732Y-113394590D01*
X181862287Y-113301610D01*
X181955220Y-113119219D01*
X182018477Y-112924534D01*
X182050500Y-112722352D01*
X182050500Y-112517648D01*
X182018477Y-112315466D01*
X181994772Y-112242511D01*
X181976187Y-112185311D01*
X181955220Y-112120781D01*
X181955218Y-112120778D01*
X181955218Y-112120776D01*
X181905783Y-112023756D01*
X181862287Y-111938390D01*
X181835545Y-111901582D01*
X181741971Y-111772786D01*
X181597213Y-111628028D01*
X181431614Y-111507715D01*
X181425006Y-111504348D01*
X181338917Y-111460483D01*
X181288123Y-111412511D01*
X181271328Y-111344690D01*
X181293865Y-111278555D01*
X181338917Y-111239516D01*
X181431610Y-111192287D01*
X181476050Y-111160000D01*
X181597213Y-111071971D01*
X181597215Y-111071968D01*
X181597219Y-111071966D01*
X181741966Y-110927219D01*
X181741968Y-110927215D01*
X181741971Y-110927213D01*
X181794732Y-110854590D01*
X181862287Y-110761610D01*
X181955220Y-110579219D01*
X182018477Y-110384534D01*
X182050500Y-110182352D01*
X182050500Y-109977648D01*
X182018477Y-109775466D01*
X181994772Y-109702511D01*
X181976187Y-109645311D01*
X181955220Y-109580781D01*
X181955218Y-109580778D01*
X181955218Y-109580776D01*
X181910389Y-109492795D01*
X181862287Y-109398390D01*
X181835824Y-109361966D01*
X181741971Y-109232786D01*
X181597213Y-109088028D01*
X181431614Y-108967715D01*
X181425006Y-108964348D01*
X181338917Y-108920483D01*
X181288123Y-108872511D01*
X181271328Y-108804690D01*
X181293865Y-108738555D01*
X181338917Y-108699516D01*
X181431610Y-108652287D01*
X181483573Y-108614534D01*
X181597213Y-108531971D01*
X181597215Y-108531968D01*
X181597219Y-108531966D01*
X181741966Y-108387219D01*
X181741968Y-108387215D01*
X181741971Y-108387213D01*
X181812035Y-108290776D01*
X181862287Y-108221610D01*
X181955220Y-108039219D01*
X182018477Y-107844534D01*
X182050500Y-107642352D01*
X182050500Y-107437648D01*
X182018477Y-107235466D01*
X181994772Y-107162511D01*
X181976187Y-107105311D01*
X181955220Y-107040781D01*
X181955218Y-107040778D01*
X181955218Y-107040776D01*
X181918419Y-106968555D01*
X181862287Y-106858390D01*
X181835824Y-106821966D01*
X181741971Y-106692786D01*
X181597213Y-106548028D01*
X181431614Y-106427715D01*
X181385844Y-106404394D01*
X181338917Y-106380483D01*
X181288123Y-106332511D01*
X181271328Y-106264690D01*
X181293865Y-106198555D01*
X181338917Y-106159516D01*
X181431610Y-106112287D01*
X181471589Y-106083241D01*
X181597213Y-105991971D01*
X181597215Y-105991968D01*
X181597219Y-105991966D01*
X181741966Y-105847219D01*
X181741968Y-105847215D01*
X181741971Y-105847213D01*
X181813303Y-105749031D01*
X181862287Y-105681610D01*
X181955220Y-105499219D01*
X182018477Y-105304534D01*
X182050500Y-105102352D01*
X182050500Y-104897648D01*
X182018477Y-104695466D01*
X182005177Y-104654534D01*
X181976187Y-104565311D01*
X181955220Y-104500781D01*
X181955218Y-104500778D01*
X181955218Y-104500776D01*
X181918419Y-104428555D01*
X181862287Y-104318390D01*
X181835824Y-104281966D01*
X181741971Y-104152786D01*
X181597213Y-104008028D01*
X181431614Y-103887715D01*
X181385844Y-103864394D01*
X181338917Y-103840483D01*
X181288123Y-103792511D01*
X181271328Y-103724690D01*
X181293865Y-103658555D01*
X181338917Y-103619516D01*
X181431610Y-103572287D01*
X181483573Y-103534534D01*
X181597213Y-103451971D01*
X181597215Y-103451968D01*
X181597219Y-103451966D01*
X181741966Y-103307219D01*
X181741968Y-103307215D01*
X181741971Y-103307213D01*
X181812035Y-103210776D01*
X181862287Y-103141610D01*
X181955220Y-102959219D01*
X182018477Y-102764534D01*
X182050500Y-102562352D01*
X182050500Y-102357648D01*
X182018477Y-102155466D01*
X182005177Y-102114534D01*
X181976187Y-102025311D01*
X181955220Y-101960781D01*
X181955218Y-101960778D01*
X181955218Y-101960776D01*
X181918419Y-101888555D01*
X181862287Y-101778390D01*
X181835824Y-101741966D01*
X181741971Y-101612786D01*
X181597213Y-101468028D01*
X181431613Y-101347715D01*
X181431612Y-101347714D01*
X181431610Y-101347713D01*
X181374653Y-101318691D01*
X181249223Y-101254781D01*
X181054534Y-101191522D01*
X181014923Y-101185249D01*
X180940831Y-101173514D01*
X180852352Y-101159500D01*
X180647648Y-101159500D01*
X180623329Y-101163351D01*
X180445465Y-101191522D01*
X180250776Y-101254781D01*
X180068386Y-101347715D01*
X179902786Y-101468028D01*
X179758028Y-101612786D01*
X179637715Y-101778386D01*
X179544781Y-101960776D01*
X179481522Y-102155465D01*
X179449500Y-102357648D01*
X176970499Y-102357648D01*
X176970499Y-101612128D01*
X176964091Y-101552517D01*
X176958385Y-101537219D01*
X176913797Y-101417671D01*
X176913793Y-101417664D01*
X176827547Y-101302455D01*
X176827544Y-101302452D01*
X176712335Y-101216206D01*
X176712328Y-101216202D01*
X176577482Y-101165908D01*
X176577483Y-101165908D01*
X176517883Y-101159501D01*
X176517881Y-101159500D01*
X176517873Y-101159500D01*
X176517864Y-101159500D01*
X174822129Y-101159500D01*
X174822123Y-101159501D01*
X174762516Y-101165908D01*
X174627671Y-101216202D01*
X174627664Y-101216206D01*
X174512455Y-101302452D01*
X174512452Y-101302455D01*
X174426206Y-101417664D01*
X174426202Y-101417671D01*
X174375908Y-101552517D01*
X174369501Y-101612116D01*
X174369501Y-101612123D01*
X174369500Y-101612135D01*
X159877050Y-101612135D01*
X159951966Y-101537219D01*
X159951970Y-101537213D01*
X159952909Y-101535922D01*
X159952909Y-101535921D01*
X160002231Y-101468034D01*
X160072287Y-101371610D01*
X160165220Y-101189219D01*
X160204721Y-101067648D01*
X186449500Y-101067648D01*
X186449500Y-101272351D01*
X186481522Y-101474534D01*
X186544781Y-101669223D01*
X186581849Y-101741971D01*
X186637585Y-101851359D01*
X186637715Y-101851613D01*
X186758028Y-102017213D01*
X186902786Y-102161971D01*
X187007472Y-102238028D01*
X187068390Y-102282287D01*
X187159840Y-102328883D01*
X187161080Y-102329515D01*
X187211876Y-102377490D01*
X187228671Y-102445311D01*
X187206134Y-102511446D01*
X187161080Y-102550485D01*
X187068386Y-102597715D01*
X186902786Y-102718028D01*
X186758028Y-102862786D01*
X186637715Y-103028386D01*
X186544781Y-103210776D01*
X186481522Y-103405465D01*
X186449500Y-103607648D01*
X186449500Y-103812351D01*
X186481522Y-104014534D01*
X186544781Y-104209223D01*
X186581849Y-104281971D01*
X186637585Y-104391359D01*
X186637715Y-104391613D01*
X186758028Y-104557213D01*
X186902786Y-104701971D01*
X187007472Y-104778028D01*
X187068390Y-104822287D01*
X187159840Y-104868883D01*
X187161080Y-104869515D01*
X187211876Y-104917490D01*
X187228671Y-104985311D01*
X187206134Y-105051446D01*
X187161080Y-105090485D01*
X187068386Y-105137715D01*
X186902786Y-105258028D01*
X186758028Y-105402786D01*
X186637715Y-105568386D01*
X186544781Y-105750776D01*
X186481522Y-105945465D01*
X186453984Y-106119336D01*
X186449500Y-106147648D01*
X186449500Y-106352352D01*
X186451006Y-106361859D01*
X186481522Y-106554534D01*
X186544781Y-106749223D01*
X186581849Y-106821971D01*
X186637585Y-106931359D01*
X186637715Y-106931613D01*
X186758028Y-107097213D01*
X186902786Y-107241971D01*
X187007472Y-107318028D01*
X187068390Y-107362287D01*
X187159840Y-107408883D01*
X187161080Y-107409515D01*
X187211876Y-107457490D01*
X187228671Y-107525311D01*
X187206134Y-107591446D01*
X187161080Y-107630485D01*
X187068386Y-107677715D01*
X186902786Y-107798028D01*
X186758028Y-107942786D01*
X186637715Y-108108386D01*
X186544781Y-108290776D01*
X186481522Y-108485465D01*
X186449500Y-108687648D01*
X186449500Y-108892351D01*
X186481522Y-109094534D01*
X186544781Y-109289223D01*
X186637715Y-109471613D01*
X186758028Y-109637213D01*
X186902786Y-109781971D01*
X187007472Y-109858028D01*
X187068390Y-109902287D01*
X187184607Y-109961503D01*
X187250776Y-109995218D01*
X187250778Y-109995218D01*
X187250781Y-109995220D01*
X187341856Y-110024812D01*
X187445465Y-110058477D01*
X187546557Y-110074488D01*
X187647648Y-110090500D01*
X187647649Y-110090500D01*
X187852351Y-110090500D01*
X187852352Y-110090500D01*
X188054534Y-110058477D01*
X188249219Y-109995220D01*
X188431610Y-109902287D01*
X188560482Y-109808657D01*
X188597213Y-109781971D01*
X188597215Y-109781968D01*
X188597219Y-109781966D01*
X188741966Y-109637219D01*
X188741968Y-109637215D01*
X188741971Y-109637213D01*
X188820217Y-109529515D01*
X188862287Y-109471610D01*
X188955220Y-109289219D01*
X189018477Y-109094534D01*
X189050500Y-108892352D01*
X189050500Y-108687648D01*
X189018477Y-108485466D01*
X188994720Y-108412351D01*
X188955218Y-108290776D01*
X188930940Y-108243129D01*
X188919977Y-108221613D01*
X188903861Y-108189983D01*
X194069500Y-108189983D01*
X194069500Y-109390001D01*
X194069501Y-109390018D01*
X194080000Y-109492796D01*
X194080001Y-109492799D01*
X194108897Y-109580000D01*
X194135186Y-109659334D01*
X194227288Y-109808656D01*
X194351344Y-109932712D01*
X194500666Y-110024814D01*
X194667203Y-110079999D01*
X194769991Y-110090500D01*
X195970008Y-110090499D01*
X196072797Y-110079999D01*
X196239334Y-110024814D01*
X196388656Y-109932712D01*
X196512712Y-109808656D01*
X196604814Y-109659334D01*
X196659999Y-109492797D01*
X196670500Y-109390009D01*
X196670499Y-108189992D01*
X196659999Y-108087203D01*
X196604814Y-107920666D01*
X196512712Y-107771344D01*
X196388656Y-107647288D01*
X196239334Y-107555186D01*
X196156843Y-107527851D01*
X196099398Y-107488077D01*
X196072576Y-107423561D01*
X196084891Y-107354786D01*
X196094856Y-107343018D01*
X196095921Y-107329474D01*
X195416447Y-106650000D01*
X195422661Y-106650000D01*
X195524394Y-106622741D01*
X195615606Y-106570080D01*
X195690080Y-106495606D01*
X195742741Y-106404394D01*
X195770000Y-106302661D01*
X195770000Y-106296447D01*
X196449474Y-106975921D01*
X196481859Y-106931349D01*
X196574755Y-106749031D01*
X196637990Y-106554417D01*
X196670000Y-106352317D01*
X196670000Y-106147682D01*
X196637990Y-105945582D01*
X196574755Y-105750968D01*
X196481859Y-105568650D01*
X196449474Y-105524077D01*
X196449474Y-105524076D01*
X195770000Y-106203551D01*
X195770000Y-106197339D01*
X195742741Y-106095606D01*
X195690080Y-106004394D01*
X195615606Y-105929920D01*
X195524394Y-105877259D01*
X195422661Y-105850000D01*
X195416446Y-105850000D01*
X196095922Y-105170524D01*
X196095921Y-105170523D01*
X196051359Y-105138147D01*
X196051350Y-105138141D01*
X195957819Y-105090485D01*
X195907023Y-105042511D01*
X195890228Y-104974690D01*
X195912765Y-104908555D01*
X195957820Y-104869515D01*
X196051346Y-104821861D01*
X196051347Y-104821861D01*
X196095921Y-104789474D01*
X196095922Y-104789474D01*
X196040963Y-104734515D01*
X195956431Y-104649983D01*
X197949500Y-104649983D01*
X197949500Y-105850001D01*
X197949501Y-105850018D01*
X197960000Y-105952796D01*
X197960001Y-105952799D01*
X198015185Y-106119331D01*
X198015187Y-106119336D01*
X198040941Y-106161090D01*
X198107288Y-106268656D01*
X198231344Y-106392712D01*
X198380666Y-106484814D01*
X198547203Y-106539999D01*
X198649991Y-106550500D01*
X199850008Y-106550499D01*
X199952797Y-106539999D01*
X200119334Y-106484814D01*
X200268656Y-106392712D01*
X200337879Y-106323489D01*
X200399202Y-106290004D01*
X200468894Y-106294988D01*
X200498446Y-106310853D01*
X200568646Y-106361857D01*
X200750968Y-106454755D01*
X200945582Y-106517990D01*
X201147683Y-106550000D01*
X201352317Y-106550000D01*
X201554417Y-106517990D01*
X201749031Y-106454755D01*
X201931349Y-106361859D01*
X201975921Y-106329474D01*
X201296447Y-105650000D01*
X201302661Y-105650000D01*
X201404394Y-105622741D01*
X201495606Y-105570080D01*
X201570080Y-105495606D01*
X201622741Y-105404394D01*
X201650000Y-105302661D01*
X201650000Y-105296447D01*
X202329474Y-105975921D01*
X202361859Y-105931349D01*
X202454755Y-105749031D01*
X202517990Y-105554417D01*
X202550000Y-105352317D01*
X202550000Y-105147682D01*
X202517990Y-104945582D01*
X202454755Y-104750968D01*
X202361859Y-104568650D01*
X202329474Y-104524077D01*
X202329474Y-104524076D01*
X201650000Y-105203551D01*
X201650000Y-105197339D01*
X201622741Y-105095606D01*
X201570080Y-105004394D01*
X201495606Y-104929920D01*
X201404394Y-104877259D01*
X201302661Y-104850000D01*
X201296446Y-104850000D01*
X201975922Y-104170524D01*
X201975921Y-104170523D01*
X201931359Y-104138147D01*
X201931350Y-104138141D01*
X201749031Y-104045244D01*
X201554417Y-103982009D01*
X201352317Y-103950000D01*
X201147683Y-103950000D01*
X200945582Y-103982009D01*
X200750968Y-104045244D01*
X200568651Y-104138139D01*
X200498444Y-104189148D01*
X200432637Y-104212627D01*
X200364583Y-104196801D01*
X200337878Y-104176510D01*
X200268657Y-104107289D01*
X200268656Y-104107288D01*
X200119334Y-104015186D01*
X199952797Y-103960001D01*
X199952795Y-103960000D01*
X199850010Y-103949500D01*
X198649998Y-103949500D01*
X198649981Y-103949501D01*
X198547203Y-103960000D01*
X198547200Y-103960001D01*
X198380668Y-104015185D01*
X198380663Y-104015187D01*
X198231342Y-104107289D01*
X198107289Y-104231342D01*
X198015187Y-104380663D01*
X198015185Y-104380668D01*
X197996876Y-104435921D01*
X197960001Y-104547203D01*
X197960001Y-104547204D01*
X197960000Y-104547204D01*
X197949500Y-104649983D01*
X195956431Y-104649983D01*
X195416447Y-104110000D01*
X195422661Y-104110000D01*
X195524394Y-104082741D01*
X195615606Y-104030080D01*
X195690080Y-103955606D01*
X195742741Y-103864394D01*
X195770000Y-103762661D01*
X195770000Y-103756447D01*
X196449474Y-104435921D01*
X196481859Y-104391349D01*
X196574755Y-104209031D01*
X196637990Y-104014417D01*
X196670000Y-103812317D01*
X196670000Y-103607682D01*
X196637990Y-103405582D01*
X196574755Y-103210968D01*
X196481859Y-103028650D01*
X196449474Y-102984077D01*
X196449474Y-102984076D01*
X195770000Y-103663551D01*
X195770000Y-103657339D01*
X195742741Y-103555606D01*
X195690080Y-103464394D01*
X195615606Y-103389920D01*
X195524394Y-103337259D01*
X195422661Y-103310000D01*
X195416446Y-103310000D01*
X196095922Y-102630524D01*
X196095921Y-102630523D01*
X196051359Y-102598147D01*
X196051350Y-102598141D01*
X195957819Y-102550485D01*
X195907023Y-102502511D01*
X195890228Y-102434690D01*
X195912765Y-102368555D01*
X195957820Y-102329515D01*
X196051346Y-102281861D01*
X196051347Y-102281861D01*
X196095921Y-102249474D01*
X195416447Y-101570000D01*
X195422661Y-101570000D01*
X195524394Y-101542741D01*
X195615606Y-101490080D01*
X195690080Y-101415606D01*
X195742741Y-101324394D01*
X195770000Y-101222661D01*
X195770000Y-101216447D01*
X196449474Y-101895921D01*
X196481859Y-101851349D01*
X196574755Y-101669031D01*
X196637990Y-101474417D01*
X196670000Y-101272317D01*
X196670000Y-101067682D01*
X196637990Y-100865582D01*
X196574755Y-100670968D01*
X196481859Y-100488650D01*
X196449474Y-100444077D01*
X196449474Y-100444076D01*
X195770000Y-101123551D01*
X195770000Y-101117339D01*
X195742741Y-101015606D01*
X195690080Y-100924394D01*
X195615606Y-100849920D01*
X195524394Y-100797259D01*
X195422661Y-100770000D01*
X195416446Y-100770000D01*
X196095922Y-100090524D01*
X196095921Y-100090523D01*
X196051359Y-100058147D01*
X196051350Y-100058141D01*
X195869031Y-99965244D01*
X195674417Y-99902009D01*
X195472317Y-99870000D01*
X195267683Y-99870000D01*
X195065582Y-99902009D01*
X194870968Y-99965244D01*
X194688644Y-100058143D01*
X194644077Y-100090523D01*
X194644077Y-100090524D01*
X195323554Y-100770000D01*
X195317339Y-100770000D01*
X195215606Y-100797259D01*
X195124394Y-100849920D01*
X195049920Y-100924394D01*
X194997259Y-101015606D01*
X194970000Y-101117339D01*
X194970000Y-101123553D01*
X194290524Y-100444077D01*
X194290523Y-100444077D01*
X194258143Y-100488644D01*
X194165244Y-100670968D01*
X194102009Y-100865582D01*
X194070000Y-101067682D01*
X194070000Y-101272317D01*
X194102009Y-101474417D01*
X194165244Y-101669031D01*
X194258141Y-101851350D01*
X194258147Y-101851359D01*
X194290523Y-101895921D01*
X194290524Y-101895922D01*
X194970000Y-101216446D01*
X194970000Y-101222661D01*
X194997259Y-101324394D01*
X195049920Y-101415606D01*
X195124394Y-101490080D01*
X195215606Y-101542741D01*
X195317339Y-101570000D01*
X195323553Y-101570000D01*
X194644076Y-102249474D01*
X194688650Y-102281859D01*
X194782180Y-102329515D01*
X194832976Y-102377489D01*
X194849771Y-102445310D01*
X194827234Y-102511445D01*
X194782180Y-102550485D01*
X194688644Y-102598143D01*
X194644077Y-102630523D01*
X194644077Y-102630524D01*
X195323554Y-103310000D01*
X195317339Y-103310000D01*
X195215606Y-103337259D01*
X195124394Y-103389920D01*
X195049920Y-103464394D01*
X194997259Y-103555606D01*
X194970000Y-103657339D01*
X194970000Y-103663553D01*
X194290524Y-102984077D01*
X194290523Y-102984077D01*
X194258143Y-103028644D01*
X194165244Y-103210968D01*
X194102009Y-103405582D01*
X194070000Y-103607682D01*
X194070000Y-103812317D01*
X194102009Y-104014417D01*
X194165244Y-104209031D01*
X194258141Y-104391350D01*
X194258147Y-104391359D01*
X194290523Y-104435921D01*
X194290524Y-104435922D01*
X194970000Y-103756446D01*
X194970000Y-103762661D01*
X194997259Y-103864394D01*
X195049920Y-103955606D01*
X195124394Y-104030080D01*
X195215606Y-104082741D01*
X195317339Y-104110000D01*
X195323553Y-104110000D01*
X194644076Y-104789474D01*
X194688650Y-104821859D01*
X194782180Y-104869515D01*
X194832976Y-104917489D01*
X194849771Y-104985310D01*
X194827234Y-105051445D01*
X194782180Y-105090485D01*
X194688644Y-105138143D01*
X194644077Y-105170523D01*
X194644077Y-105170524D01*
X195323554Y-105850000D01*
X195317339Y-105850000D01*
X195215606Y-105877259D01*
X195124394Y-105929920D01*
X195049920Y-106004394D01*
X194997259Y-106095606D01*
X194970000Y-106197339D01*
X194970000Y-106203553D01*
X194290524Y-105524077D01*
X194290523Y-105524077D01*
X194258143Y-105568644D01*
X194165244Y-105750968D01*
X194102009Y-105945582D01*
X194070000Y-106147682D01*
X194070000Y-106352317D01*
X194102009Y-106554417D01*
X194165244Y-106749031D01*
X194258141Y-106931350D01*
X194258147Y-106931359D01*
X194290523Y-106975921D01*
X194290524Y-106975922D01*
X194970000Y-106296446D01*
X194970000Y-106302661D01*
X194997259Y-106404394D01*
X195049920Y-106495606D01*
X195124394Y-106570080D01*
X195215606Y-106622741D01*
X195317339Y-106650000D01*
X195323553Y-106650000D01*
X194644076Y-107329474D01*
X194645428Y-107346649D01*
X194659701Y-107365158D01*
X194665680Y-107434771D01*
X194633074Y-107496566D01*
X194583155Y-107527851D01*
X194500666Y-107555186D01*
X194500663Y-107555187D01*
X194351342Y-107647289D01*
X194227289Y-107771342D01*
X194135187Y-107920663D01*
X194135186Y-107920666D01*
X194080001Y-108087203D01*
X194080001Y-108087204D01*
X194080000Y-108087204D01*
X194069500Y-108189983D01*
X188903861Y-108189983D01*
X188862287Y-108108390D01*
X188862285Y-108108387D01*
X188862284Y-108108385D01*
X188741971Y-107942786D01*
X188597213Y-107798028D01*
X188431614Y-107677715D01*
X188425006Y-107674348D01*
X188338917Y-107630483D01*
X188288123Y-107582511D01*
X188271328Y-107514690D01*
X188293865Y-107448555D01*
X188338917Y-107409516D01*
X188431610Y-107362287D01*
X188492528Y-107318028D01*
X188597213Y-107241971D01*
X188597215Y-107241968D01*
X188597219Y-107241966D01*
X188741966Y-107097219D01*
X188741968Y-107097215D01*
X188741971Y-107097213D01*
X188820217Y-106989515D01*
X188862287Y-106931610D01*
X188955220Y-106749219D01*
X189018477Y-106554534D01*
X189050500Y-106352352D01*
X189050500Y-106147648D01*
X189040299Y-106083241D01*
X189018477Y-105945465D01*
X188977970Y-105820798D01*
X188955220Y-105750781D01*
X188955218Y-105750778D01*
X188955218Y-105750776D01*
X188919976Y-105681610D01*
X188862287Y-105568390D01*
X188831101Y-105525466D01*
X188741971Y-105402786D01*
X188597213Y-105258028D01*
X188431614Y-105137715D01*
X188362208Y-105102351D01*
X188338917Y-105090483D01*
X188288123Y-105042511D01*
X188271328Y-104974690D01*
X188293865Y-104908555D01*
X188338917Y-104869516D01*
X188431610Y-104822287D01*
X188552419Y-104734515D01*
X188597213Y-104701971D01*
X188597215Y-104701968D01*
X188597219Y-104701966D01*
X188741966Y-104557219D01*
X188741968Y-104557215D01*
X188741971Y-104557213D01*
X188820217Y-104449515D01*
X188862287Y-104391610D01*
X188955220Y-104209219D01*
X189018477Y-104014534D01*
X189050500Y-103812352D01*
X189050500Y-103607648D01*
X189027984Y-103465488D01*
X189018477Y-103405465D01*
X188983515Y-103297864D01*
X188955220Y-103210781D01*
X188955218Y-103210778D01*
X188955218Y-103210776D01*
X188919976Y-103141610D01*
X188862287Y-103028390D01*
X188831101Y-102985466D01*
X188741971Y-102862786D01*
X188597213Y-102718028D01*
X188431614Y-102597715D01*
X188362208Y-102562351D01*
X188338917Y-102550483D01*
X188288123Y-102502511D01*
X188271328Y-102434690D01*
X188293865Y-102368555D01*
X188338917Y-102329516D01*
X188431610Y-102282287D01*
X188492528Y-102238028D01*
X188597213Y-102161971D01*
X188597215Y-102161968D01*
X188597219Y-102161966D01*
X188741966Y-102017219D01*
X188741968Y-102017215D01*
X188741971Y-102017213D01*
X188820217Y-101909515D01*
X188862287Y-101851610D01*
X188955220Y-101669219D01*
X189018477Y-101474534D01*
X189050500Y-101272352D01*
X189050500Y-101067648D01*
X189036622Y-100980025D01*
X189018477Y-100865465D01*
X188987458Y-100770000D01*
X188955220Y-100670781D01*
X188955218Y-100670778D01*
X188955218Y-100670776D01*
X188918349Y-100598417D01*
X188862287Y-100488390D01*
X188831101Y-100445466D01*
X188741971Y-100322786D01*
X188597213Y-100178028D01*
X188431613Y-100057715D01*
X188431612Y-100057714D01*
X188431610Y-100057713D01*
X188357545Y-100019975D01*
X188249223Y-99964781D01*
X188054534Y-99901522D01*
X187879995Y-99873878D01*
X187852352Y-99869500D01*
X187647648Y-99869500D01*
X187623329Y-99873351D01*
X187445465Y-99901522D01*
X187250776Y-99964781D01*
X187068386Y-100057715D01*
X186902786Y-100178028D01*
X186758028Y-100322786D01*
X186637715Y-100488386D01*
X186544781Y-100670776D01*
X186481522Y-100865465D01*
X186449500Y-101067648D01*
X160204721Y-101067648D01*
X160228477Y-100994534D01*
X160260500Y-100792352D01*
X160260500Y-100587648D01*
X160228477Y-100385466D01*
X160208109Y-100322781D01*
X160184715Y-100250781D01*
X160165220Y-100190781D01*
X160165218Y-100190778D01*
X160165218Y-100190776D01*
X160114136Y-100090523D01*
X160072287Y-100008390D01*
X160040940Y-99965244D01*
X159951971Y-99842786D01*
X159807213Y-99698028D01*
X159641614Y-99577715D01*
X159576975Y-99544780D01*
X159548917Y-99530483D01*
X159498123Y-99482511D01*
X159481328Y-99414690D01*
X159503865Y-99348555D01*
X159548917Y-99309516D01*
X159641610Y-99262287D01*
X159724629Y-99201971D01*
X159807213Y-99141971D01*
X159807215Y-99141968D01*
X159807219Y-99141966D01*
X159951966Y-98997219D01*
X159951968Y-98997215D01*
X159951971Y-98997213D01*
X160004732Y-98924590D01*
X160072287Y-98831610D01*
X160165220Y-98649219D01*
X160228477Y-98454534D01*
X160260500Y-98252352D01*
X160260500Y-98047648D01*
X160237980Y-97905465D01*
X160228477Y-97845465D01*
X160184715Y-97710781D01*
X160165220Y-97650781D01*
X160165218Y-97650778D01*
X160165218Y-97650776D01*
X160131503Y-97584607D01*
X160072287Y-97468390D01*
X160053585Y-97442649D01*
X159951971Y-97302786D01*
X159807213Y-97158028D01*
X159641611Y-97037713D01*
X159548369Y-96990203D01*
X159497574Y-96942229D01*
X159480779Y-96874407D01*
X159503317Y-96808273D01*
X159548371Y-96769234D01*
X159641347Y-96721861D01*
X159806894Y-96601582D01*
X159806895Y-96601582D01*
X159951582Y-96456895D01*
X159951582Y-96456894D01*
X160071859Y-96291349D01*
X160164755Y-96109029D01*
X160227990Y-95914413D01*
X160236609Y-95860000D01*
X158875686Y-95860000D01*
X158880080Y-95855606D01*
X158932741Y-95764394D01*
X158960000Y-95662661D01*
X158960000Y-95557339D01*
X158932741Y-95455606D01*
X158880080Y-95364394D01*
X158875686Y-95360000D01*
X160236609Y-95360000D01*
X160227990Y-95305586D01*
X160164755Y-95110970D01*
X160071859Y-94928650D01*
X159951582Y-94763105D01*
X159951582Y-94763104D01*
X159806895Y-94618417D01*
X159641349Y-94498140D01*
X159459031Y-94405244D01*
X159264417Y-94342009D01*
X159062317Y-94310000D01*
X158810000Y-94310000D01*
X158810000Y-95294314D01*
X158805606Y-95289920D01*
X158714394Y-95237259D01*
X158612661Y-95210000D01*
X158507339Y-95210000D01*
X158405606Y-95237259D01*
X158314394Y-95289920D01*
X158310000Y-95294314D01*
X158310000Y-94310000D01*
X158057683Y-94310000D01*
X157855582Y-94342009D01*
X157660968Y-94405244D01*
X157478650Y-94498140D01*
X157313105Y-94618417D01*
X157313104Y-94618417D01*
X157168417Y-94763104D01*
X157168417Y-94763105D01*
X157048140Y-94928650D01*
X156955244Y-95110970D01*
X156892009Y-95305586D01*
X156883391Y-95360000D01*
X158244314Y-95360000D01*
X158239920Y-95364394D01*
X158187259Y-95455606D01*
X158160000Y-95557339D01*
X158160000Y-95662661D01*
X158187259Y-95764394D01*
X158239920Y-95855606D01*
X158244314Y-95860000D01*
X156883391Y-95860000D01*
X156892009Y-95914413D01*
X156955244Y-96109029D01*
X157048140Y-96291349D01*
X157168417Y-96456894D01*
X157168417Y-96456895D01*
X157313104Y-96601582D01*
X157478652Y-96721861D01*
X157571628Y-96769234D01*
X157622425Y-96817208D01*
X157639220Y-96885029D01*
X157616683Y-96951164D01*
X157571630Y-96990203D01*
X157478388Y-97037713D01*
X157312786Y-97158028D01*
X157168028Y-97302786D01*
X157047715Y-97468386D01*
X156954781Y-97650776D01*
X156891522Y-97845465D01*
X156859500Y-98047648D01*
X152640500Y-98047648D01*
X152617980Y-97905465D01*
X152608477Y-97845465D01*
X152564715Y-97710781D01*
X152545220Y-97650781D01*
X152545218Y-97650778D01*
X152545218Y-97650776D01*
X152511503Y-97584607D01*
X152452287Y-97468390D01*
X152433585Y-97442649D01*
X152331971Y-97302786D01*
X152187213Y-97158028D01*
X152021614Y-97037715D01*
X151975822Y-97014383D01*
X151928917Y-96990483D01*
X151878123Y-96942511D01*
X151861328Y-96874690D01*
X151883865Y-96808555D01*
X151928917Y-96769516D01*
X152021610Y-96722287D01*
X152067898Y-96688657D01*
X152187213Y-96601971D01*
X152187215Y-96601968D01*
X152187219Y-96601966D01*
X152331966Y-96457219D01*
X152331968Y-96457215D01*
X152331971Y-96457213D01*
X152393303Y-96372795D01*
X152452287Y-96291610D01*
X152545220Y-96109219D01*
X152608477Y-95914534D01*
X152640500Y-95712352D01*
X152640500Y-95507648D01*
X152608477Y-95305466D01*
X152545220Y-95110781D01*
X152545218Y-95110778D01*
X152545218Y-95110776D01*
X152504636Y-95031130D01*
X152452287Y-94928390D01*
X152387277Y-94838910D01*
X152331971Y-94762786D01*
X152187213Y-94618028D01*
X152021613Y-94497715D01*
X152021612Y-94497714D01*
X152021610Y-94497713D01*
X151964653Y-94468691D01*
X151839223Y-94404781D01*
X151644534Y-94341522D01*
X151469995Y-94313878D01*
X151442352Y-94309500D01*
X150437648Y-94309500D01*
X150413329Y-94313351D01*
X150235465Y-94341522D01*
X150040776Y-94404781D01*
X149858386Y-94497715D01*
X149692786Y-94618028D01*
X149548028Y-94762786D01*
X149427715Y-94928386D01*
X149334781Y-95110776D01*
X149271522Y-95305465D01*
X149239500Y-95507648D01*
X145446685Y-95507648D01*
X145432741Y-95455606D01*
X145380080Y-95364394D01*
X145375686Y-95360000D01*
X146736609Y-95360000D01*
X146727990Y-95305586D01*
X146664755Y-95110970D01*
X146571859Y-94928650D01*
X146451582Y-94763105D01*
X146451582Y-94763104D01*
X146306895Y-94618417D01*
X146141349Y-94498140D01*
X145959031Y-94405244D01*
X145764417Y-94342009D01*
X145562317Y-94310000D01*
X145310000Y-94310000D01*
X145310000Y-95294314D01*
X145305606Y-95289920D01*
X145214394Y-95237259D01*
X145112661Y-95210000D01*
X145007339Y-95210000D01*
X144905606Y-95237259D01*
X144814394Y-95289920D01*
X144810000Y-95294314D01*
X144810000Y-94310000D01*
X144557683Y-94310000D01*
X144355582Y-94342009D01*
X144160968Y-94405244D01*
X143978650Y-94498140D01*
X143813105Y-94618417D01*
X143813104Y-94618417D01*
X143668417Y-94763104D01*
X143668417Y-94763105D01*
X143548140Y-94928650D01*
X143455244Y-95110970D01*
X143392009Y-95305586D01*
X143383391Y-95360000D01*
X144744314Y-95360000D01*
X144739920Y-95364394D01*
X144687259Y-95455606D01*
X144660000Y-95557339D01*
X144660000Y-95662661D01*
X144687259Y-95764394D01*
X144739920Y-95855606D01*
X144744314Y-95860000D01*
X143383391Y-95860000D01*
X143392009Y-95914413D01*
X143455244Y-96109029D01*
X143548140Y-96291349D01*
X143668417Y-96456894D01*
X143668417Y-96456895D01*
X143813104Y-96601582D01*
X143978650Y-96721859D01*
X144072179Y-96769515D01*
X144122975Y-96817490D01*
X144139770Y-96885311D01*
X144117232Y-96951446D01*
X144072179Y-96990485D01*
X143978650Y-97038140D01*
X143813105Y-97158417D01*
X143813104Y-97158417D01*
X143668417Y-97303104D01*
X143668417Y-97303105D01*
X143548140Y-97468650D01*
X143455244Y-97650970D01*
X143392009Y-97845586D01*
X143383391Y-97900000D01*
X144744314Y-97900000D01*
X144739920Y-97904394D01*
X144687259Y-97995606D01*
X144660000Y-98097339D01*
X144660000Y-98202661D01*
X144687259Y-98304394D01*
X144739920Y-98395606D01*
X144744314Y-98400000D01*
X143383391Y-98400000D01*
X143392009Y-98454413D01*
X143455244Y-98649029D01*
X143548140Y-98831349D01*
X143668417Y-98996894D01*
X143668417Y-98996895D01*
X143813104Y-99141582D01*
X143978652Y-99261861D01*
X144071628Y-99309234D01*
X144122425Y-99357208D01*
X144139220Y-99425029D01*
X144116683Y-99491164D01*
X144071630Y-99530203D01*
X143978388Y-99577713D01*
X143812786Y-99698028D01*
X143668028Y-99842786D01*
X143547715Y-100008386D01*
X143454781Y-100190776D01*
X143391522Y-100385465D01*
X143359500Y-100587648D01*
X139140500Y-100587648D01*
X139108477Y-100385466D01*
X139088109Y-100322781D01*
X139064715Y-100250781D01*
X139045220Y-100190781D01*
X139045218Y-100190778D01*
X139045218Y-100190776D01*
X138994136Y-100090523D01*
X138952287Y-100008390D01*
X138920940Y-99965244D01*
X138831971Y-99842786D01*
X138687213Y-99698028D01*
X138521614Y-99577715D01*
X138456975Y-99544780D01*
X138428917Y-99530483D01*
X138378123Y-99482511D01*
X138361328Y-99414690D01*
X138383865Y-99348555D01*
X138428917Y-99309516D01*
X138521610Y-99262287D01*
X138604629Y-99201971D01*
X138687213Y-99141971D01*
X138687215Y-99141968D01*
X138687219Y-99141966D01*
X138831966Y-98997219D01*
X138831968Y-98997215D01*
X138831971Y-98997213D01*
X138884732Y-98924590D01*
X138952287Y-98831610D01*
X139045220Y-98649219D01*
X139108477Y-98454534D01*
X139140500Y-98252352D01*
X139140500Y-98047648D01*
X139117980Y-97905465D01*
X139108477Y-97845465D01*
X139064715Y-97710781D01*
X139045220Y-97650781D01*
X139045218Y-97650778D01*
X139045218Y-97650776D01*
X139011503Y-97584607D01*
X138952287Y-97468390D01*
X138933585Y-97442649D01*
X138831971Y-97302786D01*
X138687213Y-97158028D01*
X138521611Y-97037713D01*
X138428369Y-96990203D01*
X138377574Y-96942229D01*
X138360779Y-96874407D01*
X138383317Y-96808273D01*
X138428371Y-96769234D01*
X138521347Y-96721861D01*
X138686894Y-96601582D01*
X138686895Y-96601582D01*
X138831582Y-96456895D01*
X138831582Y-96456894D01*
X138951859Y-96291349D01*
X139044755Y-96109029D01*
X139107990Y-95914413D01*
X139116609Y-95860000D01*
X137755686Y-95860000D01*
X137760080Y-95855606D01*
X137812741Y-95764394D01*
X137840000Y-95662661D01*
X137840000Y-95557339D01*
X137812741Y-95455606D01*
X137760080Y-95364394D01*
X137755686Y-95360000D01*
X139116609Y-95360000D01*
X139107990Y-95305586D01*
X139044755Y-95110970D01*
X138951859Y-94928650D01*
X138831582Y-94763105D01*
X138831582Y-94763104D01*
X138686895Y-94618417D01*
X138521349Y-94498140D01*
X138339031Y-94405244D01*
X138144417Y-94342009D01*
X137942317Y-94310000D01*
X137690000Y-94310000D01*
X137690000Y-95294314D01*
X137685606Y-95289920D01*
X137594394Y-95237259D01*
X137492661Y-95210000D01*
X137387339Y-95210000D01*
X137285606Y-95237259D01*
X137194394Y-95289920D01*
X137190000Y-95294314D01*
X137190000Y-94310000D01*
X136937683Y-94310000D01*
X136735582Y-94342009D01*
X136540968Y-94405244D01*
X136358650Y-94498140D01*
X136193105Y-94618417D01*
X136193104Y-94618417D01*
X136048417Y-94763104D01*
X136048417Y-94763105D01*
X135928140Y-94928650D01*
X135835244Y-95110970D01*
X135772009Y-95305586D01*
X135763391Y-95360000D01*
X137124314Y-95360000D01*
X137119920Y-95364394D01*
X137067259Y-95455606D01*
X137040000Y-95557339D01*
X137040000Y-95662661D01*
X137067259Y-95764394D01*
X137119920Y-95855606D01*
X137124314Y-95860000D01*
X135763391Y-95860000D01*
X135772009Y-95914413D01*
X135835244Y-96109029D01*
X135928140Y-96291349D01*
X136048417Y-96456894D01*
X136048417Y-96456895D01*
X136193104Y-96601582D01*
X136358652Y-96721861D01*
X136451628Y-96769234D01*
X136502425Y-96817208D01*
X136519220Y-96885029D01*
X136496683Y-96951164D01*
X136451630Y-96990203D01*
X136358388Y-97037713D01*
X136192786Y-97158028D01*
X136048028Y-97302786D01*
X135927715Y-97468386D01*
X135834781Y-97650776D01*
X135771522Y-97845465D01*
X135739500Y-98047648D01*
X132440997Y-98047648D01*
X132418477Y-97905466D01*
X132355220Y-97710781D01*
X132355218Y-97710778D01*
X132355218Y-97710776D01*
X132309369Y-97620793D01*
X132262287Y-97528390D01*
X132218692Y-97468386D01*
X132141971Y-97362786D01*
X131997213Y-97218028D01*
X131831614Y-97097715D01*
X131825006Y-97094348D01*
X131738917Y-97050483D01*
X131688123Y-97002511D01*
X131671328Y-96934690D01*
X131693865Y-96868555D01*
X131738917Y-96829516D01*
X131831610Y-96782287D01*
X131960482Y-96688657D01*
X131997213Y-96661971D01*
X131997215Y-96661968D01*
X131997219Y-96661966D01*
X132141966Y-96517219D01*
X132141968Y-96517215D01*
X132141971Y-96517213D01*
X132246892Y-96372799D01*
X132262287Y-96351610D01*
X132355220Y-96169219D01*
X132418477Y-95974534D01*
X132450500Y-95772352D01*
X132450500Y-95567648D01*
X132418477Y-95365466D01*
X132415838Y-95357345D01*
X132367963Y-95210000D01*
X132355220Y-95170781D01*
X132355218Y-95170778D01*
X132355218Y-95170776D01*
X132303865Y-95069991D01*
X132262287Y-94988390D01*
X132218692Y-94928386D01*
X132141971Y-94822786D01*
X131997213Y-94678028D01*
X131831613Y-94557715D01*
X131831612Y-94557714D01*
X131831610Y-94557713D01*
X131771898Y-94527288D01*
X131649223Y-94464781D01*
X131454534Y-94401522D01*
X131279995Y-94373878D01*
X131252352Y-94369500D01*
X130247648Y-94369500D01*
X130223329Y-94373351D01*
X130045465Y-94401522D01*
X129850776Y-94464781D01*
X129668386Y-94557715D01*
X129502786Y-94678028D01*
X129358028Y-94822786D01*
X129237715Y-94988386D01*
X129144781Y-95170776D01*
X129081522Y-95365465D01*
X129049500Y-95567648D01*
X124830499Y-95567648D01*
X124830499Y-95069992D01*
X124819999Y-94967203D01*
X124764814Y-94800666D01*
X124672712Y-94651344D01*
X124548656Y-94527288D01*
X124399334Y-94435186D01*
X124232797Y-94380001D01*
X124232795Y-94380000D01*
X124130010Y-94369500D01*
X122129998Y-94369500D01*
X122129981Y-94369501D01*
X122027203Y-94380000D01*
X122027200Y-94380001D01*
X121860668Y-94435185D01*
X121860663Y-94435187D01*
X121711342Y-94527289D01*
X121587289Y-94651342D01*
X121495187Y-94800663D01*
X121495186Y-94800666D01*
X121440001Y-94967203D01*
X121440001Y-94967204D01*
X121440000Y-94967204D01*
X121429500Y-95069983D01*
X118042322Y-95069983D01*
X117988848Y-95031132D01*
X117988847Y-95031131D01*
X117988845Y-95031130D01*
X117904955Y-94988386D01*
X117764383Y-94916760D01*
X117524785Y-94838910D01*
X117275962Y-94799500D01*
X115724038Y-94799500D01*
X115599626Y-94819205D01*
X115475214Y-94838910D01*
X115235616Y-94916760D01*
X115011151Y-95031132D01*
X114807350Y-95179201D01*
X114807345Y-95179205D01*
X114629205Y-95357345D01*
X114629201Y-95357350D01*
X114481132Y-95561151D01*
X114366760Y-95785616D01*
X114288910Y-96025214D01*
X114288910Y-96025215D01*
X114249500Y-96274038D01*
X107750000Y-96274038D01*
X107750000Y-90727682D01*
X151935000Y-90727682D01*
X151935000Y-90932317D01*
X151967009Y-91134417D01*
X152030244Y-91329031D01*
X152123141Y-91511350D01*
X152123147Y-91511359D01*
X152155523Y-91555921D01*
X152155524Y-91555922D01*
X152835000Y-90876446D01*
X152835000Y-90882661D01*
X152862259Y-90984394D01*
X152914920Y-91075606D01*
X152989394Y-91150080D01*
X153080606Y-91202741D01*
X153182339Y-91230000D01*
X153188553Y-91230000D01*
X152509076Y-91909474D01*
X152553650Y-91941859D01*
X152735968Y-92034755D01*
X152930582Y-92097990D01*
X153132683Y-92130000D01*
X153337317Y-92130000D01*
X153539417Y-92097990D01*
X153734031Y-92034755D01*
X153916349Y-91941859D01*
X153960921Y-91909474D01*
X153281447Y-91230000D01*
X153287661Y-91230000D01*
X153389394Y-91202741D01*
X153480606Y-91150080D01*
X153555080Y-91075606D01*
X153607741Y-90984394D01*
X153635000Y-90882661D01*
X153635000Y-90876447D01*
X154314474Y-91555921D01*
X154346859Y-91511349D01*
X154439755Y-91329031D01*
X154502990Y-91134417D01*
X154535000Y-90932317D01*
X154535000Y-90727682D01*
X154502990Y-90525582D01*
X154439755Y-90330968D01*
X154346859Y-90148650D01*
X154314474Y-90104077D01*
X154314474Y-90104076D01*
X153635000Y-90783551D01*
X153635000Y-90777339D01*
X153607741Y-90675606D01*
X153555080Y-90584394D01*
X153480606Y-90509920D01*
X153389394Y-90457259D01*
X153287661Y-90430000D01*
X153281446Y-90430000D01*
X153960922Y-89750524D01*
X153960921Y-89750523D01*
X153916359Y-89718147D01*
X153916350Y-89718141D01*
X153734031Y-89625244D01*
X153539417Y-89562009D01*
X153380490Y-89536838D01*
X153337317Y-89530000D01*
X153132683Y-89530000D01*
X152930582Y-89562009D01*
X152735968Y-89625244D01*
X152553644Y-89718143D01*
X152509077Y-89750523D01*
X152509077Y-89750524D01*
X153188554Y-90430000D01*
X153182339Y-90430000D01*
X153080606Y-90457259D01*
X152989394Y-90509920D01*
X152914920Y-90584394D01*
X152862259Y-90675606D01*
X152835000Y-90777339D01*
X152835000Y-90783553D01*
X152155524Y-90104077D01*
X152155523Y-90104077D01*
X152123143Y-90148644D01*
X152030244Y-90330968D01*
X151967009Y-90525582D01*
X151935000Y-90727682D01*
X107750000Y-90727682D01*
X107750000Y-89417514D01*
X174350000Y-89417514D01*
X174350000Y-90367500D01*
X175595879Y-90367500D01*
X175576901Y-90413318D01*
X175550000Y-90548556D01*
X175550000Y-90686444D01*
X175576901Y-90821682D01*
X175595879Y-90867500D01*
X174350000Y-90867500D01*
X174350000Y-91817485D01*
X174360493Y-91920189D01*
X174360494Y-91920196D01*
X174415641Y-92086618D01*
X174415643Y-92086623D01*
X174507684Y-92235844D01*
X174631655Y-92359815D01*
X174780876Y-92451856D01*
X174780881Y-92451858D01*
X174947303Y-92507005D01*
X174947310Y-92507006D01*
X175050014Y-92517499D01*
X175050027Y-92517500D01*
X176000000Y-92517500D01*
X176000000Y-91271620D01*
X176045818Y-91290599D01*
X176181056Y-91317500D01*
X176318944Y-91317500D01*
X176454182Y-91290599D01*
X176500000Y-91271620D01*
X176500000Y-92517500D01*
X177449973Y-92517500D01*
X177449985Y-92517499D01*
X177552689Y-92507006D01*
X177552696Y-92507005D01*
X177719118Y-92451858D01*
X177719123Y-92451856D01*
X177868344Y-92359815D01*
X177992315Y-92235844D01*
X178084356Y-92086623D01*
X178084358Y-92086618D01*
X178139505Y-91920196D01*
X178139506Y-91920189D01*
X178149999Y-91817485D01*
X178150000Y-91817472D01*
X178150000Y-90867500D01*
X176904121Y-90867500D01*
X176923099Y-90821682D01*
X176950000Y-90686444D01*
X176950000Y-90548556D01*
X176938937Y-90492941D01*
X179349500Y-90492941D01*
X179349500Y-90742058D01*
X179349501Y-90742075D01*
X179377287Y-90953134D01*
X179382018Y-90989065D01*
X179420965Y-91134417D01*
X179446498Y-91229707D01*
X179541830Y-91459861D01*
X179541837Y-91459876D01*
X179666400Y-91675626D01*
X179818060Y-91873274D01*
X179818066Y-91873281D01*
X179994218Y-92049433D01*
X179994225Y-92049439D01*
X180191873Y-92201099D01*
X180407623Y-92325662D01*
X180407638Y-92325669D01*
X180490075Y-92359815D01*
X180637793Y-92421002D01*
X180878435Y-92485482D01*
X181125435Y-92518000D01*
X181125442Y-92518000D01*
X181374558Y-92518000D01*
X181374565Y-92518000D01*
X181621565Y-92485482D01*
X181862207Y-92421002D01*
X182092373Y-92325664D01*
X182308127Y-92201099D01*
X182505776Y-92049438D01*
X182681938Y-91873276D01*
X182833599Y-91675627D01*
X182958164Y-91459873D01*
X183053502Y-91229707D01*
X183117982Y-90989065D01*
X183150500Y-90742065D01*
X183150500Y-90492935D01*
X183117982Y-90245935D01*
X183092272Y-90149983D01*
X186699500Y-90149983D01*
X186699500Y-91350001D01*
X186699501Y-91350018D01*
X186710000Y-91452796D01*
X186710001Y-91452799D01*
X186744173Y-91555921D01*
X186765186Y-91619334D01*
X186857288Y-91768656D01*
X186981344Y-91892712D01*
X187130666Y-91984814D01*
X187297203Y-92039999D01*
X187399991Y-92050500D01*
X188600008Y-92050499D01*
X188702797Y-92039999D01*
X188869334Y-91984814D01*
X189018656Y-91892712D01*
X189087879Y-91823489D01*
X189149202Y-91790004D01*
X189218894Y-91794988D01*
X189248446Y-91810853D01*
X189318646Y-91861857D01*
X189500968Y-91954755D01*
X189695582Y-92017990D01*
X189897683Y-92050000D01*
X190102317Y-92050000D01*
X190304417Y-92017990D01*
X190499031Y-91954755D01*
X190681349Y-91861859D01*
X190725921Y-91829474D01*
X190046447Y-91150000D01*
X190052661Y-91150000D01*
X190154394Y-91122741D01*
X190245606Y-91070080D01*
X190320080Y-90995606D01*
X190372741Y-90904394D01*
X190400000Y-90802661D01*
X190400000Y-90796447D01*
X191079474Y-91475921D01*
X191111859Y-91431349D01*
X191204755Y-91249031D01*
X191267990Y-91054417D01*
X191300000Y-90852317D01*
X191300000Y-90647682D01*
X191267990Y-90445582D01*
X191204755Y-90250968D01*
X191111859Y-90068650D01*
X191079474Y-90024077D01*
X191079474Y-90024076D01*
X190400000Y-90703551D01*
X190400000Y-90697339D01*
X190372741Y-90595606D01*
X190320080Y-90504394D01*
X190245606Y-90429920D01*
X190154394Y-90377259D01*
X190052661Y-90350000D01*
X190046446Y-90350000D01*
X190725922Y-89670524D01*
X190725921Y-89670523D01*
X190681359Y-89638147D01*
X190681350Y-89638141D01*
X190499031Y-89545244D01*
X190304417Y-89482009D01*
X190102317Y-89450000D01*
X189897683Y-89450000D01*
X189695582Y-89482009D01*
X189500968Y-89545244D01*
X189318651Y-89638139D01*
X189248444Y-89689148D01*
X189182637Y-89712627D01*
X189114583Y-89696801D01*
X189087878Y-89676510D01*
X189018657Y-89607289D01*
X189018656Y-89607288D01*
X188904438Y-89536838D01*
X188869336Y-89515187D01*
X188869331Y-89515185D01*
X188867862Y-89514698D01*
X188702797Y-89460001D01*
X188702795Y-89460000D01*
X188600010Y-89449500D01*
X187399998Y-89449500D01*
X187399981Y-89449501D01*
X187297203Y-89460000D01*
X187297200Y-89460001D01*
X187130668Y-89515185D01*
X187130663Y-89515187D01*
X186981342Y-89607289D01*
X186857289Y-89731342D01*
X186765187Y-89880663D01*
X186765186Y-89880666D01*
X186710001Y-90047203D01*
X186710001Y-90047204D01*
X186710000Y-90047204D01*
X186699500Y-90149983D01*
X183092272Y-90149983D01*
X183053502Y-90005293D01*
X182958164Y-89775127D01*
X182925264Y-89718143D01*
X182833599Y-89559373D01*
X182681939Y-89361725D01*
X182681933Y-89361718D01*
X182505781Y-89185566D01*
X182505774Y-89185560D01*
X182308126Y-89033900D01*
X182092376Y-88909337D01*
X182092361Y-88909330D01*
X181862207Y-88813998D01*
X181660684Y-88760000D01*
X181621565Y-88749518D01*
X181621564Y-88749517D01*
X181621561Y-88749517D01*
X181374575Y-88717001D01*
X181374570Y-88717000D01*
X181374565Y-88717000D01*
X181125435Y-88717000D01*
X181125429Y-88717000D01*
X181125424Y-88717001D01*
X180878438Y-88749517D01*
X180637792Y-88813998D01*
X180407638Y-88909330D01*
X180407623Y-88909337D01*
X180191873Y-89033900D01*
X179994225Y-89185560D01*
X179994218Y-89185566D01*
X179818066Y-89361718D01*
X179818060Y-89361725D01*
X179666400Y-89559373D01*
X179541837Y-89775123D01*
X179541830Y-89775138D01*
X179446498Y-90005292D01*
X179382017Y-90245938D01*
X179349501Y-90492924D01*
X179349500Y-90492941D01*
X176938937Y-90492941D01*
X176923099Y-90413318D01*
X176904121Y-90367500D01*
X178150000Y-90367500D01*
X178150000Y-89417527D01*
X178149999Y-89417514D01*
X178139506Y-89314810D01*
X178139505Y-89314803D01*
X178084358Y-89148381D01*
X178084356Y-89148376D01*
X177992315Y-88999155D01*
X177868344Y-88875184D01*
X177719123Y-88783143D01*
X177719118Y-88783141D01*
X177552696Y-88727994D01*
X177552689Y-88727993D01*
X177449985Y-88717500D01*
X176500000Y-88717500D01*
X176500000Y-89963379D01*
X176454182Y-89944401D01*
X176318944Y-89917500D01*
X176181056Y-89917500D01*
X176045818Y-89944401D01*
X176000000Y-89963379D01*
X176000000Y-88717500D01*
X175050014Y-88717500D01*
X174947310Y-88727993D01*
X174947303Y-88727994D01*
X174780881Y-88783141D01*
X174780876Y-88783143D01*
X174631655Y-88875184D01*
X174507684Y-88999155D01*
X174415643Y-89148376D01*
X174415641Y-89148381D01*
X174360494Y-89314803D01*
X174360493Y-89314810D01*
X174350000Y-89417514D01*
X107750000Y-89417514D01*
X107750000Y-84849778D01*
X125599500Y-84849778D01*
X125599500Y-85070221D01*
X125633985Y-85287952D01*
X125702103Y-85497603D01*
X125702104Y-85497606D01*
X125802187Y-85694025D01*
X125931752Y-85872358D01*
X125931756Y-85872363D01*
X125981928Y-85922535D01*
X126015413Y-85983858D01*
X126010429Y-86053550D01*
X125968557Y-86109483D01*
X125937581Y-86126398D01*
X125857669Y-86156203D01*
X125857664Y-86156206D01*
X125742455Y-86242452D01*
X125742452Y-86242455D01*
X125656206Y-86357664D01*
X125656202Y-86357671D01*
X125605908Y-86492517D01*
X125601061Y-86537606D01*
X125599501Y-86552123D01*
X125599500Y-86552135D01*
X125599500Y-88447870D01*
X125599501Y-88447876D01*
X125605908Y-88507483D01*
X125656202Y-88642328D01*
X125656206Y-88642335D01*
X125742452Y-88757544D01*
X125742455Y-88757547D01*
X125857664Y-88843793D01*
X125857671Y-88843797D01*
X125992517Y-88894091D01*
X125992516Y-88894091D01*
X125999444Y-88894835D01*
X126052127Y-88900500D01*
X127947872Y-88900499D01*
X128007483Y-88894091D01*
X128142331Y-88843796D01*
X128257546Y-88757546D01*
X128343796Y-88642331D01*
X128394091Y-88507483D01*
X128400500Y-88447873D01*
X128400499Y-87357648D01*
X136869500Y-87357648D01*
X136869500Y-87562351D01*
X136901522Y-87764534D01*
X136964781Y-87959223D01*
X137028691Y-88084653D01*
X137057585Y-88141359D01*
X137057715Y-88141613D01*
X137178028Y-88307213D01*
X137322786Y-88451971D01*
X137443226Y-88539474D01*
X137488390Y-88572287D01*
X137604607Y-88631503D01*
X137670776Y-88665218D01*
X137670778Y-88665218D01*
X137670781Y-88665220D01*
X137775137Y-88699127D01*
X137865465Y-88728477D01*
X137966557Y-88744488D01*
X138067648Y-88760500D01*
X138067649Y-88760500D01*
X138272351Y-88760500D01*
X138272352Y-88760500D01*
X138474534Y-88728477D01*
X138669219Y-88665220D01*
X138851610Y-88572287D01*
X138944590Y-88504732D01*
X139017213Y-88451971D01*
X139017215Y-88451968D01*
X139017219Y-88451966D01*
X139161966Y-88307219D01*
X139161968Y-88307215D01*
X139161971Y-88307213D01*
X139214732Y-88234590D01*
X139282287Y-88141610D01*
X139375220Y-87959219D01*
X139438477Y-87764534D01*
X139470500Y-87562352D01*
X139470500Y-87357682D01*
X147030000Y-87357682D01*
X147030000Y-87562317D01*
X147062009Y-87764417D01*
X147125244Y-87959031D01*
X147218141Y-88141350D01*
X147218147Y-88141359D01*
X147250523Y-88185921D01*
X147250524Y-88185922D01*
X147930000Y-87506446D01*
X147930000Y-87512661D01*
X147957259Y-87614394D01*
X148009920Y-87705606D01*
X148084394Y-87780080D01*
X148175606Y-87832741D01*
X148277339Y-87860000D01*
X148283553Y-87860000D01*
X147604076Y-88539474D01*
X147648650Y-88571859D01*
X147830968Y-88664755D01*
X148025582Y-88727990D01*
X148227683Y-88760000D01*
X148432317Y-88760000D01*
X148634417Y-88727990D01*
X148829031Y-88664755D01*
X149011349Y-88571859D01*
X149055921Y-88539474D01*
X148376447Y-87860000D01*
X148382661Y-87860000D01*
X148484394Y-87832741D01*
X148575606Y-87780080D01*
X148650080Y-87705606D01*
X148702741Y-87614394D01*
X148730000Y-87512661D01*
X148730000Y-87506447D01*
X149409474Y-88185921D01*
X149441859Y-88141349D01*
X149534755Y-87959031D01*
X149597990Y-87764417D01*
X149630000Y-87562317D01*
X149630000Y-87357682D01*
X149597990Y-87155582D01*
X149534755Y-86960968D01*
X149441859Y-86778650D01*
X149409474Y-86734077D01*
X149409474Y-86734076D01*
X148730000Y-87413551D01*
X148730000Y-87407339D01*
X148702741Y-87305606D01*
X148650080Y-87214394D01*
X148575606Y-87139920D01*
X148484394Y-87087259D01*
X148382661Y-87060000D01*
X148376446Y-87060000D01*
X149055922Y-86380524D01*
X149055921Y-86380523D01*
X149011359Y-86348147D01*
X149011350Y-86348141D01*
X148829031Y-86255244D01*
X148634417Y-86192009D01*
X148432317Y-86160000D01*
X148227683Y-86160000D01*
X148025582Y-86192009D01*
X147830968Y-86255244D01*
X147648644Y-86348143D01*
X147604077Y-86380523D01*
X147604077Y-86380524D01*
X148283554Y-87060000D01*
X148277339Y-87060000D01*
X148175606Y-87087259D01*
X148084394Y-87139920D01*
X148009920Y-87214394D01*
X147957259Y-87305606D01*
X147930000Y-87407339D01*
X147930000Y-87413553D01*
X147250524Y-86734077D01*
X147250523Y-86734077D01*
X147218143Y-86778644D01*
X147125244Y-86960968D01*
X147062009Y-87155582D01*
X147030000Y-87357682D01*
X139470500Y-87357682D01*
X139470500Y-87357648D01*
X139454645Y-87257544D01*
X139438477Y-87155465D01*
X139384574Y-86989570D01*
X139375220Y-86960781D01*
X139375218Y-86960778D01*
X139375218Y-86960776D01*
X139341503Y-86894607D01*
X139282287Y-86778390D01*
X139250092Y-86734077D01*
X139161971Y-86612786D01*
X139017213Y-86468028D01*
X138851613Y-86347715D01*
X138851612Y-86347714D01*
X138851610Y-86347713D01*
X138794653Y-86318691D01*
X138669223Y-86254781D01*
X138474534Y-86191522D01*
X138299995Y-86163878D01*
X138272352Y-86159500D01*
X138067648Y-86159500D01*
X138043329Y-86163351D01*
X137865465Y-86191522D01*
X137670776Y-86254781D01*
X137488386Y-86347715D01*
X137322786Y-86468028D01*
X137178028Y-86612786D01*
X137057715Y-86778386D01*
X136964781Y-86960776D01*
X136901522Y-87155465D01*
X136869500Y-87357648D01*
X128400499Y-87357648D01*
X128400499Y-86552128D01*
X128394091Y-86492517D01*
X128384959Y-86468034D01*
X128343797Y-86357671D01*
X128343793Y-86357664D01*
X128257547Y-86242455D01*
X128257544Y-86242452D01*
X128142335Y-86156206D01*
X128142328Y-86156202D01*
X128062419Y-86126398D01*
X128038275Y-86108324D01*
X128012763Y-86092247D01*
X128010591Y-86087600D01*
X128006485Y-86084527D01*
X127995947Y-86056273D01*
X127983175Y-86028951D01*
X127983860Y-86023866D01*
X127982068Y-86019062D01*
X127988477Y-85989599D01*
X127992505Y-85959707D01*
X127996124Y-85954443D01*
X127996920Y-85950789D01*
X128011323Y-85929847D01*
X128014540Y-85926066D01*
X128050829Y-85889778D01*
X157084500Y-85889778D01*
X157084500Y-86110221D01*
X157118985Y-86327952D01*
X157187103Y-86537603D01*
X157187104Y-86537606D01*
X157287187Y-86734025D01*
X157416752Y-86912358D01*
X157416756Y-86912363D01*
X157572636Y-87068243D01*
X157572641Y-87068247D01*
X157671292Y-87139920D01*
X157750978Y-87197815D01*
X157879375Y-87263237D01*
X157947393Y-87297895D01*
X157947396Y-87297896D01*
X157971126Y-87305606D01*
X158157049Y-87366015D01*
X158374778Y-87400500D01*
X158374779Y-87400500D01*
X158595221Y-87400500D01*
X158595222Y-87400500D01*
X158812951Y-87366015D01*
X159022606Y-87297895D01*
X159219022Y-87197815D01*
X159397365Y-87068242D01*
X159447536Y-87018070D01*
X159508857Y-86984586D01*
X159578548Y-86989570D01*
X159634482Y-87031441D01*
X159651398Y-87062419D01*
X159681202Y-87142328D01*
X159681206Y-87142335D01*
X159767452Y-87257544D01*
X159767455Y-87257547D01*
X159882664Y-87343793D01*
X159882671Y-87343797D01*
X160017517Y-87394091D01*
X160017516Y-87394091D01*
X160024444Y-87394835D01*
X160077127Y-87400500D01*
X161972872Y-87400499D01*
X162032483Y-87394091D01*
X162167331Y-87343796D01*
X162282546Y-87257546D01*
X162368796Y-87142331D01*
X162419091Y-87007483D01*
X162425500Y-86947873D01*
X162425499Y-85052128D01*
X162419091Y-84992517D01*
X162398601Y-84937581D01*
X162368797Y-84857671D01*
X162368793Y-84857664D01*
X162282547Y-84742455D01*
X162282544Y-84742452D01*
X162167335Y-84656206D01*
X162167328Y-84656202D01*
X162032482Y-84605908D01*
X162032483Y-84605908D01*
X161972883Y-84599501D01*
X161972881Y-84599500D01*
X161972873Y-84599500D01*
X161972864Y-84599500D01*
X160077129Y-84599500D01*
X160077123Y-84599501D01*
X160017516Y-84605908D01*
X159882671Y-84656202D01*
X159882664Y-84656206D01*
X159767455Y-84742452D01*
X159767452Y-84742455D01*
X159681206Y-84857664D01*
X159681203Y-84857669D01*
X159651398Y-84937581D01*
X159609526Y-84993514D01*
X159544062Y-85017931D01*
X159475789Y-85003079D01*
X159447535Y-84981928D01*
X159397363Y-84931756D01*
X159397358Y-84931752D01*
X159219025Y-84802187D01*
X159219024Y-84802186D01*
X159219022Y-84802185D01*
X159101791Y-84742452D01*
X159022606Y-84702104D01*
X159022603Y-84702103D01*
X158812952Y-84633985D01*
X158704086Y-84616742D01*
X158595222Y-84599500D01*
X158374778Y-84599500D01*
X158302201Y-84610995D01*
X158157047Y-84633985D01*
X157947396Y-84702103D01*
X157947393Y-84702104D01*
X157750974Y-84802187D01*
X157572641Y-84931752D01*
X157572636Y-84931756D01*
X157416756Y-85087636D01*
X157416752Y-85087641D01*
X157287187Y-85265974D01*
X157187104Y-85462393D01*
X157187103Y-85462396D01*
X157118985Y-85672047D01*
X157084500Y-85889778D01*
X128050829Y-85889778D01*
X128068242Y-85872365D01*
X128197815Y-85694022D01*
X128297895Y-85497606D01*
X128366015Y-85287951D01*
X128400500Y-85070222D01*
X128400500Y-84849778D01*
X128366015Y-84632049D01*
X128297895Y-84422394D01*
X128297895Y-84422393D01*
X128263237Y-84354375D01*
X128197815Y-84225978D01*
X128181260Y-84203192D01*
X128068247Y-84047641D01*
X128068243Y-84047636D01*
X127912363Y-83891756D01*
X127912358Y-83891752D01*
X127734025Y-83762187D01*
X127734024Y-83762186D01*
X127734022Y-83762185D01*
X127671096Y-83730122D01*
X127537606Y-83662104D01*
X127537603Y-83662103D01*
X127327952Y-83593985D01*
X127219086Y-83576742D01*
X127110222Y-83559500D01*
X126889778Y-83559500D01*
X126817201Y-83570995D01*
X126672047Y-83593985D01*
X126462396Y-83662103D01*
X126462393Y-83662104D01*
X126265974Y-83762187D01*
X126087641Y-83891752D01*
X126087636Y-83891756D01*
X125931756Y-84047636D01*
X125931752Y-84047641D01*
X125802187Y-84225974D01*
X125702104Y-84422393D01*
X125702103Y-84422396D01*
X125633985Y-84632047D01*
X125599500Y-84849778D01*
X107750000Y-84849778D01*
X107750000Y-80567648D01*
X151934500Y-80567648D01*
X151934500Y-80772351D01*
X151966522Y-80974534D01*
X152029781Y-81169223D01*
X152122715Y-81351613D01*
X152243028Y-81517213D01*
X152387786Y-81661971D01*
X152542749Y-81774556D01*
X152553390Y-81782287D01*
X152669607Y-81841503D01*
X152735776Y-81875218D01*
X152735778Y-81875218D01*
X152735781Y-81875220D01*
X152840137Y-81909127D01*
X152930465Y-81938477D01*
X153031557Y-81954488D01*
X153132648Y-81970500D01*
X153132649Y-81970500D01*
X153337351Y-81970500D01*
X153337352Y-81970500D01*
X153539534Y-81938477D01*
X153734219Y-81875220D01*
X153916610Y-81782287D01*
X154009590Y-81714732D01*
X154082213Y-81661971D01*
X154082215Y-81661968D01*
X154082219Y-81661966D01*
X154226966Y-81517219D01*
X154226968Y-81517215D01*
X154226971Y-81517213D01*
X154279732Y-81444590D01*
X154347287Y-81351610D01*
X154440220Y-81169219D01*
X154503477Y-80974534D01*
X154535500Y-80772352D01*
X154535500Y-80567648D01*
X154503477Y-80365466D01*
X154440220Y-80170781D01*
X154440218Y-80170778D01*
X154440218Y-80170776D01*
X154406503Y-80104607D01*
X154347287Y-79988390D01*
X154312493Y-79940500D01*
X154226971Y-79822786D01*
X154082213Y-79678028D01*
X153916613Y-79557715D01*
X153916612Y-79557714D01*
X153916610Y-79557713D01*
X153859653Y-79528691D01*
X153734223Y-79464781D01*
X153539534Y-79401522D01*
X153364995Y-79373878D01*
X153337352Y-79369500D01*
X153132648Y-79369500D01*
X153108329Y-79373351D01*
X152930465Y-79401522D01*
X152735776Y-79464781D01*
X152553386Y-79557715D01*
X152387786Y-79678028D01*
X152243028Y-79822786D01*
X152122715Y-79988386D01*
X152029781Y-80170776D01*
X151966522Y-80365465D01*
X151934500Y-80567648D01*
X107750000Y-80567648D01*
X107750000Y-75889778D01*
X121599500Y-75889778D01*
X121599500Y-76110221D01*
X121633985Y-76327952D01*
X121702103Y-76537603D01*
X121702104Y-76537606D01*
X121802187Y-76734025D01*
X121931752Y-76912358D01*
X121931756Y-76912363D01*
X121981928Y-76962535D01*
X122015413Y-77023858D01*
X122010429Y-77093550D01*
X121968557Y-77149483D01*
X121937581Y-77166398D01*
X121857669Y-77196203D01*
X121857664Y-77196206D01*
X121742455Y-77282452D01*
X121742452Y-77282455D01*
X121656206Y-77397664D01*
X121656202Y-77397671D01*
X121605908Y-77532517D01*
X121599501Y-77592116D01*
X121599501Y-77592123D01*
X121599500Y-77592135D01*
X121599500Y-79487870D01*
X121599501Y-79487876D01*
X121605908Y-79547483D01*
X121656202Y-79682328D01*
X121656206Y-79682335D01*
X121742452Y-79797544D01*
X121742455Y-79797547D01*
X121857664Y-79883793D01*
X121857671Y-79883797D01*
X121992517Y-79934091D01*
X121992516Y-79934091D01*
X121999444Y-79934835D01*
X122052127Y-79940500D01*
X123947872Y-79940499D01*
X124007483Y-79934091D01*
X124142331Y-79883796D01*
X124257546Y-79797546D01*
X124343796Y-79682331D01*
X124394091Y-79547483D01*
X124400500Y-79487873D01*
X124400499Y-78397648D01*
X132869500Y-78397648D01*
X132869500Y-78602351D01*
X132901522Y-78804534D01*
X132964781Y-78999223D01*
X133028691Y-79124653D01*
X133057585Y-79181359D01*
X133057715Y-79181613D01*
X133178028Y-79347213D01*
X133322786Y-79491971D01*
X133413277Y-79557715D01*
X133488390Y-79612287D01*
X133604607Y-79671503D01*
X133670776Y-79705218D01*
X133670778Y-79705218D01*
X133670781Y-79705220D01*
X133775137Y-79739127D01*
X133865465Y-79768477D01*
X133966557Y-79784488D01*
X134067648Y-79800500D01*
X134067649Y-79800500D01*
X134272351Y-79800500D01*
X134272352Y-79800500D01*
X134474534Y-79768477D01*
X134669219Y-79705220D01*
X134851610Y-79612287D01*
X134944590Y-79544732D01*
X135017213Y-79491971D01*
X135017215Y-79491968D01*
X135017219Y-79491966D01*
X135161966Y-79347219D01*
X135161968Y-79347215D01*
X135161971Y-79347213D01*
X135214732Y-79274590D01*
X135282287Y-79181610D01*
X135375220Y-78999219D01*
X135438477Y-78804534D01*
X135470500Y-78602352D01*
X135470500Y-78397682D01*
X143030000Y-78397682D01*
X143030000Y-78602317D01*
X143062009Y-78804417D01*
X143125244Y-78999031D01*
X143218141Y-79181350D01*
X143218147Y-79181359D01*
X143250523Y-79225921D01*
X143250524Y-79225922D01*
X143930000Y-78546446D01*
X143930000Y-78552661D01*
X143957259Y-78654394D01*
X144009920Y-78745606D01*
X144084394Y-78820080D01*
X144175606Y-78872741D01*
X144277339Y-78900000D01*
X144283553Y-78900000D01*
X143604076Y-79579474D01*
X143648650Y-79611859D01*
X143830968Y-79704755D01*
X144025582Y-79767990D01*
X144227683Y-79800000D01*
X144432317Y-79800000D01*
X144634417Y-79767990D01*
X144829031Y-79704755D01*
X145011349Y-79611859D01*
X145055921Y-79579474D01*
X144376447Y-78900000D01*
X144382661Y-78900000D01*
X144484394Y-78872741D01*
X144575606Y-78820080D01*
X144650080Y-78745606D01*
X144702741Y-78654394D01*
X144730000Y-78552661D01*
X144730000Y-78546448D01*
X145409474Y-79225922D01*
X145409474Y-79225921D01*
X145441859Y-79181349D01*
X145534755Y-78999031D01*
X145597990Y-78804417D01*
X145630000Y-78602317D01*
X145630000Y-78397682D01*
X145597990Y-78195582D01*
X145534755Y-78000968D01*
X145441859Y-77818650D01*
X145409474Y-77774077D01*
X145409474Y-77774076D01*
X144730000Y-78453551D01*
X144730000Y-78447339D01*
X144702741Y-78345606D01*
X144650080Y-78254394D01*
X144575606Y-78179920D01*
X144484394Y-78127259D01*
X144382661Y-78100000D01*
X144376446Y-78100000D01*
X145055922Y-77420524D01*
X145055921Y-77420523D01*
X145011359Y-77388147D01*
X145011350Y-77388141D01*
X144829031Y-77295244D01*
X144634417Y-77232009D01*
X144432317Y-77200000D01*
X144227683Y-77200000D01*
X144025582Y-77232009D01*
X143830968Y-77295244D01*
X143648644Y-77388143D01*
X143604077Y-77420523D01*
X143604077Y-77420524D01*
X144283554Y-78100000D01*
X144277339Y-78100000D01*
X144175606Y-78127259D01*
X144084394Y-78179920D01*
X144009920Y-78254394D01*
X143957259Y-78345606D01*
X143930000Y-78447339D01*
X143930000Y-78453553D01*
X143250524Y-77774077D01*
X143250523Y-77774077D01*
X143218143Y-77818644D01*
X143125244Y-78000968D01*
X143062009Y-78195582D01*
X143030000Y-78397682D01*
X135470500Y-78397682D01*
X135470500Y-78397648D01*
X135462257Y-78345606D01*
X135438477Y-78195465D01*
X135407458Y-78100000D01*
X135375220Y-78000781D01*
X135375218Y-78000778D01*
X135375218Y-78000776D01*
X135282419Y-77818650D01*
X135282287Y-77818390D01*
X135250092Y-77774077D01*
X135161971Y-77652786D01*
X135017213Y-77508028D01*
X134851613Y-77387715D01*
X134851612Y-77387714D01*
X134851610Y-77387713D01*
X134794653Y-77358691D01*
X134669223Y-77294781D01*
X134474534Y-77231522D01*
X134299995Y-77203878D01*
X134272352Y-77199500D01*
X134067648Y-77199500D01*
X134043329Y-77203351D01*
X133865465Y-77231522D01*
X133670776Y-77294781D01*
X133488386Y-77387715D01*
X133322786Y-77508028D01*
X133178028Y-77652786D01*
X133057715Y-77818386D01*
X132964781Y-78000776D01*
X132901522Y-78195465D01*
X132869500Y-78397648D01*
X124400499Y-78397648D01*
X124400499Y-77592128D01*
X124394091Y-77532517D01*
X124384959Y-77508034D01*
X124343797Y-77397671D01*
X124343793Y-77397664D01*
X124257547Y-77282455D01*
X124257544Y-77282452D01*
X124142335Y-77196206D01*
X124142328Y-77196202D01*
X124062419Y-77166398D01*
X124006485Y-77124527D01*
X123982068Y-77059062D01*
X123996920Y-76990789D01*
X124018069Y-76962537D01*
X124068242Y-76912365D01*
X124197815Y-76734022D01*
X124297895Y-76537606D01*
X124366015Y-76327951D01*
X124400500Y-76110222D01*
X124400500Y-75889778D01*
X124366015Y-75672049D01*
X124297895Y-75462394D01*
X124297895Y-75462393D01*
X124263237Y-75394375D01*
X124197815Y-75265978D01*
X124181260Y-75243192D01*
X124068247Y-75087641D01*
X124068243Y-75087636D01*
X123912363Y-74931756D01*
X123912358Y-74931752D01*
X123734025Y-74802187D01*
X123734024Y-74802186D01*
X123734022Y-74802185D01*
X123671096Y-74770122D01*
X123537606Y-74702104D01*
X123537603Y-74702103D01*
X123327952Y-74633985D01*
X123219086Y-74616742D01*
X123110222Y-74599500D01*
X122889778Y-74599500D01*
X122817201Y-74610995D01*
X122672047Y-74633985D01*
X122462396Y-74702103D01*
X122462393Y-74702104D01*
X122265974Y-74802187D01*
X122087641Y-74931752D01*
X122087636Y-74931756D01*
X121931756Y-75087636D01*
X121931752Y-75087641D01*
X121802187Y-75265974D01*
X121702104Y-75462393D01*
X121702103Y-75462396D01*
X121633985Y-75672047D01*
X121599500Y-75889778D01*
X107750000Y-75889778D01*
X107750000Y-67831491D01*
X110999500Y-67831491D01*
X110999500Y-68168508D01*
X111037231Y-68503381D01*
X111037233Y-68503397D01*
X111112223Y-68831953D01*
X111112227Y-68831965D01*
X111223532Y-69150054D01*
X111369752Y-69453683D01*
X111369754Y-69453686D01*
X111549054Y-69739039D01*
X111759175Y-70002523D01*
X111997477Y-70240825D01*
X112260961Y-70450946D01*
X112546314Y-70630246D01*
X112849949Y-70776469D01*
X113088848Y-70860063D01*
X113168034Y-70887772D01*
X113168046Y-70887776D01*
X113496606Y-70962767D01*
X113831492Y-71000499D01*
X113831493Y-71000500D01*
X113831496Y-71000500D01*
X114168507Y-71000500D01*
X114168507Y-71000499D01*
X114503394Y-70962767D01*
X114831954Y-70887776D01*
X115150051Y-70776469D01*
X115453686Y-70630246D01*
X115739039Y-70450946D01*
X116002523Y-70240825D01*
X116240825Y-70002523D01*
X116450946Y-69739039D01*
X116630246Y-69453686D01*
X116776469Y-69150051D01*
X116887776Y-68831954D01*
X116962767Y-68503394D01*
X117000500Y-68168504D01*
X117000500Y-67831496D01*
X117000499Y-67831491D01*
X194999500Y-67831491D01*
X194999500Y-68168508D01*
X195037231Y-68503381D01*
X195037233Y-68503397D01*
X195112223Y-68831953D01*
X195112227Y-68831965D01*
X195223532Y-69150054D01*
X195369752Y-69453683D01*
X195369754Y-69453686D01*
X195549054Y-69739039D01*
X195759175Y-70002523D01*
X195997477Y-70240825D01*
X196260961Y-70450946D01*
X196546314Y-70630246D01*
X196849949Y-70776469D01*
X197088848Y-70860063D01*
X197168034Y-70887772D01*
X197168046Y-70887776D01*
X197496606Y-70962767D01*
X197831492Y-71000499D01*
X197831493Y-71000500D01*
X197831496Y-71000500D01*
X198168507Y-71000500D01*
X198168507Y-71000499D01*
X198503394Y-70962767D01*
X198831954Y-70887776D01*
X199150051Y-70776469D01*
X199453686Y-70630246D01*
X199739039Y-70450946D01*
X200002523Y-70240825D01*
X200240825Y-70002523D01*
X200450946Y-69739039D01*
X200630246Y-69453686D01*
X200776469Y-69150051D01*
X200887776Y-68831954D01*
X200962767Y-68503394D01*
X201000500Y-68168504D01*
X201000500Y-67831496D01*
X200962767Y-67496606D01*
X200887776Y-67168046D01*
X200776469Y-66849949D01*
X200630246Y-66546314D01*
X200450946Y-66260961D01*
X200240825Y-65997477D01*
X200002523Y-65759175D01*
X199739039Y-65549054D01*
X199453686Y-65369754D01*
X199453683Y-65369752D01*
X199150054Y-65223532D01*
X198831965Y-65112227D01*
X198831953Y-65112223D01*
X198503397Y-65037233D01*
X198503381Y-65037231D01*
X198168508Y-64999500D01*
X198168504Y-64999500D01*
X197831496Y-64999500D01*
X197831491Y-64999500D01*
X197496618Y-65037231D01*
X197496602Y-65037233D01*
X197168046Y-65112223D01*
X197168034Y-65112227D01*
X196849945Y-65223532D01*
X196546316Y-65369752D01*
X196260962Y-65549053D01*
X195997477Y-65759174D01*
X195759174Y-65997477D01*
X195549053Y-66260962D01*
X195369752Y-66546316D01*
X195223532Y-66849945D01*
X195112227Y-67168034D01*
X195112223Y-67168046D01*
X195037233Y-67496602D01*
X195037231Y-67496618D01*
X194999500Y-67831491D01*
X117000499Y-67831491D01*
X116962767Y-67496606D01*
X116887776Y-67168046D01*
X116776469Y-66849949D01*
X116630246Y-66546314D01*
X116450946Y-66260961D01*
X116240825Y-65997477D01*
X116002523Y-65759175D01*
X115739039Y-65549054D01*
X115453686Y-65369754D01*
X115453683Y-65369752D01*
X115150054Y-65223532D01*
X114831965Y-65112227D01*
X114831953Y-65112223D01*
X114503397Y-65037233D01*
X114503381Y-65037231D01*
X114168508Y-64999500D01*
X114168504Y-64999500D01*
X113831496Y-64999500D01*
X113831491Y-64999500D01*
X113496618Y-65037231D01*
X113496602Y-65037233D01*
X113168046Y-65112223D01*
X113168034Y-65112227D01*
X112849945Y-65223532D01*
X112546316Y-65369752D01*
X112260962Y-65549053D01*
X111997477Y-65759174D01*
X111759174Y-65997477D01*
X111549053Y-66260962D01*
X111369752Y-66546316D01*
X111223532Y-66849945D01*
X111112227Y-67168034D01*
X111112223Y-67168046D01*
X111037233Y-67496602D01*
X111037231Y-67496618D01*
X110999500Y-67831491D01*
X107750000Y-67831491D01*
X107750000Y-62124000D01*
X107769685Y-62056961D01*
X107822489Y-62011206D01*
X107874000Y-62000000D01*
X203876000Y-62000000D01*
X203943039Y-62019685D01*
G37*
%TD.AperFunction*%
%TD*%
M02*
