%TF.GenerationSoftware,KiCad,Pcbnew,9.0.3*%
%TF.CreationDate,2025-12-16T09:58:15+01:00*%
%TF.ProjectId,PTP_Ivan_Hodak_Project1,5054505f-4976-4616-9e5f-486f64616b5f,rev?*%
%TF.SameCoordinates,Original*%
%TF.FileFunction,Soldermask,Bot*%
%TF.FilePolarity,Negative*%
%FSLAX46Y46*%
G04 Gerber Fmt 4.6, Leading zero omitted, Abs format (unit mm)*
G04 Created by KiCad (PCBNEW 9.0.3) date 2025-12-16 09:58:15*
%MOMM*%
%LPD*%
G01*
G04 APERTURE LIST*
G04 Aperture macros list*
%AMRoundRect*
0 Rectangle with rounded corners*
0 $1 Rounding radius*
0 $2 $3 $4 $5 $6 $7 $8 $9 X,Y pos of 4 corners*
0 Add a 4 corners polygon primitive as box body*
4,1,4,$2,$3,$4,$5,$6,$7,$8,$9,$2,$3,0*
0 Add four circle primitives for the rounded corners*
1,1,$1+$1,$2,$3*
1,1,$1+$1,$4,$5*
1,1,$1+$1,$6,$7*
1,1,$1+$1,$8,$9*
0 Add four rect primitives between the rounded corners*
20,1,$1+$1,$2,$3,$4,$5,0*
20,1,$1+$1,$4,$5,$6,$7,0*
20,1,$1+$1,$6,$7,$8,$9,0*
20,1,$1+$1,$8,$9,$2,$3,0*%
G04 Aperture macros list end*
%ADD10RoundRect,0.249999X0.850001X0.850001X-0.850001X0.850001X-0.850001X-0.850001X0.850001X-0.850001X0*%
%ADD11C,2.200000*%
%ADD12C,1.600000*%
%ADD13C,2.400000*%
%ADD14R,1.600000X1.600000*%
%ADD15C,5.500000*%
%ADD16R,1.800000X1.800000*%
%ADD17C,1.800000*%
%ADD18RoundRect,0.250000X0.550000X0.550000X-0.550000X0.550000X-0.550000X-0.550000X0.550000X-0.550000X0*%
%ADD19C,2.000000*%
%ADD20RoundRect,0.250000X0.950000X0.550000X-0.950000X0.550000X-0.950000X-0.550000X0.950000X-0.550000X0*%
%ADD21O,2.400000X1.600000*%
%ADD22RoundRect,0.250000X-0.550000X-0.550000X0.550000X-0.550000X0.550000X0.550000X-0.550000X0.550000X0*%
%ADD23O,3.500000X2.200000*%
%ADD24R,2.500000X1.500000*%
%ADD25O,2.500000X1.500000*%
%ADD26RoundRect,0.250000X-0.950000X-0.550000X0.950000X-0.550000X0.950000X0.550000X-0.950000X0.550000X0*%
%ADD27RoundRect,0.250001X-1.149999X-1.149999X1.149999X-1.149999X1.149999X1.149999X-1.149999X1.149999X0*%
%ADD28C,2.800000*%
G04 APERTURE END LIST*
D10*
%TO.C,D4*%
X187600000Y-118750000D03*
D11*
X174900000Y-118750000D03*
%TD*%
D12*
%TO.C,R4*%
X153235000Y-90830000D03*
X153235000Y-80670000D03*
%TD*%
D13*
%TO.C,L1*%
X197500000Y-118750000D03*
X194500000Y-118750000D03*
%TD*%
D14*
%TO.C,U5*%
X175670000Y-102460000D03*
D12*
X175670000Y-105000000D03*
X175670000Y-107540000D03*
X175670000Y-110080000D03*
X175670000Y-112620000D03*
X180750000Y-112620000D03*
X180750000Y-110080000D03*
X180750000Y-107540000D03*
X180750000Y-105000000D03*
X180750000Y-102460000D03*
%TD*%
D15*
%TO.C,H4*%
X198000000Y-68000000D03*
%TD*%
%TO.C,H1*%
X114000000Y-68000000D03*
%TD*%
D16*
%TO.C,D1*%
X123000000Y-78540000D03*
D17*
X123000000Y-76000000D03*
%TD*%
D18*
%TO.C,U0*%
X102805000Y-102540000D03*
D12*
X102805000Y-100000000D03*
X102805000Y-97460000D03*
X102805000Y-94920000D03*
X95185000Y-94920000D03*
X95185000Y-97460000D03*
X95185000Y-100000000D03*
X95185000Y-102540000D03*
%TD*%
D19*
%TO.C,SW1*%
X130750000Y-124250000D03*
X137250000Y-124250000D03*
X130750000Y-128750000D03*
X137250000Y-128750000D03*
%TD*%
D20*
%TO.C,U3*%
X145060000Y-113390000D03*
D21*
X145060000Y-110850000D03*
X145060000Y-108310000D03*
X145060000Y-105770000D03*
X145060000Y-103230000D03*
X145060000Y-100690000D03*
X145060000Y-98150000D03*
X145060000Y-95610000D03*
X137440000Y-95610000D03*
X137440000Y-98150000D03*
X137440000Y-100690000D03*
X137440000Y-103230000D03*
X137440000Y-105770000D03*
X137440000Y-108310000D03*
X137440000Y-110850000D03*
X137440000Y-113390000D03*
%TD*%
D12*
%TO.C,R1*%
X134170000Y-78500000D03*
X144330000Y-78500000D03*
%TD*%
D22*
%TO.C,C1*%
X188000000Y-90750000D03*
D12*
X190000000Y-90750000D03*
%TD*%
D23*
%TO.C,SW2*%
X116500000Y-104600000D03*
X116500000Y-96400000D03*
D24*
X116500000Y-102500000D03*
D25*
X116500000Y-100500000D03*
X116500000Y-98500000D03*
%TD*%
D12*
%TO.C,R2*%
X138170000Y-87460000D03*
X148330000Y-87460000D03*
%TD*%
D26*
%TO.C,U2*%
X123130000Y-95670000D03*
D21*
X123130000Y-98210000D03*
X123130000Y-100750000D03*
X123130000Y-103290000D03*
X123130000Y-105830000D03*
X123130000Y-108370000D03*
X123130000Y-110910000D03*
X123130000Y-113450000D03*
X130750000Y-113450000D03*
X130750000Y-110910000D03*
X130750000Y-108370000D03*
X130750000Y-105830000D03*
X130750000Y-103290000D03*
X130750000Y-100750000D03*
X130750000Y-98210000D03*
X130750000Y-95670000D03*
%TD*%
D16*
%TO.C,D2*%
X127000000Y-87500000D03*
D17*
X127000000Y-84960000D03*
%TD*%
D27*
%TO.C,J1*%
X176250000Y-90617500D03*
D28*
X181250000Y-90617500D03*
%TD*%
D15*
%TO.C,H2*%
X114000000Y-132000000D03*
%TD*%
D22*
%TO.C,C2*%
X199250000Y-105250000D03*
D12*
X201250000Y-105250000D03*
%TD*%
D16*
%TO.C,D5*%
X161025000Y-86000000D03*
D17*
X158485000Y-86000000D03*
%TD*%
D20*
%TO.C,U4*%
X158560000Y-113390000D03*
D21*
X158560000Y-110850000D03*
X158560000Y-108310000D03*
X158560000Y-105770000D03*
X158560000Y-103230000D03*
X158560000Y-100690000D03*
X158560000Y-98150000D03*
X158560000Y-95610000D03*
X150940000Y-95610000D03*
X150940000Y-98150000D03*
X150940000Y-100690000D03*
X150940000Y-103230000D03*
X150940000Y-105770000D03*
X150940000Y-108310000D03*
X150940000Y-110850000D03*
X150940000Y-113390000D03*
%TD*%
D16*
%TO.C,D3*%
X145000000Y-119250000D03*
D17*
X145000000Y-121790000D03*
%TD*%
D15*
%TO.C,H3*%
X198000000Y-132000000D03*
%TD*%
D12*
%TO.C,R3*%
X151670000Y-120525000D03*
X161830000Y-120525000D03*
%TD*%
D18*
%TO.C,U1*%
X195370000Y-108790000D03*
D12*
X195370000Y-106250000D03*
X195370000Y-103710000D03*
X195370000Y-101170000D03*
X187750000Y-101170000D03*
X187750000Y-103710000D03*
X187750000Y-106250000D03*
X187750000Y-108790000D03*
%TD*%
M02*
