M48
; DRILL file {KiCad 9.0.3} date 2025-12-16T09:58:10+0100
; FORMAT={-:-/ absolute / metric / decimal}
; #@! TF.CreationDate,2025-12-16T09:58:10+01:00
; #@! TF.GenerationSoftware,Kicad,Pcbnew,9.0.3
; #@! TF.FileFunction,MixedPlating,1,2
FMAT,2
METRIC
; #@! TA.AperFunction,Plated,PTH,ComponentDrill
T1C0.800
; #@! TA.AperFunction,Plated,PTH,ComponentDrill
T2C0.900
; #@! TA.AperFunction,Plated,PTH,ComponentDrill
T3C1.100
; #@! TA.AperFunction,Plated,PTH,ComponentDrill
T4C1.200
; #@! TA.AperFunction,Plated,PTH,ComponentDrill
T5C1.400
; #@! TA.AperFunction,Plated,PTH,ComponentDrill
T6C1.500
; #@! TA.AperFunction,NonPlated,NPTH,ComponentDrill
T7C5.500
%
G90
G05
T1
X95.185Y-94.92
X95.185Y-97.46
X95.185Y-100.0
X95.185Y-102.54
X102.805Y-94.92
X102.805Y-97.46
X102.805Y-100.0
X102.805Y-102.54
X116.5Y-98.5
X116.5Y-100.5
X116.5Y-102.5
X123.13Y-95.67
X123.13Y-98.21
X123.13Y-100.75
X123.13Y-103.29
X123.13Y-105.83
X123.13Y-108.37
X123.13Y-110.91
X123.13Y-113.45
X130.75Y-95.67
X130.75Y-98.21
X130.75Y-100.75
X130.75Y-103.29
X130.75Y-105.83
X130.75Y-108.37
X130.75Y-110.91
X130.75Y-113.45
X134.17Y-78.5
X137.44Y-95.61
X137.44Y-98.15
X137.44Y-100.69
X137.44Y-103.23
X137.44Y-105.77
X137.44Y-108.31
X137.44Y-110.85
X137.44Y-113.39
X138.17Y-87.46
X144.33Y-78.5
X145.06Y-95.61
X145.06Y-98.15
X145.06Y-100.69
X145.06Y-103.23
X145.06Y-105.77
X145.06Y-108.31
X145.06Y-110.85
X145.06Y-113.39
X148.33Y-87.46
X150.94Y-95.61
X150.94Y-98.15
X150.94Y-100.69
X150.94Y-103.23
X150.94Y-105.77
X150.94Y-108.31
X150.94Y-110.85
X150.94Y-113.39
X151.67Y-120.525
X153.235Y-80.67
X153.235Y-90.83
X158.56Y-95.61
X158.56Y-98.15
X158.56Y-100.69
X158.56Y-103.23
X158.56Y-105.77
X158.56Y-108.31
X158.56Y-110.85
X158.56Y-113.39
X161.83Y-120.525
X175.67Y-102.46
X175.67Y-105.0
X175.67Y-107.54
X175.67Y-110.08
X175.67Y-112.62
X180.75Y-102.46
X180.75Y-105.0
X180.75Y-107.54
X180.75Y-110.08
X180.75Y-112.62
X187.75Y-101.17
X187.75Y-103.71
X187.75Y-106.25
X187.75Y-108.79
X188.0Y-90.75
X190.0Y-90.75
X195.37Y-101.17
X195.37Y-103.71
X195.37Y-106.25
X195.37Y-108.79
X199.25Y-105.25
X201.25Y-105.25
T2
X123.0Y-76.0
X123.0Y-78.54
X127.0Y-84.96
X127.0Y-87.5
X145.0Y-119.25
X145.0Y-121.79
X158.485Y-86.0
X161.025Y-86.0
T3
X130.75Y-124.25
X130.75Y-128.75
X137.25Y-124.25
X137.25Y-128.75
X174.9Y-118.75
X187.6Y-118.75
T4
X194.5Y-118.75
X197.5Y-118.75
T5
X176.25Y-90.617
X181.25Y-90.617
T6
X116.5Y-96.4
X116.5Y-104.6
T7
X114.0Y-68.0
X114.0Y-132.0
X198.0Y-68.0
X198.0Y-132.0
M30
