%TF.GenerationSoftware,KiCad,Pcbnew,9.0.3*%
%TF.CreationDate,2025-12-16T09:58:15+01:00*%
%TF.ProjectId,PTP_Ivan_Hodak_Project1,5054505f-4976-4616-9e5f-486f64616b5f,rev?*%
%TF.SameCoordinates,Original*%
%TF.FileFunction,Copper,L1,Top*%
%TF.FilePolarity,Positive*%
%FSLAX46Y46*%
G04 Gerber Fmt 4.6, Leading zero omitted, Abs format (unit mm)*
G04 Created by KiCad (PCBNEW 9.0.3) date 2025-12-16 09:58:15*
%MOMM*%
%LPD*%
G01*
G04 APERTURE LIST*
G04 Aperture macros list*
%AMRoundRect*
0 Rectangle with rounded corners*
0 $1 Rounding radius*
0 $2 $3 $4 $5 $6 $7 $8 $9 X,Y pos of 4 corners*
0 Add a 4 corners polygon primitive as box body*
4,1,4,$2,$3,$4,$5,$6,$7,$8,$9,$2,$3,0*
0 Add four circle primitives for the rounded corners*
1,1,$1+$1,$2,$3*
1,1,$1+$1,$4,$5*
1,1,$1+$1,$6,$7*
1,1,$1+$1,$8,$9*
0 Add four rect primitives between the rounded corners*
20,1,$1+$1,$2,$3,$4,$5,0*
20,1,$1+$1,$4,$5,$6,$7,0*
20,1,$1+$1,$6,$7,$8,$9,0*
20,1,$1+$1,$8,$9,$2,$3,0*%
G04 Aperture macros list end*
%TA.AperFunction,ComponentPad*%
%ADD10RoundRect,0.249999X0.850001X0.850001X-0.850001X0.850001X-0.850001X-0.850001X0.850001X-0.850001X0*%
%TD*%
%TA.AperFunction,ComponentPad*%
%ADD11C,2.200000*%
%TD*%
%TA.AperFunction,ComponentPad*%
%ADD12C,1.600000*%
%TD*%
%TA.AperFunction,ComponentPad*%
%ADD13C,2.400000*%
%TD*%
%TA.AperFunction,ComponentPad*%
%ADD14R,1.600000X1.600000*%
%TD*%
%TA.AperFunction,SMDPad,CuDef*%
%ADD15RoundRect,0.250000X-0.400000X-0.625000X0.400000X-0.625000X0.400000X0.625000X-0.400000X0.625000X0*%
%TD*%
%TA.AperFunction,ComponentPad*%
%ADD16R,1.800000X1.800000*%
%TD*%
%TA.AperFunction,ComponentPad*%
%ADD17C,1.800000*%
%TD*%
%TA.AperFunction,ComponentPad*%
%ADD18RoundRect,0.250000X0.550000X0.550000X-0.550000X0.550000X-0.550000X-0.550000X0.550000X-0.550000X0*%
%TD*%
%TA.AperFunction,ComponentPad*%
%ADD19C,2.000000*%
%TD*%
%TA.AperFunction,ComponentPad*%
%ADD20RoundRect,0.250000X0.950000X0.550000X-0.950000X0.550000X-0.950000X-0.550000X0.950000X-0.550000X0*%
%TD*%
%TA.AperFunction,ComponentPad*%
%ADD21O,2.400000X1.600000*%
%TD*%
%TA.AperFunction,SMDPad,CuDef*%
%ADD22RoundRect,0.250000X-0.412500X-0.650000X0.412500X-0.650000X0.412500X0.650000X-0.412500X0.650000X0*%
%TD*%
%TA.AperFunction,ComponentPad*%
%ADD23RoundRect,0.250000X-0.550000X-0.550000X0.550000X-0.550000X0.550000X0.550000X-0.550000X0.550000X0*%
%TD*%
%TA.AperFunction,ComponentPad*%
%ADD24O,3.500000X2.200000*%
%TD*%
%TA.AperFunction,ComponentPad*%
%ADD25R,2.500000X1.500000*%
%TD*%
%TA.AperFunction,ComponentPad*%
%ADD26O,2.500000X1.500000*%
%TD*%
%TA.AperFunction,ComponentPad*%
%ADD27RoundRect,0.250000X-0.950000X-0.550000X0.950000X-0.550000X0.950000X0.550000X-0.950000X0.550000X0*%
%TD*%
%TA.AperFunction,ComponentPad*%
%ADD28RoundRect,0.250001X-1.149999X-1.149999X1.149999X-1.149999X1.149999X1.149999X-1.149999X1.149999X0*%
%TD*%
%TA.AperFunction,ComponentPad*%
%ADD29C,2.800000*%
%TD*%
%TA.AperFunction,SMDPad,CuDef*%
%ADD30RoundRect,0.250000X0.625000X-0.400000X0.625000X0.400000X-0.625000X0.400000X-0.625000X-0.400000X0*%
%TD*%
%TA.AperFunction,SMDPad,CuDef*%
%ADD31RoundRect,0.250000X0.400000X0.625000X-0.400000X0.625000X-0.400000X-0.625000X0.400000X-0.625000X0*%
%TD*%
%TA.AperFunction,Conductor*%
%ADD32C,0.200000*%
%TD*%
G04 APERTURE END LIST*
D10*
%TO.P,D4,1,K*%
%TO.N,Net-(D4-K)*%
X187600000Y-118750000D03*
D11*
%TO.P,D4,2,A*%
%TO.N,GND*%
X174900000Y-118750000D03*
%TD*%
D12*
%TO.P,R4,2*%
%TO.N,GND*%
X153235000Y-90830000D03*
%TO.P,R4,1*%
%TO.N,Net-(D5-K)*%
X153235000Y-80670000D03*
%TD*%
D13*
%TO.P,L1,2,2*%
%TO.N,+5V*%
X197500000Y-118750000D03*
%TO.P,L1,1,1*%
%TO.N,Net-(D4-K)*%
X194500000Y-118750000D03*
%TD*%
D14*
%TO.P,U5,1,CA*%
%TO.N,+5V*%
X175670000Y-102460000D03*
D12*
%TO.P,U5,2,F*%
%TO.N,Net-(U5-F)*%
X175670000Y-105000000D03*
%TO.P,U5,3,G*%
%TO.N,Net-(U5-G)*%
X175670000Y-107540000D03*
%TO.P,U5,4,E*%
%TO.N,Net-(U5-E)*%
X175670000Y-110080000D03*
%TO.P,U5,5,D*%
%TO.N,Net-(U5-D)*%
X175670000Y-112620000D03*
%TO.P,U5,6,CA*%
%TO.N,+5V*%
X180750000Y-112620000D03*
%TO.P,U5,7,DP*%
%TO.N,unconnected-(U5-DP-Pad7)*%
X180750000Y-110080000D03*
%TO.P,U5,8,C*%
%TO.N,Net-(U5-C)*%
X180750000Y-107540000D03*
%TO.P,U5,9,B*%
%TO.N,Net-(U5-B)*%
X180750000Y-105000000D03*
%TO.P,U5,10,A*%
%TO.N,Net-(U5-A)*%
X180750000Y-102460000D03*
%TD*%
D15*
%TO.P,R14,2*%
%TO.N,Net-(U5-D)*%
X168550000Y-125000000D03*
%TO.P,R14,1*%
%TO.N,Net-(U4-d)*%
X165450000Y-125000000D03*
%TD*%
%TO.P,R20,1*%
%TO.N,Net-(U0-DIS)*%
X85950000Y-117000000D03*
%TO.P,R20,2*%
%TO.N,Net-(U0-THR)*%
X89050000Y-117000000D03*
%TD*%
D16*
%TO.P,D1,1,K*%
%TO.N,Net-(D1-K)*%
X123000000Y-78540000D03*
D17*
%TO.P,D1,2,A*%
%TO.N,Q0*%
X123000000Y-76000000D03*
%TD*%
D15*
%TO.P,R17,1*%
%TO.N,Net-(U4-f)*%
X165450000Y-97500000D03*
%TO.P,R17,2*%
%TO.N,Net-(U5-F)*%
X168550000Y-97500000D03*
%TD*%
D18*
%TO.P,U0,1,GND*%
%TO.N,GND*%
X102805000Y-102540000D03*
D12*
%TO.P,U0,2,TR*%
%TO.N,Net-(U0-THR)*%
X102805000Y-100000000D03*
%TO.P,U0,3,Q*%
%TO.N,555*%
X102805000Y-97460000D03*
%TO.P,U0,4,R*%
%TO.N,+5V*%
X102805000Y-94920000D03*
%TO.P,U0,5,CV*%
%TO.N,unconnected-(U0-CV-Pad5)*%
X95185000Y-94920000D03*
%TO.P,U0,6,THR*%
%TO.N,Net-(U0-THR)*%
X95185000Y-97460000D03*
%TO.P,U0,7,DIS*%
%TO.N,Net-(U0-DIS)*%
X95185000Y-100000000D03*
%TO.P,U0,8,VCC*%
%TO.N,+5V*%
X95185000Y-102540000D03*
%TD*%
D19*
%TO.P,SW1,1,1*%
%TO.N,GND*%
X130750000Y-124250000D03*
X137250000Y-124250000D03*
%TO.P,SW1,2,2*%
%TO.N,Net-(R13-Pad1)*%
X130750000Y-128750000D03*
X137250000Y-128750000D03*
%TD*%
D15*
%TO.P,R16,1*%
%TO.N,Net-(U4-e)*%
X165450000Y-106750000D03*
%TO.P,R16,2*%
%TO.N,Net-(U5-E)*%
X168550000Y-106750000D03*
%TD*%
D20*
%TO.P,U3,1,Q*%
%TO.N,Q2*%
X145060000Y-113390000D03*
D21*
%TO.P,U3,2,~{Q}*%
%TO.N,unconnected-(U3A-~{Q}-Pad2)*%
X145060000Y-110850000D03*
%TO.P,U3,3,C*%
%TO.N,Q1*%
X145060000Y-108310000D03*
%TO.P,U3,4,R*%
%TO.N,Reset*%
X145060000Y-105770000D03*
%TO.P,U3,5,K*%
%TO.N,Net-(U3A-J)*%
X145060000Y-103230000D03*
%TO.P,U3,6,J*%
X145060000Y-100690000D03*
%TO.P,U3,7,S*%
%TO.N,GND*%
X145060000Y-98150000D03*
%TO.P,U3,8,VSS*%
X145060000Y-95610000D03*
%TO.P,U3,9,S*%
X137440000Y-95610000D03*
%TO.P,U3,10,J*%
%TO.N,Net-(U3B-J)*%
X137440000Y-98150000D03*
%TO.P,U3,11,K*%
X137440000Y-100690000D03*
%TO.P,U3,12,R*%
%TO.N,Reset*%
X137440000Y-103230000D03*
%TO.P,U3,13,C*%
%TO.N,Q2*%
X137440000Y-105770000D03*
%TO.P,U3,14,~{Q}*%
%TO.N,unconnected-(U3B-~{Q}-Pad14)*%
X137440000Y-108310000D03*
%TO.P,U3,15,Q*%
%TO.N,Q3*%
X137440000Y-110850000D03*
%TO.P,U3,16,VDD*%
%TO.N,+5V*%
X137440000Y-113390000D03*
%TD*%
D22*
%TO.P,C4,1*%
%TO.N,+5V*%
X198687500Y-111500000D03*
%TO.P,C4,2*%
%TO.N,GND*%
X201812500Y-111500000D03*
%TD*%
D15*
%TO.P,R11,1*%
%TO.N,+5V*%
X139700000Y-91250000D03*
%TO.P,R11,2*%
%TO.N,Net-(U3A-J)*%
X142800000Y-91250000D03*
%TD*%
D12*
%TO.P,R1,1*%
%TO.N,Net-(D1-K)*%
X134170000Y-78500000D03*
%TO.P,R1,2*%
%TO.N,GND*%
X144330000Y-78500000D03*
%TD*%
D15*
%TO.P,R5,1*%
%TO.N,Net-(U4-a)*%
X165450000Y-111250000D03*
%TO.P,R5,2*%
%TO.N,Net-(U5-A)*%
X168550000Y-111250000D03*
%TD*%
D23*
%TO.P,C1,1*%
%TO.N,VD*%
X188000000Y-90750000D03*
D12*
%TO.P,C1,2*%
%TO.N,GND*%
X190000000Y-90750000D03*
%TD*%
D15*
%TO.P,R18,1*%
%TO.N,Net-(U4-g)*%
X165450000Y-102500000D03*
%TO.P,R18,2*%
%TO.N,Net-(U5-G)*%
X168550000Y-102500000D03*
%TD*%
%TO.P,R6,1*%
%TO.N,Net-(U4-b)*%
X165450000Y-115500000D03*
%TO.P,R6,2*%
%TO.N,Net-(U5-B)*%
X168550000Y-115500000D03*
%TD*%
D24*
%TO.P,SW2,*%
%TO.N,*%
X116500000Y-104600000D03*
X116500000Y-96400000D03*
D25*
%TO.P,SW2,1,A*%
%TO.N,Net-(SW2-A)*%
X116500000Y-102500000D03*
D26*
%TO.P,SW2,2,B*%
%TO.N,Clock*%
X116500000Y-100500000D03*
%TO.P,SW2,3,C*%
%TO.N,555*%
X116500000Y-98500000D03*
%TD*%
D12*
%TO.P,R2,1*%
%TO.N,Net-(D2-K)*%
X138170000Y-87460000D03*
%TO.P,R2,2*%
%TO.N,GND*%
X148330000Y-87460000D03*
%TD*%
D27*
%TO.P,U2,1,Q*%
%TO.N,Q0*%
X123130000Y-95670000D03*
D21*
%TO.P,U2,2,~{Q}*%
%TO.N,unconnected-(U2A-~{Q}-Pad2)*%
X123130000Y-98210000D03*
%TO.P,U2,3,C*%
%TO.N,Clock*%
X123130000Y-100750000D03*
%TO.P,U2,4,R*%
%TO.N,Reset*%
X123130000Y-103290000D03*
%TO.P,U2,5,K*%
%TO.N,Net-(U2A-J)*%
X123130000Y-105830000D03*
%TO.P,U2,6,J*%
X123130000Y-108370000D03*
%TO.P,U2,7,S*%
%TO.N,GND*%
X123130000Y-110910000D03*
%TO.P,U2,8,VSS*%
X123130000Y-113450000D03*
%TO.P,U2,9,S*%
X130750000Y-113450000D03*
%TO.P,U2,10,J*%
%TO.N,Net-(U2B-J)*%
X130750000Y-110910000D03*
%TO.P,U2,11,K*%
X130750000Y-108370000D03*
%TO.P,U2,12,R*%
%TO.N,Reset*%
X130750000Y-105830000D03*
%TO.P,U2,13,C*%
%TO.N,Q0*%
X130750000Y-103290000D03*
%TO.P,U2,14,~{Q}*%
%TO.N,unconnected-(U2B-~{Q}-Pad14)*%
X130750000Y-100750000D03*
%TO.P,U2,15,Q*%
%TO.N,Q1*%
X130750000Y-98210000D03*
%TO.P,U2,16,VDD*%
%TO.N,+5V*%
X130750000Y-95670000D03*
%TD*%
D16*
%TO.P,D2,1,K*%
%TO.N,Net-(D2-K)*%
X127000000Y-87500000D03*
D17*
%TO.P,D2,2,A*%
%TO.N,Q1*%
X127000000Y-84960000D03*
%TD*%
D28*
%TO.P,J1,1,Pin_1*%
%TO.N,GND*%
X176250000Y-90617500D03*
D29*
%TO.P,J1,2,Pin_2*%
%TO.N,VD*%
X181250000Y-90617500D03*
%TD*%
D30*
%TO.P,R9,1*%
%TO.N,+5V*%
X97000000Y-113800000D03*
%TO.P,R9,2*%
%TO.N,Net-(U2A-J)*%
X97000000Y-110700000D03*
%TD*%
D15*
%TO.P,R8,1*%
%TO.N,Net-(U4-c)*%
X165450000Y-120500000D03*
%TO.P,R8,2*%
%TO.N,Net-(U5-C)*%
X168550000Y-120500000D03*
%TD*%
D22*
%TO.P,C5,1*%
%TO.N,Net-(U0-THR)*%
X101937500Y-107500000D03*
%TO.P,C5,2*%
%TO.N,GND*%
X105062500Y-107500000D03*
%TD*%
D23*
%TO.P,C2,1*%
%TO.N,+5V*%
X199250000Y-105250000D03*
D12*
%TO.P,C2,2*%
%TO.N,GND*%
X201250000Y-105250000D03*
%TD*%
D15*
%TO.P,R7,1*%
%TO.N,Clock*%
X52200000Y-98500000D03*
%TO.P,R7,2*%
%TO.N,+5V*%
X55300000Y-98500000D03*
%TD*%
%TO.P,R12,1*%
%TO.N,+5V*%
X60200000Y-98500000D03*
%TO.P,R12,2*%
%TO.N,Net-(U3B-J)*%
X63300000Y-98500000D03*
%TD*%
D22*
%TO.P,C3,1*%
%TO.N,GND*%
X108687500Y-102500000D03*
%TO.P,C3,2*%
%TO.N,Net-(SW2-A)*%
X111812500Y-102500000D03*
%TD*%
D16*
%TO.P,D5,1,K*%
%TO.N,Net-(D5-K)*%
X161025000Y-86000000D03*
D17*
%TO.P,D5,2,A*%
%TO.N,Q3*%
X158485000Y-86000000D03*
%TD*%
D20*
%TO.P,U4,1,B*%
%TO.N,Q1*%
X158560000Y-113390000D03*
D21*
%TO.P,U4,2,C*%
%TO.N,Q2*%
X158560000Y-110850000D03*
%TO.P,U4,3,LT*%
%TO.N,Net-(U4-BI)*%
X158560000Y-108310000D03*
%TO.P,U4,4,BI*%
X158560000Y-105770000D03*
%TO.P,U4,5,RBI*%
X158560000Y-103230000D03*
%TO.P,U4,6,D*%
%TO.N,Q3*%
X158560000Y-100690000D03*
%TO.P,U4,7,A*%
%TO.N,Q0*%
X158560000Y-98150000D03*
%TO.P,U4,8,GND*%
%TO.N,GND*%
X158560000Y-95610000D03*
%TO.P,U4,9,e*%
%TO.N,Net-(U4-e)*%
X150940000Y-95610000D03*
%TO.P,U4,10,d*%
%TO.N,Net-(U4-d)*%
X150940000Y-98150000D03*
%TO.P,U4,11,c*%
%TO.N,Net-(U4-c)*%
X150940000Y-100690000D03*
%TO.P,U4,12,b*%
%TO.N,Net-(U4-b)*%
X150940000Y-103230000D03*
%TO.P,U4,13,a*%
%TO.N,Net-(U4-a)*%
X150940000Y-105770000D03*
%TO.P,U4,14,g*%
%TO.N,Net-(U4-g)*%
X150940000Y-108310000D03*
%TO.P,U4,15,f*%
%TO.N,Net-(U4-f)*%
X150940000Y-110850000D03*
%TO.P,U4,16,VCC*%
%TO.N,+5V*%
X150940000Y-113390000D03*
%TD*%
D16*
%TO.P,D3,1,K*%
%TO.N,Net-(D3-K)*%
X145000000Y-119250000D03*
D17*
%TO.P,D3,2,A*%
%TO.N,Q2*%
X145000000Y-121790000D03*
%TD*%
D31*
%TO.P,R10,1*%
%TO.N,+5V*%
X135550000Y-119250000D03*
%TO.P,R10,2*%
%TO.N,Net-(U2B-J)*%
X132450000Y-119250000D03*
%TD*%
D15*
%TO.P,R15,1*%
%TO.N,Net-(U4-BI)*%
X165450000Y-92250000D03*
%TO.P,R15,2*%
%TO.N,+5V*%
X168550000Y-92250000D03*
%TD*%
%TO.P,R19,1*%
%TO.N,+5V*%
X81450000Y-106500000D03*
%TO.P,R19,2*%
%TO.N,Net-(U0-DIS)*%
X84550000Y-106500000D03*
%TD*%
D12*
%TO.P,R3,1*%
%TO.N,Net-(D3-K)*%
X151670000Y-120525000D03*
%TO.P,R3,2*%
%TO.N,GND*%
X161830000Y-120525000D03*
%TD*%
D18*
%TO.P,U1,1,FB*%
%TO.N,+5V*%
X195370000Y-108790000D03*
D12*
%TO.P,U1,2,SGND*%
%TO.N,GND*%
X195370000Y-106250000D03*
%TO.P,U1,3,~{ON}/OFF*%
X195370000Y-103710000D03*
%TO.P,U1,4,PGND*%
X195370000Y-101170000D03*
%TO.P,U1,5,VIN*%
%TO.N,VD*%
X187750000Y-101170000D03*
%TO.P,U1,6,NC*%
%TO.N,unconnected-(U1-NC-Pad6)*%
X187750000Y-103710000D03*
%TO.P,U1,7,OUT*%
%TO.N,Net-(D4-K)*%
X187750000Y-106250000D03*
%TO.P,U1,8,NC*%
%TO.N,unconnected-(U1-NC-Pad8)*%
X187750000Y-108790000D03*
%TD*%
D32*
%TO.N,Net-(D4-K)*%
X187600000Y-118750000D02*
X194500000Y-118750000D01*
%TO.N,Net-(D1-K)*%
X134170000Y-78500000D02*
X123040000Y-78500000D01*
X123040000Y-78500000D02*
X123000000Y-78540000D01*
%TO.N,Net-(D2-K)*%
X138170000Y-87460000D02*
X127040000Y-87460000D01*
X127040000Y-87460000D02*
X127000000Y-87500000D01*
%TO.N,Net-(D3-K)*%
X145000000Y-119250000D02*
X150395000Y-119250000D01*
X150395000Y-119250000D02*
X151670000Y-120525000D01*
%TO.N,Net-(D5-K)*%
X159655000Y-80670000D02*
X161025000Y-82040000D01*
X153235000Y-80670000D02*
X159655000Y-80670000D01*
X161025000Y-82040000D02*
X161025000Y-86000000D01*
%TD*%
M02*
