%TF.GenerationSoftware,KiCad,Pcbnew,9.0.6*%
%TF.CreationDate,2026-02-02T11:19:04+01:00*%
%TF.ProjectId,PTP_Ivan_Hodak_Project1,5054505f-4976-4616-9e5f-486f64616b5f,rev?*%
%TF.SameCoordinates,Original*%
%TF.FileFunction,Soldermask,Bot*%
%TF.FilePolarity,Negative*%
%FSLAX46Y46*%
G04 Gerber Fmt 4.6, Leading zero omitted, Abs format (unit mm)*
G04 Created by KiCad (PCBNEW 9.0.6) date 2026-02-02 11:19:04*
%MOMM*%
%LPD*%
G01*
G04 APERTURE LIST*
G04 Aperture macros list*
%AMRoundRect*
0 Rectangle with rounded corners*
0 $1 Rounding radius*
0 $2 $3 $4 $5 $6 $7 $8 $9 X,Y pos of 4 corners*
0 Add a 4 corners polygon primitive as box body*
4,1,4,$2,$3,$4,$5,$6,$7,$8,$9,$2,$3,0*
0 Add four circle primitives for the rounded corners*
1,1,$1+$1,$2,$3*
1,1,$1+$1,$4,$5*
1,1,$1+$1,$6,$7*
1,1,$1+$1,$8,$9*
0 Add four rect primitives between the rounded corners*
20,1,$1+$1,$2,$3,$4,$5,0*
20,1,$1+$1,$4,$5,$6,$7,0*
20,1,$1+$1,$6,$7,$8,$9,0*
20,1,$1+$1,$8,$9,$2,$3,0*%
G04 Aperture macros list end*
%ADD10C,5.500000*%
%ADD11R,1.800000X1.800000*%
%ADD12C,1.800000*%
%ADD13RoundRect,0.250000X0.550000X0.550000X-0.550000X0.550000X-0.550000X-0.550000X0.550000X-0.550000X0*%
%ADD14C,1.600000*%
%ADD15C,2.000000*%
%ADD16RoundRect,0.250000X0.950000X0.550000X-0.950000X0.550000X-0.950000X-0.550000X0.950000X-0.550000X0*%
%ADD17O,2.400000X1.600000*%
%ADD18RoundRect,0.250000X-0.550000X-0.550000X0.550000X-0.550000X0.550000X0.550000X-0.550000X0.550000X0*%
%ADD19O,3.500000X2.200000*%
%ADD20R,2.500000X1.500000*%
%ADD21O,2.500000X1.500000*%
%ADD22RoundRect,0.250000X-0.950000X-0.550000X0.950000X-0.550000X0.950000X0.550000X-0.950000X0.550000X0*%
%ADD23R,1.600000X1.600000*%
%ADD24RoundRect,0.250001X-1.149999X-1.149999X1.149999X-1.149999X1.149999X1.149999X-1.149999X1.149999X0*%
%ADD25C,2.800000*%
%ADD26RoundRect,0.249999X0.850001X0.850001X-0.850001X0.850001X-0.850001X-0.850001X0.850001X-0.850001X0*%
%ADD27C,2.200000*%
%ADD28C,2.400000*%
G04 APERTURE END LIST*
D10*
%TO.C,H4*%
X198000000Y-68000000D03*
%TD*%
%TO.C,H1*%
X114000000Y-68000000D03*
%TD*%
D11*
%TO.C,D1*%
X123310000Y-72810000D03*
D12*
X123310000Y-70270000D03*
%TD*%
D13*
%TO.C,U0*%
X119870000Y-116830000D03*
D14*
X119870000Y-114290000D03*
X119870000Y-111750000D03*
X119870000Y-109210000D03*
X112250000Y-109210000D03*
X112250000Y-111750000D03*
X112250000Y-114290000D03*
X112250000Y-116830000D03*
%TD*%
D15*
%TO.C,SW1*%
X131060000Y-118520000D03*
X137560000Y-118520000D03*
X131060000Y-123020000D03*
X137560000Y-123020000D03*
%TD*%
D16*
%TO.C,U3*%
X145370000Y-107660000D03*
D17*
X145370000Y-105120000D03*
X145370000Y-102580000D03*
X145370000Y-100040000D03*
X145370000Y-97500000D03*
X145370000Y-94960000D03*
X145370000Y-92420000D03*
X145370000Y-89880000D03*
X137750000Y-89880000D03*
X137750000Y-92420000D03*
X137750000Y-94960000D03*
X137750000Y-97500000D03*
X137750000Y-100040000D03*
X137750000Y-102580000D03*
X137750000Y-105120000D03*
X137750000Y-107660000D03*
%TD*%
D14*
%TO.C,R1*%
X134480000Y-72770000D03*
X144640000Y-72770000D03*
%TD*%
D18*
%TO.C,C1*%
X188310000Y-85020000D03*
D14*
X190310000Y-85020000D03*
%TD*%
D19*
%TO.C,SW2*%
X118060000Y-98720000D03*
X118060000Y-90520000D03*
D20*
X118060000Y-96620000D03*
D21*
X118060000Y-94620000D03*
X118060000Y-92620000D03*
%TD*%
D14*
%TO.C,R2*%
X138480000Y-81730000D03*
X148640000Y-81730000D03*
%TD*%
D22*
%TO.C,U2*%
X123440000Y-89940000D03*
D17*
X123440000Y-92480000D03*
X123440000Y-95020000D03*
X123440000Y-97560000D03*
X123440000Y-100100000D03*
X123440000Y-102640000D03*
X123440000Y-105180000D03*
X123440000Y-107720000D03*
X131060000Y-107720000D03*
X131060000Y-105180000D03*
X131060000Y-102640000D03*
X131060000Y-100100000D03*
X131060000Y-97560000D03*
X131060000Y-95020000D03*
X131060000Y-92480000D03*
X131060000Y-89940000D03*
%TD*%
D23*
%TO.C,U5*%
X175980000Y-96730000D03*
D14*
X175980000Y-99270000D03*
X175980000Y-101810000D03*
X175980000Y-104350000D03*
X175980000Y-106890000D03*
X181060000Y-106890000D03*
X181060000Y-104350000D03*
X181060000Y-101810000D03*
X181060000Y-99270000D03*
X181060000Y-96730000D03*
%TD*%
D11*
%TO.C,D2*%
X127310000Y-81770000D03*
D12*
X127310000Y-79230000D03*
%TD*%
D13*
%TO.C,U1*%
X195680000Y-103060000D03*
D14*
X195680000Y-100520000D03*
X195680000Y-97980000D03*
X195680000Y-95440000D03*
X188060000Y-95440000D03*
X188060000Y-97980000D03*
X188060000Y-100520000D03*
X188060000Y-103060000D03*
%TD*%
D24*
%TO.C,J1*%
X176560000Y-84887500D03*
D25*
X181560000Y-84887500D03*
%TD*%
D10*
%TO.C,H2*%
X114000000Y-132000000D03*
%TD*%
D26*
%TO.C,D4*%
X187910000Y-113020000D03*
D27*
X175210000Y-113020000D03*
%TD*%
D14*
%TO.C,R4*%
X153545000Y-74940000D03*
X153545000Y-85100000D03*
%TD*%
D18*
%TO.C,C2*%
X199560000Y-99520000D03*
D14*
X201560000Y-99520000D03*
%TD*%
D11*
%TO.C,D5*%
X161335000Y-80270000D03*
D12*
X158795000Y-80270000D03*
%TD*%
D16*
%TO.C,U4*%
X158870000Y-107660000D03*
D17*
X158870000Y-105120000D03*
X158870000Y-102580000D03*
X158870000Y-100040000D03*
X158870000Y-97500000D03*
X158870000Y-94960000D03*
X158870000Y-92420000D03*
X158870000Y-89880000D03*
X151250000Y-89880000D03*
X151250000Y-92420000D03*
X151250000Y-94960000D03*
X151250000Y-97500000D03*
X151250000Y-100040000D03*
X151250000Y-102580000D03*
X151250000Y-105120000D03*
X151250000Y-107660000D03*
%TD*%
D28*
%TO.C,L1*%
X194810000Y-113020000D03*
X197810000Y-113020000D03*
%TD*%
D11*
%TO.C,D3*%
X145310000Y-113520000D03*
D12*
X145310000Y-116060000D03*
%TD*%
D10*
%TO.C,H3*%
X198000000Y-132000000D03*
%TD*%
D14*
%TO.C,R3*%
X151980000Y-114795000D03*
X162140000Y-114795000D03*
%TD*%
M02*
