M48
; DRILL file {KiCad 9.0.6} date 2026-02-02T11:19:17+0100
; FORMAT={-:-/ absolute / metric / decimal}
; #@! TF.CreationDate,2026-02-02T11:19:17+01:00
; #@! TF.GenerationSoftware,Kicad,Pcbnew,9.0.6
; #@! TF.FileFunction,Plated,1,2,PTH
FMAT,2
METRIC
; #@! TA.AperFunction,Plated,PTH,ViaDrill
T1C0.300
; #@! TA.AperFunction,Plated,PTH,ComponentDrill
T2C0.800
; #@! TA.AperFunction,Plated,PTH,ComponentDrill
T3C0.900
; #@! TA.AperFunction,Plated,PTH,ComponentDrill
T4C1.100
; #@! TA.AperFunction,Plated,PTH,ComponentDrill
T5C1.200
; #@! TA.AperFunction,Plated,PTH,ComponentDrill
T6C1.400
; #@! TA.AperFunction,Plated,PTH,ComponentDrill
T7C1.500
%
G90
G05
T1
X115.6Y-112.56
X116.52Y-113.48
X120.56Y-104.432
X120.56Y-105.733
X120.81Y-93.97
X120.81Y-95.27
X121.285Y-111.545
X121.705Y-110.125
X133.481Y-100.75
X133.5Y-97.951
X133.955Y-96.295
X134.25Y-94.75
X134.81Y-97.951
X134.81Y-99.27
X140.844Y-97.486
X142.06Y-105.27
X142.56Y-99.27
X142.81Y-97.951
X143.105Y-104.475
X143.459Y-109.52
X143.56Y-99.27
X144.759Y-109.52
X147.91Y-103.77
X148.56Y-104.77
X148.56Y-107.77
X153.31Y-107.02
X153.56Y-88.02
X153.56Y-89.42
X153.85Y-86.81
X154.245Y-101.205
X154.452Y-89.539
X154.871Y-84.871
X155.81Y-102.52
X156.25Y-86.25
X156.75Y-105.571
X156.81Y-98.64
X160.5Y-84.25
X160.5Y-85.994
X160.75Y-106.5
X160.81Y-98.77
X161.0Y-96.711
X161.25Y-95.411
X171.0Y-95.75
X171.56Y-97.5
X172.5Y-95.5
X172.56Y-97.52
X173.41Y-105.1
X173.75Y-102.25
X177.31Y-100.02
X178.278Y-100.488
X178.31Y-94.77
X178.31Y-96.279
X178.52Y-102.73
X179.415Y-99.415
X186.31Y-104.49
X186.31Y-105.79
T2
X112.25Y-109.21
X112.25Y-111.75
X112.25Y-114.29
X112.25Y-116.83
X118.06Y-92.62
X118.06Y-94.62
X118.06Y-96.62
X119.87Y-109.21
X119.87Y-111.75
X119.87Y-114.29
X119.87Y-116.83
X123.44Y-89.94
X123.44Y-92.48
X123.44Y-95.02
X123.44Y-97.56
X123.44Y-100.1
X123.44Y-102.64
X123.44Y-105.18
X123.44Y-107.72
X131.06Y-89.94
X131.06Y-92.48
X131.06Y-95.02
X131.06Y-97.56
X131.06Y-100.1
X131.06Y-102.64
X131.06Y-105.18
X131.06Y-107.72
X134.48Y-72.77
X137.75Y-89.88
X137.75Y-92.42
X137.75Y-94.96
X137.75Y-97.5
X137.75Y-100.04
X137.75Y-102.58
X137.75Y-105.12
X137.75Y-107.66
X138.48Y-81.73
X144.64Y-72.77
X145.37Y-89.88
X145.37Y-92.42
X145.37Y-94.96
X145.37Y-97.5
X145.37Y-100.04
X145.37Y-102.58
X145.37Y-105.12
X145.37Y-107.66
X148.64Y-81.73
X151.25Y-89.88
X151.25Y-92.42
X151.25Y-94.96
X151.25Y-97.5
X151.25Y-100.04
X151.25Y-102.58
X151.25Y-105.12
X151.25Y-107.66
X151.98Y-114.795
X153.545Y-74.94
X153.545Y-85.1
X158.87Y-89.88
X158.87Y-92.42
X158.87Y-94.96
X158.87Y-97.5
X158.87Y-100.04
X158.87Y-102.58
X158.87Y-105.12
X158.87Y-107.66
X162.14Y-114.795
X175.98Y-96.73
X175.98Y-99.27
X175.98Y-101.81
X175.98Y-104.35
X175.98Y-106.89
X181.06Y-96.73
X181.06Y-99.27
X181.06Y-101.81
X181.06Y-104.35
X181.06Y-106.89
X188.06Y-95.44
X188.06Y-97.98
X188.06Y-100.52
X188.06Y-103.06
X188.31Y-85.02
X190.31Y-85.02
X195.68Y-95.44
X195.68Y-97.98
X195.68Y-100.52
X195.68Y-103.06
X199.56Y-99.52
X201.56Y-99.52
T3
X123.31Y-70.27
X123.31Y-72.81
X127.31Y-79.23
X127.31Y-81.77
X145.31Y-113.52
X145.31Y-116.06
X158.795Y-80.27
X161.335Y-80.27
T4
X131.06Y-118.52
X131.06Y-123.02
X137.56Y-118.52
X137.56Y-123.02
X175.21Y-113.02
X187.91Y-113.02
T5
X194.81Y-113.02
X197.81Y-113.02
T6
X176.56Y-84.888
X181.56Y-84.888
T7
X118.06Y-90.52
X118.06Y-98.72
M30
