%TF.GenerationSoftware,KiCad,Pcbnew,9.0.6*%
%TF.CreationDate,2026-02-02T11:19:04+01:00*%
%TF.ProjectId,PTP_Ivan_Hodak_Project1,5054505f-4976-4616-9e5f-486f64616b5f,rev?*%
%TF.SameCoordinates,Original*%
%TF.FileFunction,Soldermask,Top*%
%TF.FilePolarity,Negative*%
%FSLAX46Y46*%
G04 Gerber Fmt 4.6, Leading zero omitted, Abs format (unit mm)*
G04 Created by KiCad (PCBNEW 9.0.6) date 2026-02-02 11:19:04*
%MOMM*%
%LPD*%
G01*
G04 APERTURE LIST*
G04 Aperture macros list*
%AMRoundRect*
0 Rectangle with rounded corners*
0 $1 Rounding radius*
0 $2 $3 $4 $5 $6 $7 $8 $9 X,Y pos of 4 corners*
0 Add a 4 corners polygon primitive as box body*
4,1,4,$2,$3,$4,$5,$6,$7,$8,$9,$2,$3,0*
0 Add four circle primitives for the rounded corners*
1,1,$1+$1,$2,$3*
1,1,$1+$1,$4,$5*
1,1,$1+$1,$6,$7*
1,1,$1+$1,$8,$9*
0 Add four rect primitives between the rounded corners*
20,1,$1+$1,$2,$3,$4,$5,0*
20,1,$1+$1,$4,$5,$6,$7,0*
20,1,$1+$1,$6,$7,$8,$9,0*
20,1,$1+$1,$8,$9,$2,$3,0*%
G04 Aperture macros list end*
%ADD10C,5.500000*%
%ADD11RoundRect,0.250000X-0.400000X-0.625000X0.400000X-0.625000X0.400000X0.625000X-0.400000X0.625000X0*%
%ADD12R,1.800000X1.800000*%
%ADD13C,1.800000*%
%ADD14RoundRect,0.250000X0.550000X0.550000X-0.550000X0.550000X-0.550000X-0.550000X0.550000X-0.550000X0*%
%ADD15C,1.600000*%
%ADD16C,2.000000*%
%ADD17RoundRect,0.250000X0.950000X0.550000X-0.950000X0.550000X-0.950000X-0.550000X0.950000X-0.550000X0*%
%ADD18O,2.400000X1.600000*%
%ADD19RoundRect,0.250000X-0.412500X-0.650000X0.412500X-0.650000X0.412500X0.650000X-0.412500X0.650000X0*%
%ADD20RoundRect,0.250000X-0.550000X-0.550000X0.550000X-0.550000X0.550000X0.550000X-0.550000X0.550000X0*%
%ADD21O,3.500000X2.200000*%
%ADD22R,2.500000X1.500000*%
%ADD23O,2.500000X1.500000*%
%ADD24RoundRect,0.250000X-0.950000X-0.550000X0.950000X-0.550000X0.950000X0.550000X-0.950000X0.550000X0*%
%ADD25R,1.600000X1.600000*%
%ADD26RoundRect,0.250001X-1.149999X-1.149999X1.149999X-1.149999X1.149999X1.149999X-1.149999X1.149999X0*%
%ADD27C,2.800000*%
%ADD28RoundRect,0.250000X0.400000X0.625000X-0.400000X0.625000X-0.400000X-0.625000X0.400000X-0.625000X0*%
%ADD29RoundRect,0.250000X0.650000X-0.412500X0.650000X0.412500X-0.650000X0.412500X-0.650000X-0.412500X0*%
%ADD30RoundRect,0.249999X0.850001X0.850001X-0.850001X0.850001X-0.850001X-0.850001X0.850001X-0.850001X0*%
%ADD31C,2.200000*%
%ADD32RoundRect,0.250000X-0.625000X0.400000X-0.625000X-0.400000X0.625000X-0.400000X0.625000X0.400000X0*%
%ADD33C,2.400000*%
G04 APERTURE END LIST*
D10*
%TO.C,H4*%
X198000000Y-68000000D03*
%TD*%
%TO.C,H1*%
X114000000Y-68000000D03*
%TD*%
D11*
%TO.C,R20*%
X120510000Y-121020000D03*
X123610000Y-121020000D03*
%TD*%
D12*
%TO.C,D1*%
X123310000Y-72810000D03*
D13*
X123310000Y-70270000D03*
%TD*%
D11*
%TO.C,R17*%
X165760000Y-91770000D03*
X168860000Y-91770000D03*
%TD*%
D14*
%TO.C,U0*%
X119870000Y-116830000D03*
D15*
X119870000Y-114290000D03*
X119870000Y-111750000D03*
X119870000Y-109210000D03*
X112250000Y-109210000D03*
X112250000Y-111750000D03*
X112250000Y-114290000D03*
X112250000Y-116830000D03*
%TD*%
D16*
%TO.C,SW1*%
X131060000Y-118520000D03*
X137560000Y-118520000D03*
X131060000Y-123020000D03*
X137560000Y-123020000D03*
%TD*%
D11*
%TO.C,R16*%
X165760000Y-101020000D03*
X168860000Y-101020000D03*
%TD*%
D17*
%TO.C,U3*%
X145370000Y-107660000D03*
D18*
X145370000Y-105120000D03*
X145370000Y-102580000D03*
X145370000Y-100040000D03*
X145370000Y-97500000D03*
X145370000Y-94960000D03*
X145370000Y-92420000D03*
X145370000Y-89880000D03*
X137750000Y-89880000D03*
X137750000Y-92420000D03*
X137750000Y-94960000D03*
X137750000Y-97500000D03*
X137750000Y-100040000D03*
X137750000Y-102580000D03*
X137750000Y-105120000D03*
X137750000Y-107660000D03*
%TD*%
D19*
%TO.C,C4*%
X198997500Y-105770000D03*
X202122500Y-105770000D03*
%TD*%
D11*
%TO.C,R11*%
X140010000Y-85520000D03*
X143110000Y-85520000D03*
%TD*%
D15*
%TO.C,R1*%
X134480000Y-72770000D03*
X144640000Y-72770000D03*
%TD*%
D11*
%TO.C,R5*%
X165760000Y-105520000D03*
X168860000Y-105520000D03*
%TD*%
D20*
%TO.C,C1*%
X188310000Y-85020000D03*
D15*
X190310000Y-85020000D03*
%TD*%
D11*
%TO.C,R18*%
X165760000Y-110020000D03*
X168860000Y-110020000D03*
%TD*%
%TO.C,R6*%
X165760000Y-96520000D03*
X168860000Y-96520000D03*
%TD*%
D21*
%TO.C,SW2*%
X118060000Y-98720000D03*
X118060000Y-90520000D03*
D22*
X118060000Y-96620000D03*
D23*
X118060000Y-94620000D03*
X118060000Y-92620000D03*
%TD*%
D15*
%TO.C,R2*%
X138480000Y-81730000D03*
X148640000Y-81730000D03*
%TD*%
D24*
%TO.C,U2*%
X123440000Y-89940000D03*
D18*
X123440000Y-92480000D03*
X123440000Y-95020000D03*
X123440000Y-97560000D03*
X123440000Y-100100000D03*
X123440000Y-102640000D03*
X123440000Y-105180000D03*
X123440000Y-107720000D03*
X131060000Y-107720000D03*
X131060000Y-105180000D03*
X131060000Y-102640000D03*
X131060000Y-100100000D03*
X131060000Y-97560000D03*
X131060000Y-95020000D03*
X131060000Y-92480000D03*
X131060000Y-89940000D03*
%TD*%
D25*
%TO.C,U5*%
X175980000Y-96730000D03*
D15*
X175980000Y-99270000D03*
X175980000Y-101810000D03*
X175980000Y-104350000D03*
X175980000Y-106890000D03*
X181060000Y-106890000D03*
X181060000Y-104350000D03*
X181060000Y-101810000D03*
X181060000Y-99270000D03*
X181060000Y-96730000D03*
%TD*%
D12*
%TO.C,D2*%
X127310000Y-81770000D03*
D13*
X127310000Y-79230000D03*
%TD*%
D14*
%TO.C,U1*%
X195680000Y-103060000D03*
D15*
X195680000Y-100520000D03*
X195680000Y-97980000D03*
X195680000Y-95440000D03*
X188060000Y-95440000D03*
X188060000Y-97980000D03*
X188060000Y-100520000D03*
X188060000Y-103060000D03*
%TD*%
D26*
%TO.C,J1*%
X176560000Y-84887500D03*
D27*
X181560000Y-84887500D03*
%TD*%
D28*
%TO.C,R9*%
X129810000Y-112520000D03*
X126710000Y-112520000D03*
%TD*%
D10*
%TO.C,H2*%
X114000000Y-132000000D03*
%TD*%
D11*
%TO.C,R8*%
X165760000Y-114770000D03*
X168860000Y-114770000D03*
%TD*%
D29*
%TO.C,C5*%
X111810000Y-105082500D03*
X111810000Y-101957500D03*
%TD*%
D30*
%TO.C,D4*%
X187910000Y-113020000D03*
D31*
X175210000Y-113020000D03*
%TD*%
D15*
%TO.C,R4*%
X153545000Y-74940000D03*
X153545000Y-85100000D03*
%TD*%
D20*
%TO.C,C2*%
X199560000Y-99520000D03*
D15*
X201560000Y-99520000D03*
%TD*%
D32*
%TO.C,R7*%
X111810000Y-95220000D03*
X111810000Y-98320000D03*
%TD*%
%TO.C,R12*%
X134560000Y-89970000D03*
X134560000Y-93070000D03*
%TD*%
D11*
%TO.C,R14*%
X166060000Y-81770000D03*
X169160000Y-81770000D03*
%TD*%
D29*
%TO.C,C3*%
X116810000Y-105082500D03*
X116810000Y-101957500D03*
%TD*%
D12*
%TO.C,D5*%
X161335000Y-80270000D03*
D13*
X158795000Y-80270000D03*
%TD*%
D17*
%TO.C,U4*%
X158870000Y-107660000D03*
D18*
X158870000Y-105120000D03*
X158870000Y-102580000D03*
X158870000Y-100040000D03*
X158870000Y-97500000D03*
X158870000Y-94960000D03*
X158870000Y-92420000D03*
X158870000Y-89880000D03*
X151250000Y-89880000D03*
X151250000Y-92420000D03*
X151250000Y-94960000D03*
X151250000Y-97500000D03*
X151250000Y-100040000D03*
X151250000Y-102580000D03*
X151250000Y-105120000D03*
X151250000Y-107660000D03*
%TD*%
D33*
%TO.C,L1*%
X194810000Y-113020000D03*
X197810000Y-113020000D03*
%TD*%
D12*
%TO.C,D3*%
X145310000Y-113520000D03*
D13*
X145310000Y-116060000D03*
%TD*%
D28*
%TO.C,R10*%
X135860000Y-113520000D03*
X132760000Y-113520000D03*
%TD*%
D11*
%TO.C,R15*%
X165760000Y-86520000D03*
X168860000Y-86520000D03*
%TD*%
D32*
%TO.C,R19*%
X127310000Y-118220000D03*
X127310000Y-121320000D03*
%TD*%
D10*
%TO.C,H3*%
X198000000Y-132000000D03*
%TD*%
D15*
%TO.C,R3*%
X151980000Y-114795000D03*
X162140000Y-114795000D03*
%TD*%
M02*
